<svg xmlns="http://www.w3.org/2000/svg" xmlns:xlink="http://www.w3.org/1999/xlink" xmlns:lucid="lucid" width="563.33" height="257.5"><g transform="translate(-300 -419)" lucid:page-tab-id="t500m8OrlF6P"><path d="M628 520c17.67 0 32 17.9 32 40s-14.33 40-32 40h-96c-17.67 0-32-17.9-32-40s14.33-40 32-40z" stroke="#3a414a" stroke-width="4" fill="#fff"/><use xlink:href="#a" transform="matrix(1,0,0,1,505,525) translate(49.10493827160494 39.65277777777778)"/><path d="M401 450l.95.03 1.4.1 1.35.15 1.32.2 1.3.28 1.27.33 1.25.37 1.25.45 1.26.5 1.26.6 1.26.64 1.3.75 1.3.85 1.35.94 1.4 1.07 1.44 1.23 1.52 1.42 1.6 1.63 1.7 1.9 1.84 2.27 2.02 2.73 2.28 3.4 2.66 4.36 3.32 6.06 5.06 10.35 16.2 35.14 3.32 6.05 2.66 4.36 2.28 3.38 2.03 2.74 1.84 2.26 1.72 1.9 1.6 1.64 1.5 1.42 1.46 1.23 1.4 1.07 1.34.95 1.3.84.1.04" stroke="#3a414a" stroke-linejoin="round" fill="none"/><path d="M401.03 449.5l-.02 1h-.57l.07-.5-.06-.5z" stroke="#3a414a" stroke-width=".05" fill="#3a414a"/><path d="M496.44 559.56l-15 .63 2.5-8.94z" stroke="#3a414a" fill="#fff"/><path d="M320 440h60v20h-60z" fill="none"/><use xlink:href="#b" transform="matrix(1,0,0,1,320,440) translate(15.21604938271605 17.77777777777778)"/><path d="M400 450c0 5.52-4.48 10-10 10s-10-4.48-10-10 4.48-10 10-10 10 4.48 10 10z" stroke="#3a414a" fill="#fff"/><path d="M320 500h60v20h-60z" fill="none"/><use xlink:href="#c" transform="matrix(1,0,0,1,320,500) translate(15.21604938271605 17.77777777777778)"/><path d="M400 510c0 5.52-4.48 10-10 10s-10-4.48-10-10 4.48-10 10-10 10 4.48 10 10z" stroke="#3a414a" fill="#fff"/><path d="M320 636.5h60v20h-60z" fill="none"/><use xlink:href="#d" transform="matrix(1,0,0,1,320,636.5) translate(13.981481481481481 17.77777777777778)"/><path d="M400 646.5c0 5.52-4.48 10-10 10s-10-4.48-10-10 4.48-10 10-10 10 4.48 10 10z" stroke="#3a414a" fill="#fff"/><path d="M401 510l3 .1 3.2.23 2.94.38 2.78.52 2.62.6 2.5.74 2.45.84 2.37.97 2.36 1.1 2.38 1.26 2.45 1.46 2.56 1.7 2.8 2.1 3.23 2.67 4.36 4.03 16.88 16.63 3.22 2.68 2.8 2.1 2.55 1.7 2.44 1.47 2.37 1.26 2.37 1.1 2.38.97 2.43.84 1.36.4" stroke="#3a414a" stroke-linejoin="round" fill="none"/><path d="M401.03 509.5l-.02 1h-.57l.07-.5-.06-.5z" stroke="#3a414a" stroke-width=".05" fill="#3a414a"/><path d="M496.4 559.8l-14.76 2.7 1.23-9.2z" stroke="#3a414a" fill="#fff"/><path d="M401 646.5l1.56-.05 1.96-.15 1.87-.24 1.8-.33 1.75-.4 1.72-.5 1.7-.6 1.66-.67 1.68-.78 1.7-.9 1.7-1 1.74-1.18 1.8-1.34 1.87-1.56 2-1.82 2.12-2.17 2.33-2.63 2.64-3.33 3.17-4.44 4.4-6.9 18.56-31.4 3.18-4.44 2.66-3.33 2.33-2.64 2.1-2.18 2-1.82 1.87-1.56 1.8-1.34 1.74-1.16 1.72-1.02 1.68-.9.35-.16" stroke="#3a414a" stroke-linejoin="round" fill="none"/><path d="M401.03 647h-.6l.07-.5-.06-.5h.57z" stroke="#3a414a" stroke-width=".05" fill="#3a414a"/><path d="M496.42 560.36l-12.9 7.64-2.03-9.04zM780 450c0 5.52-4.48 10-10 10s-10-4.48-10-10 4.48-10 10-10 10 4.48 10 10z" stroke="#3a414a" fill="#fff"/><path d="M776 450c0 3.3-2.7 6-6 6s-6-2.7-6-6 2.7-6 6-6 6 2.7 6 6z" stroke="#3a414a"/><path d="M780 440h60v20h-60z" fill="none"/><use xlink:href="#e" transform="matrix(1,0,0,1,780,440) translate(8.395061728395063 17.77777777777778)"/><path d="M783.33 510c0 5.52-4.47 10-10 10-5.52 0-10-4.48-10-10s4.48-10 10-10c5.53 0 10 4.48 10 10z" stroke="#3a414a" fill="#fff"/><path d="M779.33 510c0 3.3-2.68 6-6 6-3.3 0-6-2.7-6-6s2.7-6 6-6c3.32 0 6 2.7 6 6z" stroke="#3a414a"/><path d="M783.33 500h60v20h-60z" fill="none"/><use xlink:href="#f" transform="matrix(1,0,0,1,783.3333333333333,500) translate(8.395061728395063 17.77777777777778)"/><path d="M783.33 646.5c0 5.52-4.47 10-10 10-5.52 0-10-4.48-10-10s4.48-10 10-10c5.53 0 10 4.48 10 10z" stroke="#3a414a" fill="#fff"/><path d="M779.33 646.5c0 3.3-2.68 6-6 6-3.3 0-6-2.7-6-6s2.7-6 6-6c3.32 0 6 2.7 6 6z" stroke="#3a414a"/><path d="M783.33 636.5h60v20h-60z" fill="none"/><use xlink:href="#g" transform="matrix(1,0,0,1,783.3333333333333,636.5) translate(7.160493827160494 17.77777777777778)"/><path d="M662.5 560l.95-.03 1.4-.1 1.35-.15 1.32-.2 1.3-.28 1.27-.33 1.25-.37 1.25-.45 1.25-.5 1.26-.6 1.28-.64 1.3-.75 1.3-.85 1.35-.95 1.4-1.07 1.44-1.23 1.5-1.4 1.6-1.65 1.72-1.9 1.83-2.27 2.03-2.74 2.28-3.38 2.66-4.37 3.32-6.06 5.05-10.35 16.2-35.14 3.33-6.05 2.66-4.36 2.28-3.38 2.02-2.74 1.85-2.26 1.72-1.9 1.6-1.64 1.5-1.42 1.45-1.23 1.4-1.07 1.34-.95 1.33-.84.08-.04" stroke="#3a414a" stroke-linejoin="round" fill="none"/><path d="M662.53 560.5h-.56l.03-.47-.02-.53h.52z" stroke="#3a414a" stroke-width=".05" fill="#3a414a"/><path d="M757.94 450.44l-12.5 8.3-2.5-8.93z" stroke="#3a414a" fill="#fff"/><path d="M662.5 560l3.1-.1 3.3-.23 3.07-.38 2.86-.5 2.7-.63 2.6-.72 2.5-.84 2.43-.94 2.42-1.08 2.42-1.24 2.48-1.42 2.58-1.66 2.8-2 3.16-2.5 4.1-3.6 18.9-17.92 3.17-2.5 2.77-2 2.6-1.66 2.46-1.42 2.42-1.24 2.42-1.08 2.44-.95 2.5-.85 1.92-.53" stroke="#3a414a" stroke-linejoin="round" fill="none"/><path d="M662.53 560.5h-.56l.03-.47-.02-.53h.52z" stroke="#3a414a" stroke-width=".05" fill="#3a414a"/><path d="M761.22 510.2l-13.58 6.36-1.15-9.2z" stroke="#3a414a" fill="#fff"/><path d="M662.5 560l1.63.05 2.02.15 1.94.24 1.85.33 1.8.4 1.77.5 1.74.6 1.72.65 1.7.77 1.72.87 1.73 1 1.77 1.12 1.8 1.28 1.88 1.5 1.97 1.72 2.1 2.02 2.27 2.44 2.54 3 2.95 3.86 3.8 5.5 7.55 12.37 10.9 18.1 3.77 5.48 2.95 3.87 2.54 3 2.28 2.43 2.1 2.02 1.97 1.73 1.87 1.5 1.8 1.28 1.78 1.14 1.73 1 1.7.87.8.36" stroke="#3a414a" stroke-linejoin="round" fill="none"/><path d="M662.53 559.5l-.03 1h-.53l.03-.47-.02-.53z" stroke="#3a414a" stroke-width=".05" fill="#3a414a"/><path d="M761.25 646.17l-14.92 1.6 1.9-9.07z" stroke="#3a414a" fill="#fff"/><path d="M390.5 540.5c0 .28-.22.5-.5.5s-.5-.22-.5-.5.22-.5.5-.5.5.22.5.5zm0 3.95c0 .28-.22.5-.5.5s-.5-.22-.5-.5.22-.5.5-.5.5.22.5.5zm0 3.95c0 .28-.22.5-.5.5s-.5-.22-.5-.5.22-.5.5-.5.5.22.5.5zm0 3.95c0 .28-.22.5-.5.5s-.5-.22-.5-.5.22-.5.5-.5.5.22.5.5zm0 3.95c0 .28-.22.5-.5.5s-.5-.22-.5-.5.22-.5.5-.5.5.22.5.5zm0 3.95c0 .28-.22.5-.5.5s-.5-.22-.5-.5.22-.5.5-.5.5.22.5.5zm0 3.95c0 .28-.22.5-.5.5s-.5-.22-.5-.5.22-.5.5-.5.5.22.5.5zm0 3.95c0 .28-.22.5-.5.5s-.5-.22-.5-.5.22-.5.5-.5.5.22.5.5zm0 3.95c0 .28-.22.5-.5.5s-.5-.22-.5-.5.22-.5.5-.5.5.22.5.5zm0 3.95c0 .28-.22.5-.5.5s-.5-.22-.5-.5.22-.5.5-.5.5.22.5.5zm0 3.95c0 .28-.22.5-.5.5s-.5-.22-.5-.5.22-.5.5-.5.5.22.5.5zm0 3.95c0 .28-.22.5-.5.5s-.5-.22-.5-.5.22-.5.5-.5.5.22.5.5zm0 3.95c0 .28-.22.5-.5.5s-.5-.22-.5-.5.22-.5.5-.5.5.22.5.5zm0 3.95c0 .28-.22.5-.5.5s-.5-.22-.5-.5.22-.5.5-.5.5.22.5.5zm0 3.95c0 .28-.22.5-.5.5s-.5-.22-.5-.5.22-.5.5-.5.5.22.5.5zm0 3.95c0 .28-.22.5-.5.5s-.5-.22-.5-.5.22-.5.5-.5.5.22.5.5zm0 3.95c0 .28-.22.5-.5.5s-.5-.22-.5-.5.22-.5.5-.5.5.22.5.5zm0 3.95c0 .28-.22.5-.5.5s-.5-.22-.5-.5.22-.5.5-.5.5.22.5.5zm0 3.95c0 .28-.22.5-.5.5s-.5-.22-.5-.5.22-.5.5-.5.5.22.5.5zm0 3.95c0 .28-.22.5-.5.5s-.5-.22-.5-.5.22-.5.5-.5.5.22.5.5z" fill="#3a414a"/><path d="M390 540.5v-.5M390 619.5v.5" stroke="#3a414a" fill="none"/><path d="M770.5 540.5c0 .28-.22.5-.5.5s-.5-.22-.5-.5.22-.5.5-.5.5.22.5.5zm0 3.95c0 .28-.22.5-.5.5s-.5-.22-.5-.5.22-.5.5-.5.5.22.5.5zm0 3.95c0 .28-.22.5-.5.5s-.5-.22-.5-.5.22-.5.5-.5.5.22.5.5zm0 3.95c0 .28-.22.5-.5.5s-.5-.22-.5-.5.22-.5.5-.5.5.22.5.5zm0 3.95c0 .28-.22.5-.5.5s-.5-.22-.5-.5.22-.5.5-.5.5.22.5.5zm0 3.95c0 .28-.22.5-.5.5s-.5-.22-.5-.5.22-.5.5-.5.5.22.5.5zm0 3.95c0 .28-.22.5-.5.5s-.5-.22-.5-.5.22-.5.5-.5.5.22.5.5zm0 3.95c0 .28-.22.5-.5.5s-.5-.22-.5-.5.22-.5.5-.5.5.22.5.5zm0 3.95c0 .28-.22.5-.5.5s-.5-.22-.5-.5.22-.5.5-.5.5.22.5.5zm0 3.95c0 .28-.22.5-.5.5s-.5-.22-.5-.5.22-.5.5-.5.5.22.5.5zm0 3.95c0 .28-.22.5-.5.5s-.5-.22-.5-.5.22-.5.5-.5.5.22.5.5zm0 3.95c0 .28-.22.5-.5.5s-.5-.22-.5-.5.22-.5.5-.5.5.22.5.5zm0 3.95c0 .28-.22.5-.5.5s-.5-.22-.5-.5.22-.5.5-.5.5.22.5.5zm0 3.95c0 .28-.22.5-.5.5s-.5-.22-.5-.5.22-.5.5-.5.5.22.5.5zm0 3.95c0 .28-.22.5-.5.5s-.5-.22-.5-.5.22-.5.5-.5.5.22.5.5zm0 3.95c0 .28-.22.5-.5.5s-.5-.22-.5-.5.22-.5.5-.5.5.22.5.5zm0 3.95c0 .28-.22.5-.5.5s-.5-.22-.5-.5.22-.5.5-.5.5.22.5.5zm0 3.95c0 .28-.22.5-.5.5s-.5-.22-.5-.5.22-.5.5-.5.5.22.5.5zm0 3.95c0 .28-.22.5-.5.5s-.5-.22-.5-.5.22-.5.5-.5.5.22.5.5zm0 3.95c0 .28-.22.5-.5.5s-.5-.22-.5-.5.22-.5.5-.5.5.22.5.5z" fill="#3a414a"/><path d="M770 540.5v-.5M770 619.5v.5" stroke="#3a414a" fill="none"/><defs><path fill="#3a414a" d="M205 0l-28-72H64L36 0H1l101-248h38L239 0h-34zm-38-99l-47-123c-12 45-31 82-46 123h93" id="h"/><path fill="#3a414a" d="M96-169c-40 0-48 33-48 73s9 75 48 75c24 0 41-14 43-38l32 2c-6 37-31 61-74 61-59 0-76-41-82-99-10-93 101-131 147-64 4 7 5 14 7 22l-32 3c-4-21-16-35-41-35" id="i"/><path fill="#3a414a" d="M59-47c-2 24 18 29 38 22v24C64 9 27 4 27-40v-127H5v-23h24l9-43h21v43h35v23H59v120" id="j"/><path fill="#3a414a" d="M100-194c62-1 85 37 85 99 1 63-27 99-86 99S16-35 15-95c0-66 28-99 85-99zM99-20c44 1 53-31 53-75 0-43-8-75-51-75s-53 32-53 75 10 74 51 75" id="k"/><path fill="#3a414a" d="M114-163C36-179 61-72 57 0H25l-1-190h30c1 12-1 29 2 39 6-27 23-49 58-41v29" id="l"/><g id="a"><use transform="matrix(0.06172839506172839,0,0,0.06172839506172839,0,0)" xlink:href="#h"/><use transform="matrix(0.06172839506172839,0,0,0.06172839506172839,14.814814814814813,0)" xlink:href="#i"/><use transform="matrix(0.06172839506172839,0,0,0.06172839506172839,25.925925925925924,0)" xlink:href="#j"/><use transform="matrix(0.06172839506172839,0,0,0.06172839506172839,32.098765432098766,0)" xlink:href="#k"/><use transform="matrix(0.06172839506172839,0,0,0.06172839506172839,44.44444444444444,0)" xlink:href="#l"/></g><path fill="#3a414a" d="M24-231v-30h32v30H24zM24 0v-190h32V0H24" id="m"/><path fill="#3a414a" d="M117-194c89-4 53 116 60 194h-32v-121c0-31-8-49-39-48C34-167 62-67 57 0H25l-1-190h30c1 10-1 24 2 32 11-22 29-35 61-36" id="n"/><path fill="#3a414a" d="M27 0v-27h64v-190l-56 39v-29l58-41h29v221h61V0H27" id="o"/><g id="b"><use transform="matrix(0.06172839506172839,0,0,0.06172839506172839,0,0)" xlink:href="#m"/><use transform="matrix(0.06172839506172839,0,0,0.06172839506172839,4.876543209876543,0)" xlink:href="#n"/><use transform="matrix(0.06172839506172839,0,0,0.06172839506172839,17.22222222222222,0)" xlink:href="#o"/></g><path fill="#3a414a" d="M101-251c82-7 93 87 43 132L82-64C71-53 59-42 53-27h129V0H18c2-99 128-94 128-182 0-28-16-43-45-43s-46 15-49 41l-32-3c6-41 34-60 81-64" id="p"/><g id="c"><use transform="matrix(0.06172839506172839,0,0,0.06172839506172839,0,0)" xlink:href="#m"/><use transform="matrix(0.06172839506172839,0,0,0.06172839506172839,4.876543209876543,0)" xlink:href="#n"/><use transform="matrix(0.06172839506172839,0,0,0.06172839506172839,17.22222222222222,0)" xlink:href="#p"/></g><path fill="#3a414a" d="M195 0l-74-108L45 0H8l94-129-87-119h37l69 98 67-98h37l-84 118L233 0h-38" id="q"/><g id="d"><use transform="matrix(0.06172839506172839,0,0,0.06172839506172839,0,0)" xlink:href="#m"/><use transform="matrix(0.06172839506172839,0,0,0.06172839506172839,4.876543209876543,0)" xlink:href="#n"/><use transform="matrix(0.06172839506172839,0,0,0.06172839506172839,17.22222222222222,0)" xlink:href="#q"/></g><path fill="#3a414a" d="M84 4C-5 8 30-112 23-190h32v120c0 31 7 50 39 49 72-2 45-101 50-169h31l1 190h-30c-1-10 1-25-2-33-11 22-28 36-60 37" id="r"/><g id="e"><use transform="matrix(0.06172839506172839,0,0,0.06172839506172839,0,0)" xlink:href="#k"/><use transform="matrix(0.06172839506172839,0,0,0.06172839506172839,12.345679012345679,0)" xlink:href="#r"/><use transform="matrix(0.06172839506172839,0,0,0.06172839506172839,24.691358024691358,0)" xlink:href="#j"/><use transform="matrix(0.06172839506172839,0,0,0.06172839506172839,30.864197530864196,0)" xlink:href="#o"/></g><g id="f"><use transform="matrix(0.06172839506172839,0,0,0.06172839506172839,0,0)" xlink:href="#k"/><use transform="matrix(0.06172839506172839,0,0,0.06172839506172839,12.345679012345679,0)" xlink:href="#r"/><use transform="matrix(0.06172839506172839,0,0,0.06172839506172839,24.691358024691358,0)" xlink:href="#j"/><use transform="matrix(0.06172839506172839,0,0,0.06172839506172839,30.864197530864196,0)" xlink:href="#p"/></g><path fill="#3a414a" d="M137-103V0h-34v-103L8-248h37l75 118 75-118h37" id="s"/><g id="g"><use transform="matrix(0.06172839506172839,0,0,0.06172839506172839,0,0)" xlink:href="#k"/><use transform="matrix(0.06172839506172839,0,0,0.06172839506172839,12.345679012345679,0)" xlink:href="#r"/><use transform="matrix(0.06172839506172839,0,0,0.06172839506172839,24.691358024691358,0)" xlink:href="#j"/><use transform="matrix(0.06172839506172839,0,0,0.06172839506172839,30.864197530864196,0)" xlink:href="#s"/></g></defs></g></svg>