<svg xmlns="http://www.w3.org/2000/svg" xmlns:xlink="http://www.w3.org/1999/xlink" xmlns:lucid="lucid" width="917" height="358.91"><g transform="translate(-682.8333333333333 -477.8787878787879)" lucid:page-tab-id="unk1xLCt4JuZ"><path d="M1012 503.88a6 6 0 0 1 6-6h476.2a6 6 0 0 1 6 6v306.9a6 6 0 0 1-6 6H1018a6 6 0 0 1-6-6z" stroke="#3a414a" stroke-width="4" fill="#fff"/><use xlink:href="#a" transform="matrix(1,0,0,1,1024.0151515151515,509.8787878787879) translate(0 17.77777777777778)"/><use xlink:href="#b" transform="matrix(1,0,0,1,1024.0151515151515,509.8787878787879) translate(93.70370370370371 17.77777777777778)"/><path d="M945.45 550.26h651.88" stroke="#3a414a" fill="none"/><path d="M945.46 550.76h-.5l-.03-1h.53z" stroke="#3a414a" stroke-width=".05" fill="#3a414a"/><path d="M1597.32 550.26h.5M947.92 657.33h649.4" stroke="#3a414a" fill="none"/><path d="M947.94 657.83h-.53l.02-.5v-.5h.52z" stroke="#3a414a" stroke-width=".05" fill="#3a414a"/><path d="M1597.32 657.33h.5M945.4 763.73h325.93a.04.04 0 0 0 .04-.05.04.04 0 0 1 .05-.04h325.9" stroke="#3a414a" fill="none"/><path d="M945.43 764.23h-.55l.06-1h.5z" stroke="#3a414a" stroke-width=".05" fill="#3a414a"/><path d="M1597.32 763.64h.5" stroke="#3a414a" fill="none"/><path d="M702.83 643.4a6 6 0 0 1 6-6H827a6 6 0 0 1 6 6v27.87a6 6 0 0 1-6 6H708.85a6 6 0 0 1-6-6z" stroke="#000" stroke-opacity="0" fill="#fff" fill-opacity="0"/><use xlink:href="#c" transform="matrix(1,0,0,1,707.8333333333333,642.4015151515152) translate(35.68518518518519 17.77777777777778)"/><use xlink:href="#d" transform="matrix(1,0,0,1,707.8333333333333,642.4015151515152) translate(19.203703703703702 44.44444444444444)"/><path d="M702.83 749.7a6 6 0 0 1 6-6H827a6 6 0 0 1 6 6v27.87a6 6 0 0 1-6 6H708.85a6 6 0 0 1-6-6z" stroke="#000" stroke-opacity="0" fill="#fff" fill-opacity="0"/><use xlink:href="#e" transform="matrix(1,0,0,1,707.8333333333333,748.7045454545457) translate(32.75308641975309 17.77777777777778)"/><use xlink:href="#d" transform="matrix(1,0,0,1,707.8333333333333,748.7045454545457) translate(19.203703703703702 44.44444444444444)"/><path d="M702.83 537.1a6 6 0 0 1 6-6H827a6 6 0 0 1 6 6v27.86a6 6 0 0 1-6 6H708.85a6 6 0 0 1-6-6z" stroke="#000" stroke-opacity="0" fill="#fff" fill-opacity="0"/><use xlink:href="#f" transform="matrix(1,0,0,1,707.8333333333333,536.0984848484848) translate(33.37037037037037 17.77777777777778)"/><use xlink:href="#d" transform="matrix(1,0,0,1,707.8333333333333,536.0984848484848) translate(19.203703703703702 44.44444444444444)"/><g stroke="#3a414a"><path d="M888.34 795.2c-3.6 0-6.5-61.73-6.5-137.87 0-76.14 2.9-137.86 6.5-137.86h52.08c3.6 0 6.5 61.72 6.5 137.86 0 76.14-2.9 137.86-6.5 137.86z" fill="#fff"/><path d="M888.34 519.47c3.6 0 6.5 61.72 6.5 137.86 0 76.14-2.9 137.86-6.5 137.86" fill="none"/></g><use xlink:href="#g" transform="matrix(-1.8369701987210297e-16,-1,1,-1.8369701987210297e-16,899.8515151515151,790.1950757575758) translate(105.0679012345679 25.84027777777778)"/><path d="M1304.92 540c17.98 0 32.55 30.73 32.55 68.63 0 37.9-14.57 68.63-32.55 68.63h-97.63c-18 0-32.56-30.72-32.56-68.63 0-37.9 14.57-68.63 32.55-68.63z" stroke="#3a414a" stroke-width="4" fill="#fff"/><use xlink:href="#h" transform="matrix(1,0,0,1,1183.742424242424,549) translate(0.9876543209876587 55.27777777777778)"/><use xlink:href="#i" transform="matrix(1,0,0,1,1183.742424242424,549) translate(92.22222222222223 55.27777777777778)"/><use xlink:href="#j" transform="matrix(1,0,0,1,1183.742424242424,549) translate(5.15432098765433 76.61111111111111)"/><use xlink:href="#k" transform="matrix(1,0,0,1,1183.742424242424,549) translate(28.54938271604939 76.61111111111111)"/><use xlink:href="#l" transform="matrix(1,0,0,1,1183.742424242424,549) translate(84.35185185185186 76.61111111111111)"/><path d="M833.5 551H891.75" stroke="#3a414a" fill="none"/><path d="M833.53 551.5h-.5v-1h.5z" stroke="#3a414a" stroke-width=".05" fill="#3a414a"/><path d="M891.72 551h.52M833.5 657.33h60.95" stroke="#3a414a" fill="none"/><path d="M833.53 657.83h-.5v-1h.5z" stroke="#3a414a" stroke-width=".05" fill="#3a414a"/><path d="M894.44 657.33h.5M833.5 763.64h58.66" stroke="#3a414a" fill="none"/><path d="M833.53 764.14h-.5v-1h.5z" stroke="#3a414a" stroke-width=".05" fill="#3a414a"/><path d="M892.15 763.63h.5" stroke="#3a414a" fill="none"/><defs><path fill="#3a414a" d="M160-131c35 5 61 23 61 61C221 17 115-2 30 0v-248c76 3 177-17 177 60 0 33-19 50-47 57zm-97-11c50-1 110 9 110-42 0-47-63-36-110-37v79zm0 115c55-2 124 14 124-45 0-56-70-42-124-44v89" id="m"/><path fill="#3a414a" d="M141-36C126-15 110 5 73 4 37 3 15-17 15-53c-1-64 63-63 125-63 3-35-9-54-41-54-24 1-41 7-42 31l-33-3c5-37 33-52 76-52 45 0 72 20 72 64v82c-1 20 7 32 28 27v20c-31 9-61-2-59-35zM48-53c0 20 12 33 32 33 41-3 63-29 60-74-43 2-92-5-92 41" id="n"/><path fill="#3a414a" d="M24 0v-261h32V0H24" id="o"/><path fill="#3a414a" d="M117-194c89-4 53 116 60 194h-32v-121c0-31-8-49-39-48C34-167 62-67 57 0H25l-1-190h30c1 10-1 24 2 32 11-22 29-35 61-36" id="p"/><path fill="#3a414a" d="M96-169c-40 0-48 33-48 73s9 75 48 75c24 0 41-14 43-38l32 2c-6 37-31 61-74 61-59 0-76-41-82-99-10-93 101-131 147-64 4 7 5 14 7 22l-32 3c-4-21-16-35-41-35" id="q"/><path fill="#3a414a" d="M100-194c63 0 86 42 84 106H49c0 40 14 67 53 68 26 1 43-12 49-29l28 8c-11 28-37 45-77 45C44 4 14-33 15-96c1-61 26-98 85-98zm52 81c6-60-76-77-97-28-3 7-6 17-6 28h103" id="r"/><path fill="#3a414a" d="M114-163C36-179 61-72 57 0H25l-1-190h30c1 12-1 29 2 39 6-27 23-49 58-41v29" id="s"/><g id="a"><use transform="matrix(0.06172839506172839,0,0,0.06172839506172839,0,0)" xlink:href="#m"/><use transform="matrix(0.06172839506172839,0,0,0.06172839506172839,14.814814814814813,0)" xlink:href="#n"/><use transform="matrix(0.06172839506172839,0,0,0.06172839506172839,27.160493827160494,0)" xlink:href="#o"/><use transform="matrix(0.06172839506172839,0,0,0.06172839506172839,32.03703703703704,0)" xlink:href="#n"/><use transform="matrix(0.06172839506172839,0,0,0.06172839506172839,44.382716049382715,0)" xlink:href="#p"/><use transform="matrix(0.06172839506172839,0,0,0.06172839506172839,56.72839506172839,0)" xlink:href="#q"/><use transform="matrix(0.06172839506172839,0,0,0.06172839506172839,67.8395061728395,0)" xlink:href="#r"/><use transform="matrix(0.06172839506172839,0,0,0.06172839506172839,80.18518518518519,0)" xlink:href="#s"/></g><path fill="#3a414a" d="M140-251c81 0 123 46 123 126C263-46 219 4 140 4 59 4 17-45 17-125s42-126 123-126zm0 227c63 0 89-41 89-101s-29-99-89-99c-61 0-89 39-89 99S79-25 140-24" id="t"/><path fill="#3a414a" d="M115-194c55 1 70 41 70 98S169 2 115 4C84 4 66-9 55-30l1 105H24l-1-265h31l2 30c10-21 28-34 59-34zm-8 174c40 0 45-34 45-75s-6-73-45-74c-42 0-51 32-51 76 0 43 10 73 51 73" id="u"/><path fill="#3a414a" d="M59-47c-2 24 18 29 38 22v24C64 9 27 4 27-40v-127H5v-23h24l9-43h21v43h35v23H59v120" id="v"/><path fill="#3a414a" d="M100-194c62-1 85 37 85 99 1 63-27 99-86 99S16-35 15-95c0-66 28-99 85-99zM99-20c44 1 53-31 53-75 0-43-8-75-51-75s-53 32-53 75 10 74 51 75" id="w"/><g id="b"><use transform="matrix(0.06172839506172839,0,0,0.06172839506172839,0,0)" xlink:href="#t"/><use transform="matrix(0.06172839506172839,0,0,0.06172839506172839,17.28395061728395,0)" xlink:href="#u"/><use transform="matrix(0.06172839506172839,0,0,0.06172839506172839,29.629629629629626,0)" xlink:href="#r"/><use transform="matrix(0.06172839506172839,0,0,0.06172839506172839,41.9753086419753,0)" xlink:href="#s"/><use transform="matrix(0.06172839506172839,0,0,0.06172839506172839,49.32098765432098,0)" xlink:href="#n"/><use transform="matrix(0.06172839506172839,0,0,0.06172839506172839,61.66666666666666,0)" xlink:href="#v"/><use transform="matrix(0.06172839506172839,0,0,0.06172839506172839,67.83950617283949,0)" xlink:href="#w"/><use transform="matrix(0.06172839506172839,0,0,0.06172839506172839,80.18518518518518,0)" xlink:href="#s"/></g><path fill="#3a414a" d="M127-220V0H93v-220H8v-28h204v28h-85" id="x"/><path fill="#3a414a" d="M24-231v-30h32v30H24zM24 0v-190h32V0H24" id="y"/><g id="c"><use transform="matrix(0.06172839506172839,0,0,0.06172839506172839,0,0)" xlink:href="#x"/><use transform="matrix(0.06172839506172839,0,0,0.06172839506172839,12.716049382716047,0)" xlink:href="#s"/><use transform="matrix(0.06172839506172839,0,0,0.06172839506172839,20.061728395061728,0)" xlink:href="#n"/><use transform="matrix(0.06172839506172839,0,0,0.06172839506172839,32.407407407407405,0)" xlink:href="#y"/><use transform="matrix(0.06172839506172839,0,0,0.06172839506172839,37.28395061728395,0)" xlink:href="#p"/></g><path fill="#3a414a" d="M212-179c-10-28-35-45-73-45-59 0-87 40-87 99 0 60 29 101 89 101 43 0 62-24 78-52l27 14C228-24 195 4 139 4 59 4 22-46 18-125c-6-104 99-153 187-111 19 9 31 26 39 46" id="z"/><path fill="#3a414a" d="M106-169C34-169 62-67 57 0H25v-261h32l-1 103c12-21 28-36 61-36 89 0 53 116 60 194h-32v-121c2-32-8-49-39-48" id="A"/><g id="d"><use transform="matrix(0.06172839506172839,0,0,0.06172839506172839,0,0)" xlink:href="#z"/><use transform="matrix(0.06172839506172839,0,0,0.06172839506172839,15.987654320987653,0)" xlink:href="#A"/><use transform="matrix(0.06172839506172839,0,0,0.06172839506172839,28.333333333333332,0)" xlink:href="#n"/><use transform="matrix(0.06172839506172839,0,0,0.06172839506172839,40.67901234567901,0)" xlink:href="#p"/><use transform="matrix(0.06172839506172839,0,0,0.06172839506172839,53.02469135802469,0)" xlink:href="#p"/><use transform="matrix(0.06172839506172839,0,0,0.06172839506172839,65.37037037037037,0)" xlink:href="#r"/><use transform="matrix(0.06172839506172839,0,0,0.06172839506172839,77.71604938271605,0)" xlink:href="#o"/></g><path fill="#3a414a" d="M205 0l-28-72H64L36 0H1l101-248h38L239 0h-34zm-38-99l-47-123c-12 45-31 82-46 123h93" id="B"/><path fill="#3a414a" d="M179-190L93 31C79 59 56 82 12 73V49c39 6 53-20 64-50L1-190h34L92-34l54-156h33" id="C"/><g id="e"><use transform="matrix(0.06172839506172839,0,0,0.06172839506172839,0,0)" xlink:href="#B"/><use transform="matrix(0.06172839506172839,0,0,0.06172839506172839,14.814814814814813,0)" xlink:href="#u"/><use transform="matrix(0.06172839506172839,0,0,0.06172839506172839,27.160493827160494,0)" xlink:href="#u"/><use transform="matrix(0.06172839506172839,0,0,0.06172839506172839,39.50617283950617,0)" xlink:href="#o"/><use transform="matrix(0.06172839506172839,0,0,0.06172839506172839,44.382716049382715,0)" xlink:href="#C"/></g><path fill="#3a414a" d="M30 0v-248h33v221h125V0H30" id="D"/><path fill="#3a414a" d="M115-194c53 0 69 39 70 98 0 66-23 100-70 100C84 3 66-7 56-30L54 0H23l1-261h32v101c10-23 28-34 59-34zm-8 174c40 0 45-34 45-75 0-40-5-75-45-74-42 0-51 32-51 76 0 43 10 73 51 73" id="E"/><g id="f"><use transform="matrix(0.06172839506172839,0,0,0.06172839506172839,0,0)" xlink:href="#D"/><use transform="matrix(0.06172839506172839,0,0,0.06172839506172839,12.345679012345679,0)" xlink:href="#n"/><use transform="matrix(0.06172839506172839,0,0,0.06172839506172839,24.691358024691358,0)" xlink:href="#E"/><use transform="matrix(0.06172839506172839,0,0,0.06172839506172839,37.03703703703704,0)" xlink:href="#r"/><use transform="matrix(0.06172839506172839,0,0,0.06172839506172839,49.382716049382715,0)" xlink:href="#o"/></g><path fill="#3a414a" d="M84 4C-5 8 30-112 23-190h32v120c0 31 7 50 39 49 72-2 45-101 50-169h31l1 190h-30c-1-10 1-25-2-33-11 22-28 36-60 37" id="F"/><path fill="#3a414a" d="M143 0L79-87 56-68V0H24v-261h32v163l83-92h37l-77 82L181 0h-38" id="G"/><g id="g"><use transform="matrix(0.06172839506172839,0,0,0.06172839506172839,0,0)" xlink:href="#x"/><use transform="matrix(0.06172839506172839,0,0,0.06172839506172839,12.716049382716047,0)" xlink:href="#s"/><use transform="matrix(0.06172839506172839,0,0,0.06172839506172839,20.061728395061728,0)" xlink:href="#F"/><use transform="matrix(0.06172839506172839,0,0,0.06172839506172839,32.407407407407405,0)" xlink:href="#p"/><use transform="matrix(0.06172839506172839,0,0,0.06172839506172839,44.75308641975308,0)" xlink:href="#G"/></g><path fill="#3a414a" d="M177-190C167-65 218 103 67 71c-23-6-38-20-44-43l32-5c15 47 100 32 89-28v-30C133-14 115 1 83 1 29 1 15-40 15-95c0-56 16-97 71-98 29-1 48 16 59 35 1-10 0-23 2-32h30zM94-22c36 0 50-32 50-73 0-42-14-75-50-75-39 0-46 34-46 75s6 73 46 73" id="H"/><g id="h"><use transform="matrix(0.06172839506172839,0,0,0.06172839506172839,0,0)" xlink:href="#B"/><use transform="matrix(0.06172839506172839,0,0,0.06172839506172839,14.814814814814813,0)" xlink:href="#u"/><use transform="matrix(0.06172839506172839,0,0,0.06172839506172839,27.160493827160494,0)" xlink:href="#u"/><use transform="matrix(0.06172839506172839,0,0,0.06172839506172839,39.50617283950617,0)" xlink:href="#o"/><use transform="matrix(0.06172839506172839,0,0,0.06172839506172839,44.382716049382715,0)" xlink:href="#C"/><use transform="matrix(0.06172839506172839,0,0,0.06172839506172839,55.49382716049382,0)" xlink:href="#y"/><use transform="matrix(0.06172839506172839,0,0,0.06172839506172839,60.37037037037037,0)" xlink:href="#p"/><use transform="matrix(0.06172839506172839,0,0,0.06172839506172839,72.71604938271605,0)" xlink:href="#H"/></g><g id="i"><use transform="matrix(0.06172839506172839,0,0,0.06172839506172839,0,0)" xlink:href="#B"/><use transform="matrix(0.06172839506172839,0,0,0.06172839506172839,14.814814814814813,0)" xlink:href="#q"/><use transform="matrix(0.06172839506172839,0,0,0.06172839506172839,25.925925925925924,0)" xlink:href="#v"/><use transform="matrix(0.06172839506172839,0,0,0.06172839506172839,32.098765432098766,0)" xlink:href="#w"/><use transform="matrix(0.06172839506172839,0,0,0.06172839506172839,44.44444444444444,0)" xlink:href="#s"/></g><g id="j"><use transform="matrix(0.06172839506172839,0,0,0.06172839506172839,0,0)" xlink:href="#y"/><use transform="matrix(0.06172839506172839,0,0,0.06172839506172839,4.876543209876543,0)" xlink:href="#p"/></g><g id="k"><use transform="matrix(0.06172839506172839,0,0,0.06172839506172839,0,0)" xlink:href="#x"/><use transform="matrix(0.06172839506172839,0,0,0.06172839506172839,12.716049382716047,0)" xlink:href="#s"/><use transform="matrix(0.06172839506172839,0,0,0.06172839506172839,20.061728395061728,0)" xlink:href="#n"/><use transform="matrix(0.06172839506172839,0,0,0.06172839506172839,32.407407407407405,0)" xlink:href="#y"/><use transform="matrix(0.06172839506172839,0,0,0.06172839506172839,37.28395061728395,0)" xlink:href="#p"/></g><path fill="#3a414a" d="M240 0l2-218c-23 76-54 145-80 218h-23L58-218 59 0H30v-248h44l77 211c21-75 51-140 76-211h43V0h-30" id="I"/><path fill="#3a414a" d="M85-194c31 0 48 13 60 33l-1-100h32l1 261h-30c-2-10 0-23-3-31C134-8 116 4 85 4 32 4 16-35 15-94c0-66 23-100 70-100zm9 24c-40 0-46 34-46 75 0 40 6 74 45 74 42 0 51-32 51-76 0-42-9-74-50-73" id="J"/><g id="l"><use transform="matrix(0.06172839506172839,0,0,0.06172839506172839,0,0)" xlink:href="#I"/><use transform="matrix(0.06172839506172839,0,0,0.06172839506172839,18.456790123456788,0)" xlink:href="#w"/><use transform="matrix(0.06172839506172839,0,0,0.06172839506172839,30.80246913580247,0)" xlink:href="#J"/><use transform="matrix(0.06172839506172839,0,0,0.06172839506172839,43.148148148148145,0)" xlink:href="#r"/></g></defs></g></svg>