<svg xmlns="http://www.w3.org/2000/svg" xmlns:xlink="http://www.w3.org/1999/xlink" xmlns:lucid="lucid" width="634.67" height="348"><g transform="translate(-60 -414)" lucid:page-tab-id="0_0"><path d="M450 759.5v-343M450 759.5v.5M450 416.5v-.5" stroke="#3a414a" fill="none"/><path d="M225.36 652.33a6 6 0 0 1 6-6h93.72a6 6 0 0 1 6 6v77.74a6 6 0 0 1-6 6h-93.72a6 6 0 0 1-6-6z" stroke="#3a414a" stroke-width="4" fill="#fff"/><use xlink:href="#a" transform="matrix(1,0,0,1,237.36296296296297,658.3304347826088) translate(-0.26543209876543017 37.44444444444444)"/><path d="M568.95 652.33a6 6 0 0 1 6-6h93.72a6 6 0 0 1 6 6v77.74a6 6 0 0 1-6 6h-93.72a6 6 0 0 1-6-6z" stroke="#3a414a" stroke-width="4" fill="#fff"/><use xlink:href="#b" transform="matrix(1,0,0,1,580.9481481481482,658.3304347826088) translate(6.493827160493829 38.40277777777778)"/><path d="M159.3 727.1c0 4.95-17.76 8.97-39.66 8.97-21.9 0-39.64-4.02-39.64-8.97v-71.8c0-4.95 17.75-8.97 39.64-8.97 21.9 0 39.65 4.02 39.65 8.97z" stroke="#3a414a" stroke-width="4" fill="#fff"/><path d="M159.3 655.3c0 4.96-17.76 8.98-39.66 8.98-21.9 0-39.64-4.02-39.64-8.98" stroke="#3a414a" stroke-width="4" fill="none"/><path d="M286.17 583.5l-2.13 9.06-1.83 9.6-1.47 10.07-1.1 10.46-.68 10.74-.22 10.4-1-.02.22-10.43.68-10.8 1.1-10.5 1.5-10.1 1.83-9.65 2.14-9.1 1.9-6.85h1.04zm92.75-100l-3.8.65-4.03.86-3.93 1.02-3.83 1.15-3.73 1.3-3.65 1.45-3.6 1.6-3.52 1.75-3.48 1.9-3.43 2.1-3.4 2.25-3.36 2.44-3.34 2.65-3.3 2.87-3.3 3.1-3.28 3.34-3.26 3.63-3.24 3.92-3.22 4.24-3.2 4.58-2.18 3.46h-1.18l2.54-4 3.2-4.64 3.26-4.27 3.26-3.95 3.3-3.65 3.3-3.38 3.32-3.12 3.34-2.9 3.37-2.66 3.4-2.47 3.43-2.28 3.47-2.1 3.52-1.94 3.56-1.77 3.63-1.6 3.7-1.46 3.77-1.32 3.87-1.17 3.96-1 4.08-.88 3.8-.64z" stroke="#3a414a" stroke-width=".05" fill="#3a414a"/><path d="M278.73 643.83v.5h-1v-.53z" fill="#3a414a"/><path d="M278.76 643.8v.56h-1.06v-.58zm-1 .5h.94v-.45l-.94-.02z" stroke="#3a414a" stroke-width=".05" fill="#3a414a"/><path d="M393.54 481.93l-13.88 5.68-.7-9.24z" fill="#fff"/><path d="M395.16 481.8l-15.95 6.53-.78-10.62zm-15.05 5.08l11.83-4.83-12.4-3.04z" stroke="#3a414a" stroke-width=".05" fill="#3a414a"/><use xlink:href="#c" transform="matrix(1,0,0,1,252.35835538099053,533.7348700457128) translate(10.869197530864199 14.222222222222223)"/><use xlink:href="#d" transform="matrix(1,0,0,1,252.35835538099053,533.7348700457128) translate(0.005000000000002558 35.55555555555556)"/><path d="M614.83 583.24l2.14 9.1 1.83 9.65 1.5 10.1 1.1 10.5.68 10.8.22 10.42-1 .02-.22-10.4-.68-10.75-1.1-10.47-1.48-10.07-1.83-9.6-2.14-9.07-2.2-7.9h1.04zM525.1 483.17l4.07.87 3.96 1 3.87 1.18 3.77 1.32 3.7 1.46 3.63 1.6 3.56 1.78 3.52 1.94 3.47 2.1 3.43 2.28 3.4 2.47 3.37 2.67 3.34 2.9 3.32 3.1 3.3 3.4 3.3 3.64 3.25 3.95 3.25 4.27 3.2 4.63 2.04 3.2h-1.18l-1.68-2.65-3.2-4.6-3.2-4.23-3.25-3.92-3.26-3.62-3.28-3.33-3.3-3.1-3.3-2.86-3.35-2.64-3.36-2.44-3.4-2.26-3.42-2.08-3.48-1.9-3.53-1.76-3.6-1.6-3.65-1.45-3.73-1.3-3.84-1.15-3.92-1-4.04-.87-3.78-.64.16-.97z" stroke="#3a414a" stroke-width=".05" fill="#3a414a"/><path d="M622.3 644.33h-1v-.5l1-.03z" fill="#3a414a"/><path d="M622.33 644.36h-1.05v-.56l1.04-.02zm-1-.5v.44h.95v-.47z" stroke="#3a414a" stroke-width=".05" fill="#3a414a"/><path d="M520.37 487.6l-13.88-5.67 14.56-3.57z" fill="#fff"/><path d="M520.82 488.33l-15.95-6.52 16.74-4.1zm-12.72-6.28l11.82 4.83.6-7.87z" stroke="#3a414a" stroke-width=".05" fill="#3a414a"/><use xlink:href="#c" transform="matrix(1,0,0,1,561.5566710968898,532.9331479853527) translate(10.869197530864199 14.222222222222223)"/><use xlink:href="#d" transform="matrix(1,0,0,1,561.5566710968898,532.9331479853527) translate(0.005000000000002558 35.55555555555556)"/><path d="M397.16 442.94a6 6 0 0 1 6-6h93.7a6 6 0 0 1 6 6v77.74a6 6 0 0 1-6 6h-93.7a6 6 0 0 1-6-6z" stroke="#3a414a" stroke-width="4" fill="#fff"/><use xlink:href="#e" transform="matrix(1,0,0,1,409.1555555555556,448.9391304347826) translate(0.29012345679012697 23.96527777777778)"/><use xlink:href="#f" transform="matrix(1,0,0,1,409.1555555555556,448.9391304347826) translate(2.79012345679012 50.63194444444445)"/><path d="M222.86 691.2h-45.2" stroke="#3a414a" fill="none"/><path d="M223.36 691.7h-.5v-1h.5z" stroke="#3a414a" stroke-width=".05" fill="#3a414a"/><path d="M162.9 691.2l14.27-4.63v9.26z" stroke="#3a414a" fill="#fff"/><path d="M546.9 690.85l.15.35-.15.35-.35.15-.36-.15-.15-.35.14-.35.35-.15zm-4.02 0l.15.35-.15.35-.35.15-.36-.15-.14-.35.14-.35.36-.15zm-4.02 0l.15.35-.14.35-.35.15-.34-.15-.15-.35.16-.35.35-.15zm-4 0l.13.35-.15.35-.36.15-.36-.15-.15-.35.14-.35.35-.15zm-4.03 0l.14.35-.14.35-.36.15-.35-.15-.15-.35.15-.35.35-.15zm-4.02 0l.16.35-.15.35-.34.15-.36-.15-.14-.35.14-.35.36-.15zm-4 0l.14.35-.15.35-.36.15-.36-.15-.14-.35.14-.35.36-.15zm-4.03 0l.15.35-.15.35-.35.15-.35-.15-.15-.35.15-.35.35-.15zm-4.02 0l.15.35-.15.35-.35.15-.35-.15-.15-.35.15-.35.35-.15zm-4 0l.13.35-.14.35-.36.15-.35-.15-.15-.35.15-.35.35-.15zm-4.03 0l.14.35-.14.35-.36.15-.35-.15-.14-.35.15-.35.36-.15zm-4.02 0l.15.35-.15.35-.35.15-.36-.15-.15-.35.14-.35.35-.15zm-4.02 0l.15.35-.15.35-.35.15-.36-.15-.14-.35.14-.35.36-.15zm-4.02 0l.15.35-.14.35-.35.15-.34-.15-.15-.35.16-.35.35-.15zm-4.02 0l.15.35-.16.35-.35.15-.36-.15-.15-.35.14-.35.35-.15zm-4 0l.13.35-.14.35-.36.15-.35-.15-.15-.35.15-.35.35-.15zm-4.03 0l.15.35-.14.35-.35.15-.35-.15-.14-.35.14-.35.36-.15zm-4 0l.14.35-.15.35-.36.15-.36-.15-.14-.35.14-.35.36-.15zm-4.03 0l.15.35-.15.35-.35.15-.36-.15-.14-.35.14-.35.36-.15zm-4.02 0l.15.35-.15.35-.35.15-.35-.15-.15-.35.15-.35.35-.15zm-4 0l.13.35-.14.35-.36.15-.35-.15-.15-.35.15-.35.35-.15zm-4.03 0l.14.35-.14.35-.36.15-.35-.15-.14-.35.15-.35.36-.15zm-4.02 0l.15.35-.15.35-.35.15-.36-.15-.15-.35.14-.35.35-.15zm-4.02 0l.15.35-.15.35-.35.15-.36-.15-.14-.35.14-.35.36-.15zm-4.02 0l.15.35-.14.35-.35.15-.34-.15-.15-.35.16-.35.35-.15zm-4 0l.13.35-.16.35-.35.15-.36-.15-.15-.35.14-.35.35-.15zm-4.03 0l.14.35-.14.35-.36.15-.35-.15-.15-.35.15-.35.35-.15zm-4.02 0l.16.35-.15.35-.34.15-.36-.15-.14-.35.14-.35.36-.15zm-4 0l.14.35-.15.35-.36.15-.36-.15-.14-.35.14-.35.36-.15zm-44.2 0l.14.35-.15.35-.36.15-.36-.15-.14-.35.14-.35.36-.15zm-4.03 0l.15.35-.15.35-.35.15-.36-.15-.14-.35.14-.35.36-.15zm-4.02 0l.15.35-.15.35-.35.15-.35-.15-.15-.35.15-.35.35-.15zm-4 0l.13.35-.14.35-.36.15-.35-.15-.15-.35.15-.35.35-.15zm-4.03 0l.14.35-.14.35-.36.15-.35-.15-.14-.35.15-.35.36-.15zm-4.02 0l.14.35-.14.35-.36.15-.35-.15-.15-.35.14-.35.35-.15zm-4.02 0l.15.35-.15.35-.35.15-.36-.15-.14-.35.14-.35.36-.15zm-4.02 0l.15.35-.14.35-.35.15-.34-.15-.15-.35.16-.35.35-.15zm-4.02 0l.15.35-.16.35-.35.15-.36-.15-.15-.35.14-.35.35-.15zm-4 0l.13.35-.14.35-.36.15-.35-.15-.15-.35.15-.35.35-.15zm-4.03 0l.15.35-.14.35-.35.15-.35-.15-.15-.35.15-.35.35-.15zm-4 0l.14.35-.15.35-.36.15-.36-.15-.14-.35.14-.35.36-.15zm-4.03 0l.15.35-.15.35-.35.15-.36-.15-.14-.35.14-.35.36-.15zm-4.02 0l.15.35-.15.35-.35.15-.35-.15-.15-.35.15-.35.35-.15zm-4 0l.13.35-.14.35-.36.15-.35-.15-.15-.35.15-.35.35-.15z" fill="#3a414a"/><path d="M333.6 691.7h-.52v-1h.5z" fill="#3a414a"/><path d="M333.62 691.73h-.56v-1.06h.56zm-.5-1v.94h.45v-.94z" stroke="#3a414a" stroke-width=".05" fill="#3a414a"/><path d="M565.33 691.2l-14.27 4.63v-9.26z" fill="#fff"/><path d="M566.95 691.2l-16.4 5.32v-10.64zm-15.4 3.95l12.16-3.95-12.14-3.95z" stroke="#3a414a" stroke-width=".05" fill="#3a414a"/><g><use xlink:href="#g" transform="matrix(1,0,0,1,392.7901234567901,680.5333333333334) translate(0 14.222222222222223)"/></g><defs><path fill="#3a414a" d="M30-248c87 1 191-15 191 75 0 78-77 80-158 76V0H30v-248zm33 125c57 0 124 11 124-50 0-59-68-47-124-48v98" id="h"/><path fill="#3a414a" d="M24 0v-261h32V0H24" id="i"/><path fill="#3a414a" d="M141-36C126-15 110 5 73 4 37 3 15-17 15-53c-1-64 63-63 125-63 3-35-9-54-41-54-24 1-41 7-42 31l-33-3c5-37 33-52 76-52 45 0 72 20 72 64v82c-1 20 7 32 28 27v20c-31 9-61-2-59-35zM48-53c0 20 12 33 32 33 41-3 63-29 60-74-43 2-92-5-92 41" id="j"/><path fill="#3a414a" d="M59-47c-2 24 18 29 38 22v24C64 9 27 4 27-40v-127H5v-23h24l9-43h21v43h35v23H59v120" id="k"/><path fill="#3a414a" d="M101-234c-31-9-42 10-38 44h38v23H63V0H32v-167H5v-23h27c-7-52 17-82 69-68v24" id="l"/><path fill="#3a414a" d="M100-194c62-1 85 37 85 99 1 63-27 99-86 99S16-35 15-95c0-66 28-99 85-99zM99-20c44 1 53-31 53-75 0-43-8-75-51-75s-53 32-53 75 10 74 51 75" id="m"/><path fill="#3a414a" d="M114-163C36-179 61-72 57 0H25l-1-190h30c1 12-1 29 2 39 6-27 23-49 58-41v29" id="n"/><path fill="#3a414a" d="M210-169c-67 3-38 105-44 169h-31v-121c0-29-5-50-35-48C34-165 62-65 56 0H25l-1-190h30c1 10-1 24 2 32 10-44 99-50 107 0 11-21 27-35 58-36 85-2 47 119 55 194h-31v-121c0-29-5-49-35-48" id="o"/><g id="a"><use transform="matrix(0.06172839506172839,0,0,0.06172839506172839,0,0)" xlink:href="#h"/><use transform="matrix(0.06172839506172839,0,0,0.06172839506172839,14.814814814814813,0)" xlink:href="#i"/><use transform="matrix(0.06172839506172839,0,0,0.06172839506172839,19.691358024691354,0)" xlink:href="#j"/><use transform="matrix(0.06172839506172839,0,0,0.06172839506172839,32.03703703703703,0)" xlink:href="#k"/><use transform="matrix(0.06172839506172839,0,0,0.06172839506172839,38.20987654320987,0)" xlink:href="#l"/><use transform="matrix(0.06172839506172839,0,0,0.06172839506172839,44.382716049382715,0)" xlink:href="#m"/><use transform="matrix(0.06172839506172839,0,0,0.06172839506172839,56.72839506172839,0)" xlink:href="#n"/><use transform="matrix(0.06172839506172839,0,0,0.06172839506172839,64.07407407407408,0)" xlink:href="#o"/></g><path fill="#3a414a" d="M24-231v-30h32v30H24zM-9 49c24 4 33-6 33-30v-209h32V24c2 40-23 58-65 49V49" id="p"/><path fill="#3a414a" d="M100-194c63 0 86 42 84 106H49c0 40 14 67 53 68 26 1 43-12 49-29l28 8c-11 28-37 45-77 45C44 4 14-33 15-96c1-61 26-98 85-98zm52 81c6-60-76-77-97-28-3 7-6 17-6 28h103" id="q"/><path fill="#3a414a" d="M96-169c-40 0-48 33-48 73s9 75 48 75c24 0 41-14 43-38l32 2c-6 37-31 61-74 61-59 0-76-41-82-99-10-93 101-131 147-64 4 7 5 14 7 22l-32 3c-4-21-16-35-41-35" id="r"/><g id="b"><use transform="matrix(0.06172839506172839,0,0,0.06172839506172839,0,0)" xlink:href="#h"/><use transform="matrix(0.06172839506172839,0,0,0.06172839506172839,14.814814814814813,0)" xlink:href="#n"/><use transform="matrix(0.06172839506172839,0,0,0.06172839506172839,22.160493827160494,0)" xlink:href="#m"/><use transform="matrix(0.06172839506172839,0,0,0.06172839506172839,34.50617283950617,0)" xlink:href="#p"/><use transform="matrix(0.06172839506172839,0,0,0.06172839506172839,39.382716049382715,0)" xlink:href="#q"/><use transform="matrix(0.06172839506172839,0,0,0.06172839506172839,51.72839506172839,0)" xlink:href="#r"/><use transform="matrix(0.06172839506172839,0,0,0.06172839506172839,62.839506172839506,0)" xlink:href="#k"/></g><path fill="#333" d="M24-248c120-7 223 5 221 122C244-46 201 0 124 0H24v-248zM76-40c74 7 117-18 117-86 0-67-45-88-117-82v168" id="s"/><path fill="#333" d="M133-34C117-15 103 5 69 4 32 3 11-16 11-54c-1-60 55-63 116-61 1-26-3-47-28-47-18 1-26 9-28 27l-52-2c7-38 36-58 82-57s74 22 75 68l1 82c-1 14 12 18 25 15v27c-30 8-71 5-69-32zm-48 3c29 0 43-24 42-57-32 0-66-3-65 30 0 17 8 27 23 27" id="t"/><path fill="#333" d="M115-3C79 11 28 4 28-45v-112H4v-33h27l15-45h31v45h36v33H77v99c-1 23 16 31 38 25v30" id="u"/><path fill="#333" d="M137-138c1-29-70-34-71-4 15 46 118 7 119 86 1 83-164 76-172 9l43-7c4 19 20 25 44 25 33 8 57-30 24-41C81-84 22-81 20-136c-2-80 154-74 161-7" id="v"/><path fill="#333" d="M185-48c-13 30-37 53-82 52C43 2 14-33 14-96s30-98 90-98c62 0 83 45 84 108H66c0 31 8 55 39 56 18 0 30-7 34-22zm-45-69c5-46-57-63-70-21-2 6-4 13-4 21h74" id="w"/><g id="c"><use transform="matrix(0.04938271604938272,0,0,0.04938271604938272,0,0)" xlink:href="#s"/><use transform="matrix(0.04938271604938272,0,0,0.04938271604938272,12.790123456790125,0)" xlink:href="#t"/><use transform="matrix(0.04938271604938272,0,0,0.04938271604938272,22.66666666666667,0)" xlink:href="#u"/><use transform="matrix(0.04938271604938272,0,0,0.04938271604938272,28.54320987654322,0)" xlink:href="#t"/><use transform="matrix(0.04938271604938272,0,0,0.04938271604938272,38.41975308641976,0)" xlink:href="#v"/><use transform="matrix(0.04938271604938272,0,0,0.04938271604938272,48.296296296296305,0)" xlink:href="#w"/><use transform="matrix(0.04938271604938272,0,0,0.04938271604938272,58.17283950617284,0)" xlink:href="#u"/></g><path fill="#333" d="M240-174c0 40-23 61-54 70L253 0h-59l-57-94H76V0H24v-248c93 4 217-23 216 74zM76-134c48-2 112 12 112-38 0-48-66-32-112-35v73" id="x"/><path fill="#333" d="M121-226c-27-7-43 5-38 36h38v33H83V0H34v-157H6v-33h28c-9-59 32-81 87-68v32" id="y"/><path fill="#333" d="M135-150c-39-12-60 13-60 57V0H25l-1-190h47c2 13-1 29 3 40 6-28 27-53 61-41v41" id="z"/><path fill="#333" d="M135-194c87-1 58 113 63 194h-50c-7-57 23-157-34-157-59 0-34 97-39 157H25l-1-190h47c2 12-1 28 3 38 12-26 28-41 61-42" id="A"/><path fill="#333" d="M190-63c-7 42-38 67-86 67-59 0-84-38-90-98-12-110 154-137 174-36l-49 2c-2-19-15-32-35-32-30 0-35 28-38 64-6 74 65 87 74 30" id="B"/><g id="d"><use transform="matrix(0.04938271604938272,0,0,0.04938271604938272,0,0)" xlink:href="#x"/><use transform="matrix(0.04938271604938272,0,0,0.04938271604938272,12.790123456790125,0)" xlink:href="#w"/><use transform="matrix(0.04938271604938272,0,0,0.04938271604938272,22.66666666666667,0)" xlink:href="#y"/><use transform="matrix(0.04938271604938272,0,0,0.04938271604938272,28.54320987654322,0)" xlink:href="#w"/><use transform="matrix(0.04938271604938272,0,0,0.04938271604938272,38.41975308641976,0)" xlink:href="#z"/><use transform="matrix(0.04938271604938272,0,0,0.04938271604938272,45.33333333333334,0)" xlink:href="#w"/><use transform="matrix(0.04938271604938272,0,0,0.04938271604938272,55.209876543209894,0)" xlink:href="#A"/><use transform="matrix(0.04938271604938272,0,0,0.04938271604938272,66.0246913580247,0)" xlink:href="#B"/><use transform="matrix(0.04938271604938272,0,0,0.04938271604938272,75.90123456790124,0)" xlink:href="#w"/></g><path fill="#3a414a" d="M185-189c-5-48-123-54-124 2 14 75 158 14 163 119 3 78-121 87-175 55-17-10-28-26-33-46l33-7c5 56 141 63 141-1 0-78-155-14-162-118-5-82 145-84 179-34 5 7 8 16 11 25" id="C"/><path fill="#3a414a" d="M106-169C34-169 62-67 57 0H25v-261h32l-1 103c12-21 28-36 61-36 89 0 53 116 60 194h-32v-121c2-32-8-49-39-48" id="D"/><g id="e"><use transform="matrix(0.06172839506172839,0,0,0.06172839506172839,0,0)" xlink:href="#C"/><use transform="matrix(0.06172839506172839,0,0,0.06172839506172839,14.814814814814813,0)" xlink:href="#r"/><use transform="matrix(0.06172839506172839,0,0,0.06172839506172839,25.925925925925924,0)" xlink:href="#D"/><use transform="matrix(0.06172839506172839,0,0,0.06172839506172839,38.2716049382716,0)" xlink:href="#q"/><use transform="matrix(0.06172839506172839,0,0,0.06172839506172839,50.61728395061728,0)" xlink:href="#o"/><use transform="matrix(0.06172839506172839,0,0,0.06172839506172839,69.07407407407406,0)" xlink:href="#j"/></g><path fill="#3a414a" d="M212-179c-10-28-35-45-73-45-59 0-87 40-87 99 0 60 29 101 89 101 43 0 62-24 78-52l27 14C228-24 195 4 139 4 59 4 22-46 18-125c-6-104 99-153 187-111 19 9 31 26 39 46" id="E"/><path fill="#3a414a" d="M177-190C167-65 218 103 67 71c-23-6-38-20-44-43l32-5c15 47 100 32 89-28v-30C133-14 115 1 83 1 29 1 15-40 15-95c0-56 16-97 71-98 29-1 48 16 59 35 1-10 0-23 2-32h30zM94-22c36 0 50-32 50-73 0-42-14-75-50-75-39 0-46 34-46 75s6 73 46 73" id="F"/><g id="f"><use transform="matrix(0.06172839506172839,0,0,0.06172839506172839,0,0)" xlink:href="#E"/><use transform="matrix(0.06172839506172839,0,0,0.06172839506172839,15.987654320987653,0)" xlink:href="#j"/><use transform="matrix(0.06172839506172839,0,0,0.06172839506172839,28.333333333333332,0)" xlink:href="#k"/><use transform="matrix(0.06172839506172839,0,0,0.06172839506172839,34.50617283950617,0)" xlink:href="#j"/><use transform="matrix(0.06172839506172839,0,0,0.06172839506172839,46.85185185185185,0)" xlink:href="#i"/><use transform="matrix(0.06172839506172839,0,0,0.06172839506172839,51.72839506172839,0)" xlink:href="#m"/><use transform="matrix(0.06172839506172839,0,0,0.06172839506172839,64.07407407407408,0)" xlink:href="#F"/></g><g id="g"><use transform="matrix(0.04938271604938272,0,0,0.04938271604938272,0,0)" xlink:href="#s"/><use transform="matrix(0.04938271604938272,0,0,0.04938271604938272,12.790123456790125,0)" xlink:href="#t"/><use transform="matrix(0.04938271604938272,0,0,0.04938271604938272,22.66666666666667,0)" xlink:href="#u"/><use transform="matrix(0.04938271604938272,0,0,0.04938271604938272,28.54320987654322,0)" xlink:href="#t"/></g></defs></g></svg>