<svg xmlns="http://www.w3.org/2000/svg" xmlns:xlink="http://www.w3.org/1999/xlink" xmlns:lucid="lucid" width="917" height="358.91"><g transform="translate(-79.99999999999997 -201.090909090909)" lucid:page-tab-id="0_0"><path d="M409.18 227.1a6 6 0 0 1 6-6h476.18a6 6 0 0 1 6 6V534a6 6 0 0 1-6 6H415.18a6 6 0 0 1-6-6z" stroke="#3a414a" stroke-width="4" fill="#fff"/><use xlink:href="#a" transform="matrix(1,0,0,1,421.18181818181824,233.090909090909) translate(0 17.77777777777778)"/><use xlink:href="#b" transform="matrix(1,0,0,1,421.18181818181824,233.090909090909) translate(81.35802469135803 17.77777777777778)"/><path d="M342.6 273.48h651.9" stroke="#3a414a" fill="none"/><path d="M342.63 273.98h-.5l-.04-1h.53z" stroke="#3a414a" stroke-width=".05" fill="#3a414a"/><path d="M994.5 273.48h.5M345.1 380.55h649.4" stroke="#3a414a" fill="none"/><path d="M345.1 381.05h-.52v-1h.52z" stroke="#3a414a" stroke-width=".05" fill="#3a414a"/><path d="M994.5 380.55h.5M342.58 486.94h325.9a.04.04 0 0 0 .06-.05.04.04 0 0 1 .05-.05h325.9" stroke="#3a414a" fill="none"/><path d="M342.6 487.44h-.55l.06-1h.5z" stroke="#3a414a" stroke-width=".05" fill="#3a414a"/><path d="M994.5 486.85h.5" stroke="#3a414a" fill="none"/><path d="M100 366.6a6 6 0 0 1 6-6h118.18a6 6 0 0 1 6 6v27.88a6 6 0 0 1-6 6H106a6 6 0 0 1-6-6z" stroke="#000" stroke-opacity="0" fill="#fff" fill-opacity="0"/><use xlink:href="#c" transform="matrix(1,0,0,1,104.99999999999997,365.6136363636363) translate(35.68518518518519 17.77777777777778)"/><use xlink:href="#d" transform="matrix(1,0,0,1,104.99999999999997,365.6136363636363) translate(19.203703703703702 44.44444444444444)"/><path d="M100 472.92a6 6 0 0 1 6-6h118.18a6 6 0 0 1 6 6v27.86a6 6 0 0 1-6 6H106a6 6 0 0 1-6-6z" stroke="#000" stroke-opacity="0" fill="#fff" fill-opacity="0"/><use xlink:href="#e" transform="matrix(1,0,0,1,104.99999999999997,471.9166666666668) translate(32.75308641975309 17.77777777777778)"/><use xlink:href="#d" transform="matrix(1,0,0,1,104.99999999999997,471.9166666666668) translate(19.203703703703702 44.44444444444444)"/><path d="M100 260.3a6 6 0 0 1 6-6h118.18a6 6 0 0 1 6 6v27.87a6 6 0 0 1-6 6H106a6 6 0 0 1-6-6z" stroke="#000" stroke-opacity="0" fill="#fff" fill-opacity="0"/><use xlink:href="#f" transform="matrix(1,0,0,1,104.99999999999997,259.31060606060595) translate(33.37037037037037 17.77777777777778)"/><use xlink:href="#d" transform="matrix(1,0,0,1,104.99999999999997,259.31060606060595) translate(19.203703703703702 44.44444444444444)"/><g stroke="#3a414a"><path d="M285.5 518.4c-3.6 0-6.5-61.72-6.5-137.85 0-76.14 2.9-137.87 6.5-137.87h52.08c3.6 0 6.5 61.73 6.5 137.87 0 76.13-2.9 137.86-6.5 137.86z" fill="#fff"/><path d="M285.5 242.68c3.6 0 6.52 61.73 6.52 137.87 0 76.13-2.92 137.86-6.5 137.86" fill="none"/></g><use xlink:href="#g" transform="matrix(-1.8369701987210297e-16,-1,1,-1.8369701987210297e-16,297.01818181818186,513.407196969697) translate(105.0679012345679 25.84027777777778)"/><path d="M832.27 460.27c17.98 0 32.55 13.4 32.55 29.9s-14.57 29.9-32.55 29.9h-97.63c-17.98 0-32.55-13.4-32.55-29.9s14.56-29.9 32.54-29.9z" stroke="#3a414a" stroke-width="4" fill="#fff"/><use xlink:href="#h" transform="matrix(1,0,0,1,711.0909090909091,469.27272727272725) translate(0.9876543209876587 17.77777777777778)"/><use xlink:href="#i" transform="matrix(1,0,0,1,711.0909090909091,469.27272727272725) translate(92.22222222222223 17.77777777777778)"/><use xlink:href="#j" transform="matrix(1,0,0,1,711.0909090909091,469.27272727272725) translate(2.2222222222222285 39.111111111111114)"/><use xlink:href="#k" transform="matrix(1,0,0,1,711.0909090909091,469.27272727272725) translate(25.61728395061729 39.111111111111114)"/><use xlink:href="#l" transform="matrix(1,0,0,1,711.0909090909091,469.27272727272725) translate(87.28395061728395 39.111111111111114)"/><path d="M784.87 434.12l.6 1.42-.6 1.4-1.4.6-1.43-.6-.58-1.4.58-1.42 1.42-.58zm0-17.02l.6 1.4-.6 1.43-1.4.58-1.43-.57-.58-1.42.58-1.4 1.42-.6zm0-17.03l.6 1.42-.6 1.4-1.4.6-1.43-.6-.58-1.4.58-1.43 1.42-.58zm0-17.02l.6 1.4-.6 1.43-1.4.58-1.43-.58-.58-1.42.58-1.4 1.42-.6zm0-17.02l.6 1.4-.6 1.43-1.4.58-1.43-.58-.58-1.42.58-1.4 1.42-.6zm0-17.03l.6 1.42-.6 1.4-1.4.6-1.43-.6-.58-1.4.58-1.42 1.42-.58zm-6-23.02l.6 1.4-.6 1.43-1.4.6-1.43-.6-.58-1.4.58-1.42 1.42-.6zm-15.16 0l.6 1.4-.6 1.43-1.4.6-1.42-.6-.6-1.4.6-1.42 1.4-.6zm-15.15 0l.58 1.4-.58 1.43-1.42.6-1.4-.6-.6-1.4.6-1.42 1.4-.6zm-15.17 0l.6 1.4-.6 1.43-1.4.6-1.43-.6-.58-1.4.58-1.42 1.42-.6zm-15.16 0l.6 1.4-.6 1.43-1.4.6-1.43-.6-.6-1.4.6-1.42 1.4-.6zm-60.64 0l.58 1.4-.58 1.43-1.42.6-1.4-.6-.6-1.4.6-1.42 1.4-.6zm-15.17 0l.6 1.4-.6 1.43-1.4.6-1.4-.6-.6-1.4.6-1.42 1.4-.6z" fill="#3a414a"/><path d="M641.05 329.4H639v-4h2.05z" fill="#3a414a"/><path d="M641.08 329.42h-2.1v-4.05h2.1zm-2.06-4v3.95h2v-3.95z" stroke="#3a414a" stroke-width=".05" fill="#3a414a"/><path d="M783.46 451.8l-4.64-14.26h9.27z" fill="#3a414a"/><path d="M783.46 458.27l-7.4-22.73h14.78zm-1.9-18.73l1.9 5.8 1.88-5.8z" stroke="#3a414a" stroke-width=".05" fill="#3a414a"/><path d="M474.27 306.82a6 6 0 0 1 6-6H631a6 6 0 0 1 6 6v41.15a6 6 0 0 1-6 6H480.27a6 6 0 0 1-6-6z" stroke="#3a414a" stroke-width="4" fill="#fff"/><use xlink:href="#m" transform="matrix(1,0,0,1,478.27272727272725,304.8181818181817) translate(8.91975308641976 20.65277777777778)"/><use xlink:href="#i" transform="matrix(1,0,0,1,478.27272727272725,304.8181818181817) translate(94.29012345679013 20.65277777777778)"/><use xlink:href="#j" transform="matrix(1,0,0,1,478.27272727272725,304.8181818181817) translate(10.15932098765432 41.986111111111114)"/><use xlink:href="#n" transform="matrix(1,0,0,1,478.27272727272725,304.8181818181817) translate(33.55438271604938 41.986111111111114)"/><use xlink:href="#l" transform="matrix(1,0,0,1,478.27272727272725,304.8181818181817) translate(89.35685185185186 41.986111111111114)"/><path d="M832.27 244.34c17.98 0 32.55 13.4 32.55 29.9s-14.57 29.9-32.55 29.9h-97.63c-17.98 0-32.55-13.4-32.55-29.9s14.56-29.9 32.54-29.9z" stroke="#3a414a" stroke-width="4" fill="#fff"/><use xlink:href="#h" transform="matrix(1,0,0,1,711.0909090909091,253.34469696969686) translate(0.9876543209876587 17.77777777777778)"/><use xlink:href="#i" transform="matrix(1,0,0,1,711.0909090909091,253.34469696969686) translate(92.22222222222223 17.77777777777778)"/><use xlink:href="#j" transform="matrix(1,0,0,1,711.0909090909091,253.34469696969686) translate(5.15432098765433 39.111111111111114)"/><use xlink:href="#n" transform="matrix(1,0,0,1,711.0909090909091,253.34469696969686) translate(28.54938271604939 39.111111111111114)"/><use xlink:href="#l" transform="matrix(1,0,0,1,711.0909090909091,253.34469696969686) translate(84.35185185185186 39.111111111111114)"/><path d="M767.72 325.98l.6 1.4-.6 1.43-1.4.6-1.43-.6-.6-1.4.6-1.42 1.4-.6zm-15.66 0l.58 1.4-.58 1.43-1.42.6-1.4-.6-.6-1.4.6-1.42 1.4-.6zm-15.67 0l.58 1.4-.6 1.43-1.4.6-1.4-.6-.6-1.4.6-1.42 1.4-.6zm-15.67 0l.6 1.4-.6 1.43-1.4.6-1.43-.6-.58-1.4.58-1.42 1.42-.6zm-62.65 0l.58 1.4-.58 1.43-1.42.6-1.4-.6-.6-1.4.6-1.42 1.4-.6zm-15.67 0l.6 1.4-.6 1.43-1.4.6-1.4-.6-.6-1.4.6-1.42 1.4-.6z" fill="#3a414a"/><path d="M641.05 329.4H639v-4h2.05z" fill="#3a414a"/><path d="M641.08 329.42h-2.1v-4.05h2.1zm-2.06-4v3.95h2v-3.95z" stroke="#3a414a" stroke-width=".05" fill="#3a414a"/><path d="M786.63 327.15l-9.24-.64 5.6-13.9z" fill="#3a414a"/><path d="M789.24 329.34l-14.74-1.03 8.96-22.16zm-8.97-4.64l3.76.26-1.48-5.9z" stroke="#3a414a" stroke-width=".05" fill="#3a414a"/><use xlink:href="#o" transform="matrix(1,0,0,1,665.9530525069512,316.7272727272726) translate(0 14.222222222222223)"/><path d="M442.03 276.24v30.47a6 6 0 0 0 6 6h1.5M442.03 276.3v-2.06" stroke="#3a414a" stroke-width="4" fill="none"/><path d="M465.8 312.7l-14.26 4.65v-9.27z" stroke="#3a414a" stroke-width="4" fill="#3a414a"/><path d="M442.48 378.55v-30.92a6 6 0 0 1 6-6h1.06M442.48 378.5v2.05" stroke="#3a414a" stroke-width="4" fill="none"/><path d="M465.8 341.63l-14.26 4.64V337z" stroke="#3a414a" stroke-width="4" fill="#3a414a"/><path d="M230.68 274.2h58.22" stroke="#3a414a" fill="none"/><path d="M230.7 274.7h-.52v-1h.5z" stroke="#3a414a" stroke-width=".05" fill="#3a414a"/><path d="M288.9 274.2h.5M230.68 380.55h60.94" stroke="#3a414a" fill="none"/><path d="M230.7 381.05h-.52v-1h.5z" stroke="#3a414a" stroke-width=".05" fill="#3a414a"/><path d="M291.6 380.55h.52M230.68 486.85h58.65" stroke="#3a414a" fill="none"/><path d="M230.7 487.35h-.52v-1h.5z" stroke="#3a414a" stroke-width=".05" fill="#3a414a"/><path d="M289.32 486.85h.5" stroke="#3a414a" fill="none"/><defs><path fill="#3a414a" d="M240 0l2-218c-23 76-54 145-80 218h-23L58-218 59 0H30v-248h44l77 211c21-75 51-140 76-211h43V0h-30" id="p"/><path fill="#3a414a" d="M141-36C126-15 110 5 73 4 37 3 15-17 15-53c-1-64 63-63 125-63 3-35-9-54-41-54-24 1-41 7-42 31l-33-3c5-37 33-52 76-52 45 0 72 20 72 64v82c-1 20 7 32 28 27v20c-31 9-61-2-59-35zM48-53c0 20 12 33 32 33 41-3 63-29 60-74-43 2-92-5-92 41" id="q"/><path fill="#3a414a" d="M115-194c55 1 70 41 70 98S169 2 115 4C84 4 66-9 55-30l1 105H24l-1-265h31l2 30c10-21 28-34 59-34zm-8 174c40 0 45-34 45-75s-6-73-45-74c-42 0-51 32-51 76 0 43 10 73 51 73" id="r"/><path fill="#3a414a" d="M100-194c63 0 86 42 84 106H49c0 40 14 67 53 68 26 1 43-12 49-29l28 8c-11 28-37 45-77 45C44 4 14-33 15-96c1-61 26-98 85-98zm52 81c6-60-76-77-97-28-3 7-6 17-6 28h103" id="s"/><path fill="#3a414a" d="M114-163C36-179 61-72 57 0H25l-1-190h30c1 12-1 29 2 39 6-27 23-49 58-41v29" id="t"/><g id="a"><use transform="matrix(0.06172839506172839,0,0,0.06172839506172839,0,0)" xlink:href="#p"/><use transform="matrix(0.06172839506172839,0,0,0.06172839506172839,18.456790123456788,0)" xlink:href="#q"/><use transform="matrix(0.06172839506172839,0,0,0.06172839506172839,30.80246913580247,0)" xlink:href="#r"/><use transform="matrix(0.06172839506172839,0,0,0.06172839506172839,43.148148148148145,0)" xlink:href="#r"/><use transform="matrix(0.06172839506172839,0,0,0.06172839506172839,55.49382716049382,0)" xlink:href="#s"/><use transform="matrix(0.06172839506172839,0,0,0.06172839506172839,67.8395061728395,0)" xlink:href="#t"/></g><path fill="#3a414a" d="M140-251c81 0 123 46 123 126C263-46 219 4 140 4 59 4 17-45 17-125s42-126 123-126zm0 227c63 0 89-41 89-101s-29-99-89-99c-61 0-89 39-89 99S79-25 140-24" id="u"/><path fill="#3a414a" d="M59-47c-2 24 18 29 38 22v24C64 9 27 4 27-40v-127H5v-23h24l9-43h21v43h35v23H59v120" id="v"/><path fill="#3a414a" d="M100-194c62-1 85 37 85 99 1 63-27 99-86 99S16-35 15-95c0-66 28-99 85-99zM99-20c44 1 53-31 53-75 0-43-8-75-51-75s-53 32-53 75 10 74 51 75" id="w"/><g id="b"><use transform="matrix(0.06172839506172839,0,0,0.06172839506172839,0,0)" xlink:href="#u"/><use transform="matrix(0.06172839506172839,0,0,0.06172839506172839,17.28395061728395,0)" xlink:href="#r"/><use transform="matrix(0.06172839506172839,0,0,0.06172839506172839,29.629629629629626,0)" xlink:href="#s"/><use transform="matrix(0.06172839506172839,0,0,0.06172839506172839,41.9753086419753,0)" xlink:href="#t"/><use transform="matrix(0.06172839506172839,0,0,0.06172839506172839,49.32098765432098,0)" xlink:href="#q"/><use transform="matrix(0.06172839506172839,0,0,0.06172839506172839,61.66666666666666,0)" xlink:href="#v"/><use transform="matrix(0.06172839506172839,0,0,0.06172839506172839,67.83950617283949,0)" xlink:href="#w"/><use transform="matrix(0.06172839506172839,0,0,0.06172839506172839,80.18518518518518,0)" xlink:href="#t"/></g><path fill="#3a414a" d="M127-220V0H93v-220H8v-28h204v28h-85" id="x"/><path fill="#3a414a" d="M24-231v-30h32v30H24zM24 0v-190h32V0H24" id="y"/><path fill="#3a414a" d="M117-194c89-4 53 116 60 194h-32v-121c0-31-8-49-39-48C34-167 62-67 57 0H25l-1-190h30c1 10-1 24 2 32 11-22 29-35 61-36" id="z"/><g id="c"><use transform="matrix(0.06172839506172839,0,0,0.06172839506172839,0,0)" xlink:href="#x"/><use transform="matrix(0.06172839506172839,0,0,0.06172839506172839,12.716049382716047,0)" xlink:href="#t"/><use transform="matrix(0.06172839506172839,0,0,0.06172839506172839,20.061728395061728,0)" xlink:href="#q"/><use transform="matrix(0.06172839506172839,0,0,0.06172839506172839,32.407407407407405,0)" xlink:href="#y"/><use transform="matrix(0.06172839506172839,0,0,0.06172839506172839,37.28395061728395,0)" xlink:href="#z"/></g><path fill="#3a414a" d="M212-179c-10-28-35-45-73-45-59 0-87 40-87 99 0 60 29 101 89 101 43 0 62-24 78-52l27 14C228-24 195 4 139 4 59 4 22-46 18-125c-6-104 99-153 187-111 19 9 31 26 39 46" id="A"/><path fill="#3a414a" d="M106-169C34-169 62-67 57 0H25v-261h32l-1 103c12-21 28-36 61-36 89 0 53 116 60 194h-32v-121c2-32-8-49-39-48" id="B"/><path fill="#3a414a" d="M24 0v-261h32V0H24" id="C"/><g id="d"><use transform="matrix(0.06172839506172839,0,0,0.06172839506172839,0,0)" xlink:href="#A"/><use transform="matrix(0.06172839506172839,0,0,0.06172839506172839,15.987654320987653,0)" xlink:href="#B"/><use transform="matrix(0.06172839506172839,0,0,0.06172839506172839,28.333333333333332,0)" xlink:href="#q"/><use transform="matrix(0.06172839506172839,0,0,0.06172839506172839,40.67901234567901,0)" xlink:href="#z"/><use transform="matrix(0.06172839506172839,0,0,0.06172839506172839,53.02469135802469,0)" xlink:href="#z"/><use transform="matrix(0.06172839506172839,0,0,0.06172839506172839,65.37037037037037,0)" xlink:href="#s"/><use transform="matrix(0.06172839506172839,0,0,0.06172839506172839,77.71604938271605,0)" xlink:href="#C"/></g><path fill="#3a414a" d="M205 0l-28-72H64L36 0H1l101-248h38L239 0h-34zm-38-99l-47-123c-12 45-31 82-46 123h93" id="D"/><path fill="#3a414a" d="M179-190L93 31C79 59 56 82 12 73V49c39 6 53-20 64-50L1-190h34L92-34l54-156h33" id="E"/><g id="e"><use transform="matrix(0.06172839506172839,0,0,0.06172839506172839,0,0)" xlink:href="#D"/><use transform="matrix(0.06172839506172839,0,0,0.06172839506172839,14.814814814814813,0)" xlink:href="#r"/><use transform="matrix(0.06172839506172839,0,0,0.06172839506172839,27.160493827160494,0)" xlink:href="#r"/><use transform="matrix(0.06172839506172839,0,0,0.06172839506172839,39.50617283950617,0)" xlink:href="#C"/><use transform="matrix(0.06172839506172839,0,0,0.06172839506172839,44.382716049382715,0)" xlink:href="#E"/></g><path fill="#3a414a" d="M30 0v-248h33v221h125V0H30" id="F"/><path fill="#3a414a" d="M115-194c53 0 69 39 70 98 0 66-23 100-70 100C84 3 66-7 56-30L54 0H23l1-261h32v101c10-23 28-34 59-34zm-8 174c40 0 45-34 45-75 0-40-5-75-45-74-42 0-51 32-51 76 0 43 10 73 51 73" id="G"/><g id="f"><use transform="matrix(0.06172839506172839,0,0,0.06172839506172839,0,0)" xlink:href="#F"/><use transform="matrix(0.06172839506172839,0,0,0.06172839506172839,12.345679012345679,0)" xlink:href="#q"/><use transform="matrix(0.06172839506172839,0,0,0.06172839506172839,24.691358024691358,0)" xlink:href="#G"/><use transform="matrix(0.06172839506172839,0,0,0.06172839506172839,37.03703703703704,0)" xlink:href="#s"/><use transform="matrix(0.06172839506172839,0,0,0.06172839506172839,49.382716049382715,0)" xlink:href="#C"/></g><path fill="#3a414a" d="M84 4C-5 8 30-112 23-190h32v120c0 31 7 50 39 49 72-2 45-101 50-169h31l1 190h-30c-1-10 1-25-2-33-11 22-28 36-60 37" id="H"/><path fill="#3a414a" d="M143 0L79-87 56-68V0H24v-261h32v163l83-92h37l-77 82L181 0h-38" id="I"/><g id="g"><use transform="matrix(0.06172839506172839,0,0,0.06172839506172839,0,0)" xlink:href="#x"/><use transform="matrix(0.06172839506172839,0,0,0.06172839506172839,12.716049382716047,0)" xlink:href="#t"/><use transform="matrix(0.06172839506172839,0,0,0.06172839506172839,20.061728395061728,0)" xlink:href="#H"/><use transform="matrix(0.06172839506172839,0,0,0.06172839506172839,32.407407407407405,0)" xlink:href="#z"/><use transform="matrix(0.06172839506172839,0,0,0.06172839506172839,44.75308641975308,0)" xlink:href="#I"/></g><path fill="#3a414a" d="M177-190C167-65 218 103 67 71c-23-6-38-20-44-43l32-5c15 47 100 32 89-28v-30C133-14 115 1 83 1 29 1 15-40 15-95c0-56 16-97 71-98 29-1 48 16 59 35 1-10 0-23 2-32h30zM94-22c36 0 50-32 50-73 0-42-14-75-50-75-39 0-46 34-46 75s6 73 46 73" id="J"/><g id="h"><use transform="matrix(0.06172839506172839,0,0,0.06172839506172839,0,0)" xlink:href="#D"/><use transform="matrix(0.06172839506172839,0,0,0.06172839506172839,14.814814814814813,0)" xlink:href="#r"/><use transform="matrix(0.06172839506172839,0,0,0.06172839506172839,27.160493827160494,0)" xlink:href="#r"/><use transform="matrix(0.06172839506172839,0,0,0.06172839506172839,39.50617283950617,0)" xlink:href="#C"/><use transform="matrix(0.06172839506172839,0,0,0.06172839506172839,44.382716049382715,0)" xlink:href="#E"/><use transform="matrix(0.06172839506172839,0,0,0.06172839506172839,55.49382716049382,0)" xlink:href="#y"/><use transform="matrix(0.06172839506172839,0,0,0.06172839506172839,60.37037037037037,0)" xlink:href="#z"/><use transform="matrix(0.06172839506172839,0,0,0.06172839506172839,72.71604938271605,0)" xlink:href="#J"/></g><path fill="#3a414a" d="M96-169c-40 0-48 33-48 73s9 75 48 75c24 0 41-14 43-38l32 2c-6 37-31 61-74 61-59 0-76-41-82-99-10-93 101-131 147-64 4 7 5 14 7 22l-32 3c-4-21-16-35-41-35" id="K"/><g id="i"><use transform="matrix(0.06172839506172839,0,0,0.06172839506172839,0,0)" xlink:href="#D"/><use transform="matrix(0.06172839506172839,0,0,0.06172839506172839,14.814814814814813,0)" xlink:href="#K"/><use transform="matrix(0.06172839506172839,0,0,0.06172839506172839,25.925925925925924,0)" xlink:href="#v"/><use transform="matrix(0.06172839506172839,0,0,0.06172839506172839,32.098765432098766,0)" xlink:href="#w"/><use transform="matrix(0.06172839506172839,0,0,0.06172839506172839,44.44444444444444,0)" xlink:href="#t"/></g><g id="j"><use transform="matrix(0.06172839506172839,0,0,0.06172839506172839,0,0)" xlink:href="#y"/><use transform="matrix(0.06172839506172839,0,0,0.06172839506172839,4.876543209876543,0)" xlink:href="#z"/></g><g id="k"><use transform="matrix(0.06172839506172839,0,0,0.06172839506172839,0,0)" xlink:href="#D"/><use transform="matrix(0.06172839506172839,0,0,0.06172839506172839,14.814814814814813,0)" xlink:href="#r"/><use transform="matrix(0.06172839506172839,0,0,0.06172839506172839,27.160493827160494,0)" xlink:href="#r"/><use transform="matrix(0.06172839506172839,0,0,0.06172839506172839,39.50617283950617,0)" xlink:href="#C"/><use transform="matrix(0.06172839506172839,0,0,0.06172839506172839,44.382716049382715,0)" xlink:href="#E"/></g><path fill="#3a414a" d="M85-194c31 0 48 13 60 33l-1-100h32l1 261h-30c-2-10 0-23-3-31C134-8 116 4 85 4 32 4 16-35 15-94c0-66 23-100 70-100zm9 24c-40 0-46 34-46 75 0 40 6 74 45 74 42 0 51-32 51-76 0-42-9-74-50-73" id="L"/><g id="l"><use transform="matrix(0.06172839506172839,0,0,0.06172839506172839,0,0)" xlink:href="#p"/><use transform="matrix(0.06172839506172839,0,0,0.06172839506172839,18.456790123456788,0)" xlink:href="#w"/><use transform="matrix(0.06172839506172839,0,0,0.06172839506172839,30.80246913580247,0)" xlink:href="#L"/><use transform="matrix(0.06172839506172839,0,0,0.06172839506172839,43.148148148148145,0)" xlink:href="#s"/></g><g id="m"><use transform="matrix(0.06172839506172839,0,0,0.06172839506172839,0,0)" xlink:href="#x"/><use transform="matrix(0.06172839506172839,0,0,0.06172839506172839,12.716049382716047,0)" xlink:href="#t"/><use transform="matrix(0.06172839506172839,0,0,0.06172839506172839,20.061728395061728,0)" xlink:href="#q"/><use transform="matrix(0.06172839506172839,0,0,0.06172839506172839,32.407407407407405,0)" xlink:href="#y"/><use transform="matrix(0.06172839506172839,0,0,0.06172839506172839,37.28395061728395,0)" xlink:href="#z"/><use transform="matrix(0.06172839506172839,0,0,0.06172839506172839,49.629629629629626,0)" xlink:href="#y"/><use transform="matrix(0.06172839506172839,0,0,0.06172839506172839,54.50617283950617,0)" xlink:href="#z"/><use transform="matrix(0.06172839506172839,0,0,0.06172839506172839,66.85185185185185,0)" xlink:href="#J"/></g><g id="n"><use transform="matrix(0.06172839506172839,0,0,0.06172839506172839,0,0)" xlink:href="#x"/><use transform="matrix(0.06172839506172839,0,0,0.06172839506172839,12.716049382716047,0)" xlink:href="#t"/><use transform="matrix(0.06172839506172839,0,0,0.06172839506172839,20.061728395061728,0)" xlink:href="#q"/><use transform="matrix(0.06172839506172839,0,0,0.06172839506172839,32.407407407407405,0)" xlink:href="#y"/><use transform="matrix(0.06172839506172839,0,0,0.06172839506172839,37.28395061728395,0)" xlink:href="#z"/></g><path fill="#333" d="M137-138c1-29-70-34-71-4 15 46 118 7 119 86 1 83-164 76-172 9l43-7c4 19 20 25 44 25 33 8 57-30 24-41C81-84 22-81 20-136c-2-80 154-74 161-7" id="M"/><path fill="#333" d="M115-3C79 11 28 4 28-45v-112H4v-33h27l15-45h31v45h36v33H77v99c-1 23 16 31 38 25v30" id="N"/><path fill="#333" d="M133-34C117-15 103 5 69 4 32 3 11-16 11-54c-1-60 55-63 116-61 1-26-3-47-28-47-18 1-26 9-28 27l-52-2c7-38 36-58 82-57s74 22 75 68l1 82c-1 14 12 18 25 15v27c-30 8-71 5-69-32zm-48 3c29 0 43-24 42-57-32 0-66-3-65 30 0 17 8 27 23 27" id="O"/><path fill="#333" d="M185-48c-13 30-37 53-82 52C43 2 14-33 14-96s30-98 90-98c62 0 83 45 84 108H66c0 31 8 55 39 56 18 0 30-7 34-22zm-45-69c5-46-57-63-70-21-2 6-4 13-4 21h74" id="P"/><g id="o"><use transform="matrix(0.04938271604938272,0,0,0.04938271604938272,0,0)" xlink:href="#M"/><use transform="matrix(0.04938271604938272,0,0,0.04938271604938272,9.876543209876544,0)" xlink:href="#N"/><use transform="matrix(0.04938271604938272,0,0,0.04938271604938272,15.753086419753087,0)" xlink:href="#O"/><use transform="matrix(0.04938271604938272,0,0,0.04938271604938272,25.629629629629633,0)" xlink:href="#N"/><use transform="matrix(0.04938271604938272,0,0,0.04938271604938272,31.506172839506174,0)" xlink:href="#P"/></g></defs></g></svg>