<svg xmlns="http://www.w3.org/2000/svg" xmlns:xlink="http://www.w3.org/1999/xlink" xmlns:lucid="lucid" width="540" height="350.61"><g transform="translate(-140 -220)" lucid:page-tab-id="0_0"><path d="M288 331.64h-4.5v-18.72h-67v18.72H212v-23.2h76v23.2zM288 413.45h-76v-58.78h4.5v54.3h67v-54.3h4.5v58.78z" stroke="#fff" stroke-opacity="0"/><path d="M222.66 321.03h54.68v4.46h-54.68v-4.47zM222.93 333.58h54.4v4.47h-54.4v-4.47zM222.66 346.16h54.68v4.47h-54.68v-4.47zM222.66 358.7h54.68v4.48h-54.68v-4.47zM222.66 371.3h54.68v4.46h-54.68v-4.47zM222.66 383.85h54.68v4.47h-54.68v-4.47zM222.66 396.43h54.68v4.46h-54.68v-4.47zM205.84 354.8c-.35 0-.66-.06-1-.25-.76-.37-1.24-1.12-1.24-1.98v-18.85c0-1.24 1-2.24 2.25-2.24.5 0 .94.14 1.35.44l12.62 9.43c.6.44.9 1.07.9 1.8 0 .72-.3 1.35-.9 1.8l-12.62 9.4c-.4.3-.84.45-1.35.45zm2.25-16.62v9.93l6.7-4.96zM294.15 354.8c-.5 0-.94-.13-1.35-.44l-12.62-9.43c-.58-.44-.9-1.05-.9-1.8 0-.72.32-1.33.9-1.77l12.62-9.46c1-.74 2.4-.53 3.15.45.3.42.45.84.45 1.35v18.84c0 .9-.48 1.6-1.25 2-.33.17-.63.26-1 .26zm-8.96-11.67l6.7 4.98v-9.92z" stroke="#fff" stroke-opacity="0"/><path d="M213.9 310.65h71.83V411.4H213.9V310.65z" stroke="#fff" stroke-opacity="0" stroke-width=".34" fill="#fff" fill-opacity="0"/><path d="M265 254.23c0 7.86-6.72 14.23-15 14.23-8.28 0-15-6.37-15-14.23S241.72 240 250 240c8.28 0 15 6.37 15 14.23z" stroke="#3a414a"/><path d="M265 467.67c0 7.86-6.72 14.23-15 14.23-8.28 0-15-6.37-15-14.23s6.72-14.23 15-14.23c8.28 0 15 6.37 15 14.23z" stroke="#3a414a" fill="#fff"/><path d="M259 467.67c0 4.7-4.03 8.54-9 8.54s-9-3.82-9-8.53c0-4.72 4.03-8.54 9-8.54s9 3.82 9 8.54z" stroke="#3a414a"/><path d="M250 269.46v22.6" stroke="#3a414a" fill="none"/><path d="M250 268.96l.5-.06v.58h-1v-.58z" stroke="#3a414a" stroke-width=".05" fill="#3a414a"/><path d="M250 306.83l-4.63-14.26h9.26z" stroke="#3a414a" fill="#fff"/><path d="M250 413.95v22.6" stroke="#3a414a" fill="none"/><path d="M250.5 413.96h-1v-.5h1z" stroke="#3a414a" stroke-width=".05" fill="#3a414a"/><path d="M250 451.32l-4.63-14.27h9.26z" stroke="#3a414a" fill="#fff"/><path d="M550 269.32v-.5" stroke="#3a414a" stroke-linejoin="round" fill="none"/><path d="M550 269.33v-.5" stroke="#3a414a" fill="none"/><path d="M550 282.77l-4.63-14.26h9.26z" stroke="#3a414a" fill="#fff"/><path d="M549.95 302.9l-.2 1.92-.63 2.07-1.1 2-2.04 2.33-3.77 3.27" stroke="#3a414a" stroke-linejoin="round" fill="none"/><path d="M550.45 302.95l-1-.1.05-.46h1z" stroke="#3a414a" stroke-width=".05" fill="#3a414a"/><path d="M534 325.9l4.57-14.28 7.52 5.42z" stroke="#3a414a" fill="#fff"/><path d="M550.05 302.9l.2 1.92.63 2.07 1.1 2 2.04 2.33 3.77 3.27" stroke="#3a414a" stroke-linejoin="round" fill="none"/><path d="M550.55 302.86l-1 .1-.05-.57h1z" stroke="#3a414a" stroke-width=".05" fill="#3a414a"/><path d="M566 325.9l-12.1-8.86 7.53-5.42z" stroke="#3a414a" fill="#fff"/><path d="M533 345.7l-.16 1.6-.57 1.84-1 1.8-1.76 2.04-4.9 3.65-1.86 1.3" stroke="#3a414a" stroke-linejoin="round" fill="none"/><path d="M533.5 345.78l-1-.1.04-.46h1z" stroke="#3a414a" stroke-width=".05" fill="#3a414a"/><path d="M513.97 368.78l5.36-14 7.2 5.82z" stroke="#3a414a" fill="#fff"/><path d="M533.1 345.7l.18 1.95.64 2.06 1.1 2 2.05 2.36 3.77 3.27" stroke="#3a414a" stroke-linejoin="round" fill="none"/><path d="M533.6 345.68l-1 .1-.06-.56h1z" stroke="#3a414a" stroke-width=".05" fill="#3a414a"/><path d="M549.05 368.73l-12.1-8.87 7.52-5.42z" stroke="#3a414a" fill="#fff"/><path d="M550 388.54v7.94" stroke="#3a414a" stroke-linejoin="round" fill="none"/><path d="M550.5 388.55h-1v-.5h1z" stroke="#3a414a" stroke-width=".05" fill="#3a414a"/><path d="M550 411.24l-4.63-14.26h9.26z" stroke="#3a414a" fill="#fff"/><path d="M513 388.54v.3l.17.78.26.76.4.8.6.84.88.95 1.4 1.15 2.48 1.53 6.06 2.64 12.88 4.83" stroke="#3a414a" stroke-linejoin="round" fill="none"/><path d="M513.5 388.52l-1 .06-.05-.54h1z" stroke="#3a414a" stroke-width=".05" fill="#3a414a"/><path d="M548.75 411.84l-13.98-5.46 5.88-7.17z" stroke="#3a414a" fill="#fff"/><path d="M550 431.36v5.2" stroke="#3a414a" fill="none"/><path d="M550.5 431.37h-1v-.5h1z" stroke="#3a414a" stroke-width=".05" fill="#3a414a"/><path d="M550 451.32l-4.63-14.27h9.26z" stroke="#3a414a" fill="#fff"/><path d="M565 254.23c0 7.86-6.72 14.23-15 14.23-8.28 0-15-6.37-15-14.23S541.72 240 550 240c8.28 0 15 6.37 15 14.23z" stroke="#3a414a"/><path d="M567 345.7l.16 1.6.57 1.84 1 1.8 1.76 2.04 4.9 3.65 1.86 1.3" stroke="#3a414a" stroke-linejoin="round" fill="none"/><path d="M567.5 345.68l-1 .1-.05-.56h1z" stroke="#3a414a" stroke-width=".05" fill="#3a414a"/><path d="M586.03 368.78l-12.57-8.18 7.2-5.83z" stroke="#3a414a" fill="#fff"/><path d="M587 388.54v.3l-.17.78-.26.76-.4.8-.6.84-.88.95-1.4 1.15-2.48 1.53-6.06 2.64-12.88 4.83" stroke="#3a414a" stroke-linejoin="round" fill="none"/><path d="M587.5 388.58l-1-.06.04-.48h1z" stroke="#3a414a" stroke-width=".05" fill="#3a414a"/><path d="M551.25 411.84l8.1-12.63 5.88 7.18z" stroke="#3a414a" fill="#fff"/><path d="M556.5 288.37h-.76v-3.2h-11.48v3.2h-.77v-3.98h13v3.97zM556.5 302.4h-13V292.3h.76v9.3h11.48v-9.3h.77v10.07z" stroke="#fff" stroke-opacity="0"/><path d="M545.3 286.55h9.4v.77h-9.4v-.77zM545.36 288.7h9.33v.77h-9.34v-.77zM545.3 290.86h9.4v.76h-9.4v-.76zM545.3 293h9.4v.78h-9.4V293zM545.3 295.17h9.4v.76h-9.4v-.76zM545.3 297.32h9.4v.76h-9.4v-.76zM545.3 299.48h9.4v.76h-9.4v-.76zM542.43 292.34c-.06 0-.1 0-.17-.04-.13-.07-.2-.2-.2-.34v-3.23c0-.22.16-.4.37-.4.1 0 .16.04.23.1l2.17 1.6c.1.08.15.2.15.3 0 .13-.05.24-.15.32l-2.17 1.6c-.07.07-.14.1-.23.1zm.4-2.85v1.7l1.14-.86zM557.57 292.34c-.1 0-.16-.02-.23-.08l-2.17-1.6c-.1-.1-.15-.2-.15-.32 0-.13.05-.23.15-.3l2.17-1.63c.17-.1.4-.08.54.1.05.06.07.13.07.22v3.23c0 .15-.08.28-.2.35-.07.02-.12.04-.18.04zm-1.54-2l1.15.85v-1.7z" stroke="#fff" stroke-opacity="0"/><path d="M543.8 284.77h12.33v17.27H543.8v-17.27z" stroke="#fff" stroke-opacity="0" stroke-width=".34" fill="#fff" fill-opacity="0"/><path d="M539.56 331.2h-.77v-3.22h-11.5v3.2h-.77v-3.96h13.03v3.97zM539.56 345.22h-13.03v-10.08h.77v9.3h11.5v-9.3h.76v10.08z" stroke="#fff" stroke-opacity="0"/><path d="M528.36 329.37h9.37v.77h-9.37v-.77zM528.4 331.52h9.33v.77h-9.32v-.78zM528.36 333.68h9.37v.77h-9.37v-.77zM528.36 335.83h9.37v.77h-9.37v-.77zM528.36 338h9.37v.75h-9.37V338zM528.36 340.14h9.37v.77h-9.37v-.76zM528.36 342.3h9.37v.76h-9.37v-.76zM525.48 335.16c-.07 0-.12 0-.17-.04-.13-.06-.2-.2-.2-.34v-3.23c0-.2.17-.38.38-.38.1 0 .16.02.23.07l2.17 1.62c.1.07.16.18.16.3 0 .13-.06.24-.16.3l-2.16 1.63c-.06.04-.13.06-.22.06zm.38-2.85v1.7l1.15-.84zM540.62 335.16c-.1 0-.17-.02-.24-.07l-2.16-1.63c-.1-.08-.15-.18-.15-.3 0-.13.05-.24.15-.3l2.16-1.63c.17-.13.4-.1.54.07.06.08.08.16.08.25v3.22c0 .16-.08.28-.2.35-.07.03-.12.04-.18.04zm-1.54-2l1.15.85v-1.7z" stroke="#fff" stroke-opacity="0"/><path d="M526.86 327.6h12.3v17.27h-12.3V327.6z" stroke="#fff" stroke-opacity="0" stroke-width=".34" fill="#fff" fill-opacity="0"/><path d="M573.47 331.2h-.77v-3.22h-11.5v3.2h-.76v-3.96h13.03v3.97zM573.47 345.22h-13.03v-10.08h.77v9.3h11.5v-9.3h.77v10.08z" stroke="#fff" stroke-opacity="0"/><path d="M562.27 329.37h9.37v.77h-9.37v-.77zM562.3 331.52h9.34v.77h-9.33v-.78zM562.27 333.68h9.37v.77h-9.37v-.77zM562.27 335.83h9.37v.77h-9.37v-.77zM562.27 338h9.37v.75h-9.37V338zM562.27 340.14h9.37v.77h-9.37v-.76zM562.27 342.3h9.37v.76h-9.37v-.76zM559.38 335.16c-.06 0-.1 0-.17-.04-.12-.06-.2-.2-.2-.34v-3.23c0-.2.17-.38.38-.38.1 0 .17.02.24.07l2.16 1.62c.1.07.15.18.15.3 0 .13-.05.24-.15.3l-2.16 1.63c-.07.04-.15.06-.24.06zm.4-2.85v1.7l1.14-.84zM574.52 335.16c-.1 0-.16-.02-.23-.07l-2.17-1.63c-.1-.08-.16-.18-.16-.3 0-.13.06-.24.16-.3l2.16-1.63c.16-.13.4-.1.53.07.05.08.08.16.08.25v3.22c0 .16-.07.28-.2.35-.06.03-.12.04-.18.04zm-1.53-2l1.14.85v-1.7z" stroke="#fff" stroke-opacity="0"/><path d="M560.77 327.6h12.3v17.27h-12.3V327.6z" stroke="#fff" stroke-opacity="0" stroke-width=".34" fill="#fff" fill-opacity="0"/><path d="M593.56 374h-.77v-3.2h-11.5v3.2h-.77v-3.96h13.03V374zM593.56 388.04h-13.03v-10.08h.77v9.3h11.5v-9.3h.76v10.08z" stroke="#fff" stroke-opacity="0"/><path d="M582.36 372.2h9.37v.76h-9.37v-.76zM582.4 374.35h9.33v.76h-9.32v-.75zM582.36 376.5h9.37v.77h-9.37v-.77zM582.36 378.66h9.37v.76h-9.37v-.76zM582.36 380.8h9.37v.78h-9.37v-.77zM582.36 382.96h9.37v.77h-9.37v-.77zM582.36 385.12h9.37v.77h-9.37v-.78zM579.48 378c-.07 0-.12-.03-.17-.06-.13-.06-.2-.2-.2-.34v-3.23c0-.2.17-.38.38-.38.1 0 .16 0 .23.06l2.17 1.62c.1.07.16.18.16.3 0 .13-.06.24-.16.3l-2.16 1.63c-.06.06-.13.1-.22.1zm.38-2.87v1.7L581 376zM594.62 378c-.1 0-.17-.04-.24-.1l-2.16-1.6c-.1-.08-.15-.2-.15-.3 0-.14.05-.24.15-.32l2.16-1.62c.17-.13.4-.1.54.08.06.07.08.14.08.23v3.23c0 .15-.08.27-.2.34-.07.03-.12.05-.18.05zm-1.54-2l1.15.84v-1.7z" stroke="#fff" stroke-opacity="0"/><path d="M580.86 370.42h12.3v17.27h-12.3V370.4z" stroke="#fff" stroke-opacity="0" stroke-width=".34" fill="#fff" fill-opacity="0"/><path d="M556.5 374h-.76v-3.2h-11.48v3.2h-.77v-3.96h13V374zM556.5 388.04h-13v-10.08h.76v9.3h11.48v-9.3h.77v10.08z" stroke="#fff" stroke-opacity="0"/><path d="M545.3 372.2h9.4v.76h-9.4v-.76zM545.36 374.35h9.33v.76h-9.34v-.75zM545.3 376.5h9.4v.77h-9.4v-.77zM545.3 378.66h9.4v.76h-9.4v-.76zM545.3 380.8h9.4v.78h-9.4v-.77zM545.3 382.96h9.4v.77h-9.4v-.77zM545.3 385.12h9.4v.77h-9.4v-.78zM542.43 378c-.06 0-.1-.03-.17-.06-.13-.06-.2-.2-.2-.34v-3.23c0-.2.16-.38.37-.38.1 0 .16 0 .23.06l2.17 1.62c.1.07.15.18.15.3 0 .13-.05.24-.15.3l-2.17 1.63c-.07.06-.14.1-.23.1zm.4-2.87v1.7l1.14-.84zM557.57 378c-.1 0-.16-.04-.23-.1l-2.17-1.6c-.1-.08-.15-.2-.15-.3 0-.14.05-.24.15-.32l2.17-1.62c.17-.13.4-.1.54.08.05.07.07.14.07.23v3.23c0 .15-.08.27-.2.34-.07.03-.12.05-.18.05zm-1.54-2l1.15.84v-1.7z" stroke="#fff" stroke-opacity="0"/><path d="M543.8 370.42h12.33v17.27H543.8V370.4z" stroke="#fff" stroke-opacity="0" stroke-width=".34" fill="#fff" fill-opacity="0"/><path d="M519.47 374h-.77v-3.2h-11.5v3.2h-.76v-3.96h13.03V374zM519.47 388.04h-13.03v-10.08h.77v9.3h11.5v-9.3h.77v10.08z" stroke="#fff" stroke-opacity="0"/><path d="M508.27 372.2h9.37v.76h-9.37v-.76zM508.3 374.35h9.34v.76h-9.33v-.75zM508.27 376.5h9.37v.77h-9.37v-.77zM508.27 378.66h9.37v.76h-9.37v-.76zM508.27 380.8h9.37v.78h-9.37v-.77zM508.27 382.96h9.37v.77h-9.37v-.77zM508.27 385.12h9.37v.77h-9.37v-.78zM505.38 378c-.06 0-.1-.03-.17-.06-.12-.06-.2-.2-.2-.34v-3.23c0-.2.17-.38.38-.38.1 0 .17 0 .24.06l2.16 1.62c.1.07.15.18.15.3 0 .13-.05.24-.15.3l-2.16 1.63c-.07.06-.15.1-.24.1zm.4-2.87v1.7l1.14-.84zM520.52 378c-.1 0-.16-.04-.23-.1l-2.17-1.6c-.1-.08-.16-.2-.16-.3 0-.14.06-.24.16-.32l2.16-1.62c.16-.13.4-.1.53.08.05.07.08.14.08.23v3.23c0 .15-.07.27-.2.34-.06.03-.12.05-.18.05zm-1.53-2l1.14.84v-1.7z" stroke="#fff" stroke-opacity="0"/><path d="M506.77 370.42h12.3v17.27h-12.3V370.4z" stroke="#fff" stroke-opacity="0" stroke-width=".34" fill="#fff" fill-opacity="0"/><path d="M556.5 416.84h-.76v-3.2h-11.48v3.2h-.77v-3.98h13v3.98zM556.5 430.86h-13V420.8h.76v9.3h11.48v-9.3h.77v10.06z" stroke="#fff" stroke-opacity="0"/><path d="M545.3 415.02h9.4v.76h-9.4v-.76zM545.36 417.17h9.33v.77h-9.34v-.77zM545.3 419.33h9.4v.76h-9.4v-.77zM545.3 421.48h9.4v.76h-9.4v-.76zM545.3 423.63h9.4v.77h-9.4v-.76zM545.3 425.8h9.4v.75h-9.4v-.76zM545.3 427.94h9.4v.77h-9.4v-.76zM542.43 420.8c-.06 0-.1 0-.17-.04-.13-.06-.2-.2-.2-.33v-3.24c0-.22.16-.4.37-.4.1 0 .16.03.23.1l2.17 1.6c.1.08.15.2.15.3 0 .13-.05.24-.15.32l-2.17 1.6c-.07.06-.14.1-.23.1zm.4-2.84v1.7l1.14-.85zM557.57 420.8c-.1 0-.16-.02-.23-.07l-2.17-1.62c-.1-.06-.15-.17-.15-.3 0-.12.05-.22.15-.3l2.17-1.62c.17-.13.4-.1.54.08.05.07.07.14.07.23v3.22c0 .15-.08.28-.2.34-.07.03-.12.05-.18.05zm-1.54-2l1.15.86v-1.7z" stroke="#fff" stroke-opacity="0"/><path d="M543.8 413.24h12.33v17.27H543.8v-17.26z" stroke="#fff" stroke-opacity="0" stroke-width=".34" fill="#fff" fill-opacity="0"/><path d="M565 467.67c0 7.86-6.72 14.23-15 14.23-8.28 0-15-6.37-15-14.23s6.72-14.23 15-14.23c8.28 0 15 6.37 15 14.23z" stroke="#3a414a" fill="#fff"/><path d="M559 467.67c0 4.7-4.03 8.54-9 8.54s-9-3.82-9-8.53c0-4.72 4.03-8.54 9-8.54s9 3.82 9 8.54z" stroke="#3a414a"/><path d="M160 500.94a6 6 0 0 1 6-6h168a6 6 0 0 1 6 6V534a6 6 0 0 1-6 6H166a6 6 0 0 1-6-6z" stroke="#000" stroke-opacity="0" fill="#fff" fill-opacity="0"/><use xlink:href="#a" transform="matrix(1,0,0,1,165,499.94071146245057) translate(20.27777777777777 17.77777777777778)"/><use xlink:href="#b" transform="matrix(1,0,0,1,165,499.94071146245057) translate(42.50000000000001 44.44444444444444)"/><path d="M440 500.94a6 6 0 0 1 6-6h208a6 6 0 0 1 6 6V534a6 6 0 0 1-6 6H446a6 6 0 0 1-6-6z" stroke="#000" stroke-opacity="0" fill="#fff" fill-opacity="0"/><use xlink:href="#c" transform="matrix(1,0,0,1,445,499.94071146245045) translate(16.790123456790113 17.77777777777778)"/><use xlink:href="#d" transform="matrix(1,0,0,1,445,499.94071146245045) translate(68.58024691358023 17.77777777777778)"/><use xlink:href="#e" transform="matrix(1,0,0,1,445,499.94071146245045) translate(59.660493827160494 44.44444444444444)"/><defs><path fill="#3a414a" d="M212-179c-10-28-35-45-73-45-59 0-87 40-87 99 0 60 29 101 89 101 43 0 62-24 78-52l27 14C228-24 195 4 139 4 59 4 22-46 18-125c-6-104 99-153 187-111 19 9 31 26 39 46" id="f"/><path fill="#3a414a" d="M100-194c62-1 85 37 85 99 1 63-27 99-86 99S16-35 15-95c0-66 28-99 85-99zM99-20c44 1 53-31 53-75 0-43-8-75-51-75s-53 32-53 75 10 74 51 75" id="g"/><path fill="#3a414a" d="M117-194c89-4 53 116 60 194h-32v-121c0-31-8-49-39-48C34-167 62-67 57 0H25l-1-190h30c1 10-1 24 2 32 11-22 29-35 61-36" id="h"/><path fill="#3a414a" d="M108 0H70L1-190h34L89-25l56-165h34" id="i"/><path fill="#3a414a" d="M100-194c63 0 86 42 84 106H49c0 40 14 67 53 68 26 1 43-12 49-29l28 8c-11 28-37 45-77 45C44 4 14-33 15-96c1-61 26-98 85-98zm52 81c6-60-76-77-97-28-3 7-6 17-6 28h103" id="j"/><path fill="#3a414a" d="M59-47c-2 24 18 29 38 22v24C64 9 27 4 27-40v-127H5v-23h24l9-43h21v43h35v23H59v120" id="k"/><path fill="#3a414a" d="M24-231v-30h32v30H24zM24 0v-190h32V0H24" id="l"/><path fill="#3a414a" d="M141-36C126-15 110 5 73 4 37 3 15-17 15-53c-1-64 63-63 125-63 3-35-9-54-41-54-24 1-41 7-42 31l-33-3c5-37 33-52 76-52 45 0 72 20 72 64v82c-1 20 7 32 28 27v20c-31 9-61-2-59-35zM48-53c0 20 12 33 32 33 41-3 63-29 60-74-43 2-92-5-92 41" id="m"/><path fill="#3a414a" d="M24 0v-261h32V0H24" id="n"/><g id="a"><use transform="matrix(0.06172839506172839,0,0,0.06172839506172839,0,0)" xlink:href="#f"/><use transform="matrix(0.06172839506172839,0,0,0.06172839506172839,15.987654320987653,0)" xlink:href="#g"/><use transform="matrix(0.06172839506172839,0,0,0.06172839506172839,28.333333333333332,0)" xlink:href="#h"/><use transform="matrix(0.06172839506172839,0,0,0.06172839506172839,40.67901234567901,0)" xlink:href="#i"/><use transform="matrix(0.06172839506172839,0,0,0.06172839506172839,51.79012345679013,0)" xlink:href="#j"/><use transform="matrix(0.06172839506172839,0,0,0.06172839506172839,64.13580246913581,0)" xlink:href="#h"/><use transform="matrix(0.06172839506172839,0,0,0.06172839506172839,76.4814814814815,0)" xlink:href="#k"/><use transform="matrix(0.06172839506172839,0,0,0.06172839506172839,82.65432098765433,0)" xlink:href="#l"/><use transform="matrix(0.06172839506172839,0,0,0.06172839506172839,87.53086419753087,0)" xlink:href="#g"/><use transform="matrix(0.06172839506172839,0,0,0.06172839506172839,99.87654320987656,0)" xlink:href="#h"/><use transform="matrix(0.06172839506172839,0,0,0.06172839506172839,112.22222222222224,0)" xlink:href="#m"/><use transform="matrix(0.06172839506172839,0,0,0.06172839506172839,124.56790123456793,0)" xlink:href="#n"/></g><path fill="#3a414a" d="M30-248c87 1 191-15 191 75 0 78-77 80-158 76V0H30v-248zm33 125c57 0 124 11 124-50 0-59-68-47-124-48v98" id="o"/><path fill="#3a414a" d="M114-163C36-179 61-72 57 0H25l-1-190h30c1 12-1 29 2 39 6-27 23-49 58-41v29" id="p"/><path fill="#3a414a" d="M177-190C167-65 218 103 67 71c-23-6-38-20-44-43l32-5c15 47 100 32 89-28v-30C133-14 115 1 83 1 29 1 15-40 15-95c0-56 16-97 71-98 29-1 48 16 59 35 1-10 0-23 2-32h30zM94-22c36 0 50-32 50-73 0-42-14-75-50-75-39 0-46 34-46 75s6 73 46 73" id="q"/><path fill="#3a414a" d="M210-169c-67 3-38 105-44 169h-31v-121c0-29-5-50-35-48C34-165 62-65 56 0H25l-1-190h30c1 10-1 24 2 32 10-44 99-50 107 0 11-21 27-35 58-36 85-2 47 119 55 194h-31v-121c0-29-5-49-35-48" id="r"/><g id="b"><use transform="matrix(0.06172839506172839,0,0,0.06172839506172839,0,0)" xlink:href="#o"/><use transform="matrix(0.06172839506172839,0,0,0.06172839506172839,14.814814814814813,0)" xlink:href="#p"/><use transform="matrix(0.06172839506172839,0,0,0.06172839506172839,22.160493827160494,0)" xlink:href="#g"/><use transform="matrix(0.06172839506172839,0,0,0.06172839506172839,34.50617283950617,0)" xlink:href="#q"/><use transform="matrix(0.06172839506172839,0,0,0.06172839506172839,46.85185185185185,0)" xlink:href="#p"/><use transform="matrix(0.06172839506172839,0,0,0.06172839506172839,54.197530864197525,0)" xlink:href="#m"/><use transform="matrix(0.06172839506172839,0,0,0.06172839506172839,66.5432098765432,0)" xlink:href="#r"/></g><path fill="#3a414a" d="M127-220V0H93v-220H8v-28h204v28h-85" id="s"/><path fill="#3a414a" d="M135-143c-3-34-86-38-87 0 15 53 115 12 119 90S17 21 10-45l28-5c4 36 97 45 98 0-10-56-113-15-118-90-4-57 82-63 122-42 12 7 21 19 24 35" id="t"/><path fill="#3a414a" d="M143 0L79-87 56-68V0H24v-261h32v163l83-92h37l-77 82L181 0h-38" id="u"/><g id="c"><use transform="matrix(0.06172839506172839,0,0,0.06172839506172839,0,0)" xlink:href="#s"/><use transform="matrix(0.06172839506172839,0,0,0.06172839506172839,11.049382716049381,0)" xlink:href="#m"/><use transform="matrix(0.06172839506172839,0,0,0.06172839506172839,23.39506172839506,0)" xlink:href="#t"/><use transform="matrix(0.06172839506172839,0,0,0.06172839506172839,34.50617283950617,0)" xlink:href="#u"/></g><path fill="#3a414a" d="M30-248c118-7 216 8 213 122C240-48 200 0 122 0H30v-248zM63-27c89 8 146-16 146-99s-60-101-146-95v194" id="v"/><path fill="#3a414a" d="M115-194c55 1 70 41 70 98S169 2 115 4C84 4 66-9 55-30l1 105H24l-1-265h31l2 30c10-21 28-34 59-34zm-8 174c40 0 45-34 45-75s-6-73-45-74c-42 0-51 32-51 76 0 43 10 73 51 73" id="w"/><path fill="#3a414a" d="M85-194c31 0 48 13 60 33l-1-100h32l1 261h-30c-2-10 0-23-3-31C134-8 116 4 85 4 32 4 16-35 15-94c0-66 23-100 70-100zm9 24c-40 0-46 34-46 75 0 40 6 74 45 74 42 0 51-32 51-76 0-42-9-74-50-73" id="x"/><path fill="#3a414a" d="M96-169c-40 0-48 33-48 73s9 75 48 75c24 0 41-14 43-38l32 2c-6 37-31 61-74 61-59 0-76-41-82-99-10-93 101-131 147-64 4 7 5 14 7 22l-32 3c-4-21-16-35-41-35" id="y"/><path fill="#3a414a" d="M179-190L93 31C79 59 56 82 12 73V49c39 6 53-20 64-50L1-190h34L92-34l54-156h33" id="z"/><g id="d"><use transform="matrix(0.06172839506172839,0,0,0.06172839506172839,0,0)" xlink:href="#v"/><use transform="matrix(0.06172839506172839,0,0,0.06172839506172839,15.987654320987653,0)" xlink:href="#j"/><use transform="matrix(0.06172839506172839,0,0,0.06172839506172839,28.333333333333332,0)" xlink:href="#w"/><use transform="matrix(0.06172839506172839,0,0,0.06172839506172839,40.67901234567901,0)" xlink:href="#j"/><use transform="matrix(0.06172839506172839,0,0,0.06172839506172839,53.02469135802469,0)" xlink:href="#h"/><use transform="matrix(0.06172839506172839,0,0,0.06172839506172839,65.37037037037037,0)" xlink:href="#x"/><use transform="matrix(0.06172839506172839,0,0,0.06172839506172839,77.71604938271605,0)" xlink:href="#j"/><use transform="matrix(0.06172839506172839,0,0,0.06172839506172839,90.06172839506173,0)" xlink:href="#h"/><use transform="matrix(0.06172839506172839,0,0,0.06172839506172839,102.40740740740742,0)" xlink:href="#y"/><use transform="matrix(0.06172839506172839,0,0,0.06172839506172839,113.51851851851853,0)" xlink:href="#z"/></g><path fill="#3a414a" d="M266 0h-40l-56-210L115 0H75L2-248h35L96-30l15-64 43-154h32l59 218 59-218h35" id="A"/><path fill="#3a414a" d="M101-234c-31-9-42 10-38 44h38v23H63V0H32v-167H5v-23h27c-7-52 17-82 69-68v24" id="B"/><path fill="#3a414a" d="M206 0h-36l-40-164L89 0H53L-1-190h32L70-26l43-164h34l41 164 42-164h31" id="C"/><g id="e"><use transform="matrix(0.06172839506172839,0,0,0.06172839506172839,0,0)" xlink:href="#A"/><use transform="matrix(0.06172839506172839,0,0,0.06172839506172839,20.493827160493826,0)" xlink:href="#g"/><use transform="matrix(0.06172839506172839,0,0,0.06172839506172839,32.839506172839506,0)" xlink:href="#p"/><use transform="matrix(0.06172839506172839,0,0,0.06172839506172839,40.18518518518518,0)" xlink:href="#u"/><use transform="matrix(0.06172839506172839,0,0,0.06172839506172839,51.29629629629629,0)" xlink:href="#B"/><use transform="matrix(0.06172839506172839,0,0,0.06172839506172839,57.46913580246913,0)" xlink:href="#n"/><use transform="matrix(0.06172839506172839,0,0,0.06172839506172839,62.34567901234568,0)" xlink:href="#g"/><use transform="matrix(0.06172839506172839,0,0,0.06172839506172839,74.69135802469135,0)" xlink:href="#C"/></g></defs></g></svg>