<?xml version="1.0" encoding="UTF-8" standalone="no"?>
<!DOCTYPE svg PUBLIC "-//W3C//DTD SVG 1.1//EN"
 "http://www.w3.org/Graphics/SVG/1.1/DTD/svg11.dtd">
<!-- Generated by graphviz version 2.43.0 (0)
 -->
<!-- Title: %3 Pages: 1 -->
<svg width="974pt" height="1238pt"
 viewBox="0.00 0.00 974.00 1238.00" xmlns="http://www.w3.org/2000/svg" xmlns:xlink="http://www.w3.org/1999/xlink">
<g id="graph0" class="graph" transform="scale(1 1) rotate(0) translate(4 1234)">
<title>%3</title>
<!-- 140346432181152 -->
<g id="node1" class="node">
<title>140346432181152</title>
<path fill="none" stroke="black" d="M834,-1230C834,-1230 106,-1230 106,-1230 100,-1230 94,-1224 94,-1218 94,-1218 94,-1206 94,-1206 94,-1200 100,-1194 106,-1194 106,-1194 834,-1194 834,-1194 840,-1194 846,-1200 846,-1206 846,-1206 846,-1218 846,-1218 846,-1224 840,-1230 834,-1230"/>
<text text-anchor="middle" x="470" y="-1208.3" font-family="Times,serif" font-size="14.00">TableDriver(Reader(con=LazyReaderBackend), Statement(Foo[Foo.Level, Foo.Value, Foo.Label])).apply</text>
</g>
<!-- 140346424575536 -->
<g id="node2" class="node">
<title>140346424575536</title>
<path fill="none" stroke="black" d="M562.5,-1143C562.5,-1143 377.5,-1143 377.5,-1143 371.5,-1143 365.5,-1137 365.5,-1131 365.5,-1131 365.5,-1119 365.5,-1119 365.5,-1113 371.5,-1107 377.5,-1107 377.5,-1107 562.5,-1107 562.5,-1107 568.5,-1107 574.5,-1113 574.5,-1119 574.5,-1119 574.5,-1131 574.5,-1131 574.5,-1137 568.5,-1143 562.5,-1143"/>
<text text-anchor="middle" x="470" y="-1121.3" font-family="Times,serif" font-size="14.00">Slicer(range(0, 2), 2).apply</text>
</g>
<!-- 140346432181152&#45;&gt;140346424575536 -->
<g id="edge1" class="edge">
<title>140346432181152&#45;&gt;140346424575536</title>
<path fill="none" stroke="black" d="M470,-1193.8C470,-1182.16 470,-1166.55 470,-1153.24"/>
<polygon fill="black" stroke="black" points="473.5,-1153.18 470,-1143.18 466.5,-1153.18 473.5,-1153.18"/>
<text text-anchor="middle" x="475" y="-1164.8" font-family="Times,serif" font-size="14.00">0</text>
</g>
<!-- 140346179940848 -->
<g id="node3" class="node">
<title>140346179940848</title>
<ellipse fill="none" stroke="black" cx="407" cy="-1038" rx="54.69" ry="18"/>
<text text-anchor="middle" x="407" y="-1034.3" font-family="Times,serif" font-size="14.00">Getter#0</text>
</g>
<!-- 140346424575536&#45;&gt;140346179940848 -->
<g id="edge2" class="edge">
<title>140346424575536&#45;&gt;140346179940848</title>
<path fill="none" stroke="black" d="M457.25,-1106.8C448.08,-1094.43 435.58,-1077.55 425.34,-1063.74"/>
<polygon fill="black" stroke="black" points="428.07,-1061.55 419.3,-1055.6 422.44,-1065.71 428.07,-1061.55"/>
<text text-anchor="middle" x="448" y="-1077.8" font-family="Times,serif" font-size="14.00">0</text>
</g>
<!-- 140346179940992 -->
<g id="node4" class="node">
<title>140346179940992</title>
<ellipse fill="none" stroke="black" cx="536" cy="-1038" rx="54.69" ry="18"/>
<text text-anchor="middle" x="536" y="-1034.3" font-family="Times,serif" font-size="14.00">Getter#1</text>
</g>
<!-- 140346424575536&#45;&gt;140346179940992 -->
<g id="edge3" class="edge">
<title>140346424575536&#45;&gt;140346179940992</title>
<path fill="none" stroke="black" d="M483.36,-1106.8C492.96,-1094.43 506.06,-1077.55 516.79,-1063.74"/>
<polygon fill="black" stroke="black" points="519.74,-1065.64 523.11,-1055.6 514.22,-1061.35 519.74,-1065.64"/>
<text text-anchor="middle" x="512" y="-1077.8" font-family="Times,serif" font-size="14.00">0</text>
</g>
<!-- 140346179673984 -->
<g id="node5" class="node">
<title>140346179673984</title>
<path fill="none" stroke="black" d="M445,-969C445,-969 341,-969 341,-969 335,-969 329,-963 329,-957 329,-957 329,-945 329,-945 329,-939 335,-933 341,-933 341,-933 445,-933 445,-933 451,-933 457,-939 457,-945 457,-945 457,-957 457,-957 457,-963 451,-969 445,-969"/>
<text text-anchor="middle" x="393" y="-947.3" font-family="Times,serif" font-size="14.00">ToPandas.apply</text>
</g>
<!-- 140346179940848&#45;&gt;140346179673984 -->
<g id="edge4" class="edge">
<title>140346179940848&#45;&gt;140346179673984</title>
<path fill="none" stroke="black" d="M404.17,-1019.8C402.25,-1008.16 399.68,-992.55 397.49,-979.24"/>
<polygon fill="black" stroke="black" points="400.91,-978.47 395.83,-969.18 394,-979.61 400.91,-978.47"/>
<text text-anchor="middle" x="406" y="-990.8" font-family="Times,serif" font-size="14.00">0</text>
</g>
<!-- 140346179673664 -->
<g id="node7" class="node">
<title>140346179673664</title>
<path fill="none" stroke="black" d="M591,-969C591,-969 487,-969 487,-969 481,-969 475,-963 475,-957 475,-957 475,-945 475,-945 475,-939 481,-933 487,-933 487,-933 591,-933 591,-933 597,-933 603,-939 603,-945 603,-945 603,-957 603,-957 603,-963 597,-969 591,-969"/>
<text text-anchor="middle" x="539" y="-947.3" font-family="Times,serif" font-size="14.00">ToPandas.apply</text>
</g>
<!-- 140346179940992&#45;&gt;140346179673664 -->
<g id="edge33" class="edge">
<title>140346179940992&#45;&gt;140346179673664</title>
<path fill="none" stroke="black" d="M536.61,-1019.8C537.02,-1008.16 537.57,-992.55 538.04,-979.24"/>
<polygon fill="black" stroke="black" points="541.54,-979.29 538.39,-969.18 534.54,-979.05 541.54,-979.29"/>
<text text-anchor="middle" x="542" y="-990.8" font-family="Times,serif" font-size="14.00">0</text>
</g>
<!-- 140346179678064 -->
<g id="node6" class="node">
<title>140346179678064</title>
<path fill="none" stroke="black" d="M599.5,-882C599.5,-882 330.5,-882 330.5,-882 324.5,-882 318.5,-876 318.5,-870 318.5,-870 318.5,-858 318.5,-858 318.5,-852 324.5,-846 330.5,-846 330.5,-846 599.5,-846 599.5,-846 605.5,-846 611.5,-852 611.5,-858 611.5,-858 611.5,-870 611.5,-870 611.5,-876 605.5,-882 599.5,-882"/>
<text text-anchor="middle" x="465" y="-860.3" font-family="Times,serif" font-size="14.00">OverSampler(random_state=42).apply</text>
</g>
<!-- 140346179673984&#45;&gt;140346179678064 -->
<g id="edge5" class="edge">
<title>140346179673984&#45;&gt;140346179678064</title>
<path fill="none" stroke="black" d="M407.57,-932.8C418.01,-920.47 432.24,-903.68 443.92,-889.89"/>
<polygon fill="black" stroke="black" points="446.66,-892.07 450.45,-882.18 441.32,-887.54 446.66,-892.07"/>
<text text-anchor="middle" x="439" y="-903.8" font-family="Times,serif" font-size="14.00">0</text>
</g>
<!-- 140346179942288 -->
<g id="node8" class="node">
<title>140346179942288</title>
<ellipse fill="none" stroke="black" cx="397" cy="-777" rx="54.69" ry="18"/>
<text text-anchor="middle" x="397" y="-773.3" font-family="Times,serif" font-size="14.00">Getter#0</text>
</g>
<!-- 140346179678064&#45;&gt;140346179942288 -->
<g id="edge7" class="edge">
<title>140346179678064&#45;&gt;140346179942288</title>
<path fill="none" stroke="black" d="M451.24,-845.8C441.34,-833.43 427.84,-816.55 416.79,-802.74"/>
<polygon fill="black" stroke="black" points="419.26,-800.22 410.28,-794.6 413.79,-804.59 419.26,-800.22"/>
<text text-anchor="middle" x="441" y="-816.8" font-family="Times,serif" font-size="14.00">0</text>
</g>
<!-- 140346179942432 -->
<g id="node9" class="node">
<title>140346179942432</title>
<ellipse fill="none" stroke="black" cx="638" cy="-777" rx="54.69" ry="18"/>
<text text-anchor="middle" x="638" y="-773.3" font-family="Times,serif" font-size="14.00">Getter#1</text>
</g>
<!-- 140346179678064&#45;&gt;140346179942432 -->
<g id="edge8" class="edge">
<title>140346179678064&#45;&gt;140346179942432</title>
<path fill="none" stroke="black" d="M500.01,-845.8C528.87,-831.62 569.77,-811.52 599.54,-796.9"/>
<polygon fill="black" stroke="black" points="601.36,-799.9 608.79,-792.35 598.27,-793.62 601.36,-799.9"/>
<text text-anchor="middle" x="566" y="-816.8" font-family="Times,serif" font-size="14.00">0</text>
</g>
<!-- 140346179673664&#45;&gt;140346179678064 -->
<g id="edge6" class="edge">
<title>140346179673664&#45;&gt;140346179678064</title>
<path fill="none" stroke="black" d="M524.02,-932.8C513.29,-920.47 498.67,-903.68 486.67,-889.89"/>
<polygon fill="black" stroke="black" points="489.16,-887.42 479.95,-882.18 483.88,-892.02 489.16,-887.42"/>
<text text-anchor="middle" x="512" y="-903.8" font-family="Times,serif" font-size="14.00">1</text>
</g>
<!-- 140346179674544 -->
<g id="node10" class="node">
<title>140346179674544</title>
<path fill="none" stroke="black" d="M610.5,-654C610.5,-654 389.5,-654 389.5,-654 383.5,-654 377.5,-648 377.5,-642 377.5,-642 377.5,-630 377.5,-630 377.5,-624 383.5,-618 389.5,-618 389.5,-618 610.5,-618 610.5,-618 616.5,-618 622.5,-624 622.5,-630 622.5,-630 622.5,-642 622.5,-642 622.5,-648 616.5,-654 610.5,-654"/>
<text text-anchor="middle" x="500" y="-632.3" font-family="Times,serif" font-size="14.00">OrdActor(column=&#39;Level&#39;).apply</text>
</g>
<!-- 140346179942288&#45;&gt;140346179674544 -->
<g id="edge9" class="edge">
<title>140346179942288&#45;&gt;140346179674544</title>
<path fill="none" stroke="black" d="M409.42,-759.23C427.27,-735.15 460.3,-690.58 481.16,-662.43"/>
<polygon fill="black" stroke="black" points="484.07,-664.38 487.21,-654.26 478.44,-660.21 484.07,-664.38"/>
<text text-anchor="middle" x="439" y="-729.8" font-family="Times,serif" font-size="14.00">0</text>
</g>
<!-- 140346179667824 -->
<g id="node12" class="node">
<title>140346179667824</title>
<path fill="none" stroke="black" d="M500,-600C500,-600 194,-600 194,-600 188,-600 182,-594 182,-588 182,-588 182,-576 182,-576 182,-570 188,-564 194,-564 194,-564 500,-564 500,-564 506,-564 512,-570 512,-576 512,-576 512,-588 512,-588 512,-594 506,-600 500,-600"/>
<text text-anchor="middle" x="347" y="-578.3" font-family="Times,serif" font-size="14.00">CenterActor(column=&#39;Value&#39;).setstate.apply</text>
</g>
<!-- 140346179942288&#45;&gt;140346179667824 -->
<g id="edge28" class="edge">
<title>140346179942288&#45;&gt;140346179667824</title>
<path fill="none" stroke="black" d="M392.56,-758.87C383.83,-725.18 364.38,-650.07 353.94,-609.77"/>
<polygon fill="black" stroke="black" points="357.32,-608.89 351.43,-600.09 350.55,-610.65 357.32,-608.89"/>
<text text-anchor="middle" x="384" y="-686.3" font-family="Times,serif" font-size="14.00">1</text>
</g>
<!-- 140346179674704 -->
<g id="node23" class="node">
<title>140346179674704</title>
<polygon fill="none" stroke="black" points="326,-708 0,-708 0,-672 326,-672 326,-708"/>
<text text-anchor="middle" x="163" y="-686.3" font-family="Times,serif" font-size="14.00">CenterActor(column=&#39;Value&#39;).setstate.train</text>
</g>
<!-- 140346179942288&#45;&gt;140346179674704 -->
<g id="edge31" class="edge">
<title>140346179942288&#45;&gt;140346179674704</title>
<path fill="none" stroke="black" d="M361.71,-763.18C324.01,-749.49 263.69,-727.57 219.38,-711.48"/>
<polygon fill="black" stroke="black" points="220.5,-708.16 209.9,-708.04 218.11,-714.74 220.5,-708.16"/>
<text text-anchor="middle" x="300" y="-729.8" font-family="Times,serif" font-size="14.00">1</text>
</g>
<!-- 140346425024384 -->
<g id="node17" class="node">
<title>140346425024384</title>
<polygon fill="none" stroke="black" points="653,-405 357,-405 357,-369 653,-369 653,-405"/>
<text text-anchor="middle" x="505" y="-383.3" font-family="Times,serif" font-size="14.00">MinMax(column=&#39;Level&#39;).setstate.train</text>
</g>
<!-- 140346179942432&#45;&gt;140346425024384 -->
<g id="edge18" class="edge">
<title>140346179942432&#45;&gt;140346425024384</title>
<path fill="none" stroke="black" d="M638,-758.74C638,-741.57 638,-714.46 638,-691 638,-691 638,-691 638,-473 638,-442.09 612.18,-421.92 583.3,-409.02"/>
<polygon fill="black" stroke="black" points="584.41,-405.7 573.84,-405.09 581.72,-412.16 584.41,-405.7"/>
<text text-anchor="middle" x="643" y="-578.3" font-family="Times,serif" font-size="14.00">2</text>
</g>
<!-- 140346179466912 -->
<g id="node20" class="node">
<title>140346179466912</title>
<polygon fill="none" stroke="black" points="966,-210 574,-210 574,-174 966,-174 966,-210"/>
<text text-anchor="middle" x="770" y="-188.3" font-family="Times,serif" font-size="14.00">LogisticRegression(random_state=42).setstate.train</text>
</g>
<!-- 140346179942432&#45;&gt;140346179466912 -->
<g id="edge24" class="edge">
<title>140346179942432&#45;&gt;140346179466912</title>
<path fill="none" stroke="black" d="M690.24,-771.31C739.55,-763.68 806,-743.63 806,-691 806,-691 806,-691 806,-299 806,-270.65 794.31,-240.18 784.25,-219.22"/>
<polygon fill="black" stroke="black" points="787.25,-217.4 779.65,-210.03 780.99,-220.53 787.25,-217.4"/>
<text text-anchor="middle" x="811" y="-470.3" font-family="Times,serif" font-size="14.00">2</text>
</g>
<!-- 140346179733120 -->
<g id="node22" class="node">
<title>140346179733120</title>
<polygon fill="none" stroke="black" points="556,-210 402,-210 402,-174 556,-174 556,-210"/>
<text text-anchor="middle" x="479" y="-188.3" font-family="Times,serif" font-size="14.00">Captor(Value).train</text>
</g>
<!-- 140346179942432&#45;&gt;140346179733120 -->
<g id="edge26" class="edge">
<title>140346179942432&#45;&gt;140346179733120</title>
<path fill="none" stroke="black" d="M653.32,-759.52C666.7,-743.34 684,-717.34 684,-691 684,-691 684,-691 684,-299 684,-266.84 693.02,-250.46 670,-228 654.71,-213.08 600.48,-213.93 566.56,-209.89"/>
<polygon fill="black" stroke="black" points="566.74,-206.38 556.34,-208.38 565.72,-213.31 566.74,-206.38"/>
<text text-anchor="middle" x="689" y="-470.3" font-family="Times,serif" font-size="14.00">1</text>
</g>
<!-- 140346179942432&#45;&gt;140346179674704 -->
<g id="edge32" class="edge">
<title>140346179942432&#45;&gt;140346179674704</title>
<path fill="none" stroke="black" d="M603.69,-762.99C572.04,-751.5 523.49,-735.19 480,-726 464.8,-722.79 401.99,-715.67 336.25,-708.68"/>
<polygon fill="black" stroke="black" points="336.42,-705.18 326.1,-707.6 335.68,-712.14 336.42,-705.18"/>
<text text-anchor="middle" x="542" y="-729.8" font-family="Times,serif" font-size="14.00">2</text>
</g>
<!-- 140346179678384 -->
<g id="node11" class="node">
<title>140346179678384</title>
<path fill="none" stroke="black" d="M474,-492C474,-492 220,-492 220,-492 214,-492 208,-486 208,-480 208,-480 208,-468 208,-468 208,-462 214,-456 220,-456 220,-456 474,-456 474,-456 480,-456 486,-462 486,-468 486,-468 486,-480 486,-480 486,-486 480,-492 474,-492"/>
<text text-anchor="middle" x="347" y="-470.3" font-family="Times,serif" font-size="14.00">PandasConcat(axis=&#39;columns&#39;).apply</text>
</g>
<!-- 140346179674544&#45;&gt;140346179678384 -->
<g id="edge10" class="edge">
<title>140346179674544&#45;&gt;140346179678384</title>
<path fill="none" stroke="black" d="M512.45,-617.92C521.76,-602.86 531.26,-580.78 521,-564 500.45,-530.4 462.75,-508.97 427.69,-495.59"/>
<polygon fill="black" stroke="black" points="428.48,-492.15 417.89,-492.02 426.09,-498.73 428.48,-492.15"/>
<text text-anchor="middle" x="530" y="-578.3" font-family="Times,serif" font-size="14.00">0</text>
</g>
<!-- 140346179678384&#45;&gt;140346425024384 -->
<g id="edge17" class="edge">
<title>140346179678384&#45;&gt;140346425024384</title>
<path fill="none" stroke="black" d="M378.97,-455.8C403.58,-442.56 437.74,-424.18 464.3,-409.9"/>
<polygon fill="black" stroke="black" points="466.2,-412.85 473.34,-405.03 462.88,-406.69 466.2,-412.85"/>
<text text-anchor="middle" x="441" y="-426.8" font-family="Times,serif" font-size="14.00">1</text>
</g>
<!-- 140346179465952 -->
<g id="node19" class="node">
<title>140346179465952</title>
<path fill="none" stroke="black" d="M643.5,-318C643.5,-318 366.5,-318 366.5,-318 360.5,-318 354.5,-312 354.5,-306 354.5,-306 354.5,-294 354.5,-294 354.5,-288 360.5,-282 366.5,-282 366.5,-282 643.5,-282 643.5,-282 649.5,-282 655.5,-288 655.5,-294 655.5,-294 655.5,-306 655.5,-306 655.5,-312 649.5,-318 643.5,-318"/>
<text text-anchor="middle" x="505" y="-296.3" font-family="Times,serif" font-size="14.00">MinMax(column=&#39;Level&#39;).setstate.apply</text>
</g>
<!-- 140346179678384&#45;&gt;140346179465952 -->
<g id="edge20" class="edge">
<title>140346179678384&#45;&gt;140346179465952</title>
<path fill="none" stroke="black" d="M341.61,-456C335.85,-435.04 328.71,-398.57 338,-369 343.36,-351.94 346.25,-346.1 361,-336 369.12,-330.44 378.03,-325.76 387.31,-321.82"/>
<polygon fill="black" stroke="black" points="388.67,-325.05 396.7,-318.13 386.11,-318.53 388.67,-325.05"/>
<text text-anchor="middle" x="343" y="-383.3" font-family="Times,serif" font-size="14.00">1</text>
</g>
<!-- 140346179667824&#45;&gt;140346179678384 -->
<g id="edge11" class="edge">
<title>140346179667824&#45;&gt;140346179678384</title>
<path fill="none" stroke="black" d="M347,-563.97C347,-547.38 347,-521.88 347,-502.43"/>
<polygon fill="black" stroke="black" points="350.5,-502.34 347,-492.34 343.5,-502.34 350.5,-502.34"/>
<text text-anchor="middle" x="352" y="-524.3" font-family="Times,serif" font-size="14.00">1</text>
</g>
<!-- 140346179857632 -->
<g id="node13" class="node">
<title>140346179857632</title>
<path fill="none" stroke="black" d="M373,-32.73C373,-34.53 351.93,-36 326,-36 300.07,-36 279,-34.53 279,-32.73 279,-32.73 279,-3.27 279,-3.27 279,-1.47 300.07,0 326,0 351.93,0 373,-1.47 373,-3.27 373,-3.27 373,-32.73 373,-32.73"/>
<path fill="none" stroke="black" d="M373,-32.73C373,-30.92 351.93,-29.45 326,-29.45 300.07,-29.45 279,-30.92 279,-32.73"/>
<text text-anchor="middle" x="326" y="-14.3" font-family="Times,serif" font-size="14.00">Committer</text>
</g>
<!-- 140346179855568 -->
<g id="node14" class="node">
<title>140346179855568</title>
<path fill="none" stroke="black" d="M363,-260.73C363,-262.53 346.42,-264 326,-264 305.58,-264 289,-262.53 289,-260.73 289,-260.73 289,-231.27 289,-231.27 289,-229.47 305.58,-228 326,-228 346.42,-228 363,-229.47 363,-231.27 363,-231.27 363,-260.73 363,-260.73"/>
<path fill="none" stroke="black" d="M363,-260.73C363,-258.92 346.42,-257.45 326,-257.45 305.58,-257.45 289,-258.92 289,-260.73"/>
<text text-anchor="middle" x="326" y="-242.3" font-family="Times,serif" font-size="14.00">Dumper</text>
</g>
<!-- 140346179855568&#45;&gt;140346179857632 -->
<g id="edge12" class="edge">
<title>140346179855568&#45;&gt;140346179857632</title>
<path fill="none" stroke="black" stroke-dasharray="1,5" d="M326,-227.64C326,-188.52 326,-93.21 326,-46.17"/>
<polygon fill="black" stroke="black" points="329.5,-46.11 326,-36.11 322.5,-46.11 329.5,-46.11"/>
<text text-anchor="middle" x="331" y="-144.8" font-family="Times,serif" font-size="14.00">0</text>
</g>
<!-- 140346179943200 -->
<g id="node15" class="node">
<title>140346179943200</title>
<path fill="none" stroke="black" d="M605,-119.73C605,-121.53 588.42,-123 568,-123 547.58,-123 531,-121.53 531,-119.73 531,-119.73 531,-90.27 531,-90.27 531,-88.47 547.58,-87 568,-87 588.42,-87 605,-88.47 605,-90.27 605,-90.27 605,-119.73 605,-119.73"/>
<path fill="none" stroke="black" d="M605,-119.73C605,-117.92 588.42,-116.45 568,-116.45 547.58,-116.45 531,-117.92 531,-119.73"/>
<text text-anchor="middle" x="568" y="-101.3" font-family="Times,serif" font-size="14.00">Dumper</text>
</g>
<!-- 140346179943200&#45;&gt;140346179857632 -->
<g id="edge13" class="edge">
<title>140346179943200&#45;&gt;140346179857632</title>
<path fill="none" stroke="black" stroke-dasharray="1,5" d="M530.98,-91C490.81,-76.89 426.26,-54.22 380.34,-38.09"/>
<polygon fill="black" stroke="black" points="381.43,-34.76 370.84,-34.75 379.11,-41.36 381.43,-34.76"/>
<text text-anchor="middle" x="467" y="-57.8" font-family="Times,serif" font-size="14.00">1</text>
</g>
<!-- 140346179952576 -->
<g id="node16" class="node">
<title>140346179952576</title>
<path fill="none" stroke="black" d="M198,-542.73C198,-544.53 181.42,-546 161,-546 140.58,-546 124,-544.53 124,-542.73 124,-542.73 124,-513.27 124,-513.27 124,-511.47 140.58,-510 161,-510 181.42,-510 198,-511.47 198,-513.27 198,-513.27 198,-542.73 198,-542.73"/>
<path fill="none" stroke="black" d="M198,-542.73C198,-540.92 181.42,-539.45 161,-539.45 140.58,-539.45 124,-540.92 124,-542.73"/>
<text text-anchor="middle" x="161" y="-524.3" font-family="Times,serif" font-size="14.00">Dumper</text>
</g>
<!-- 140346179952576&#45;&gt;140346179857632 -->
<g id="edge14" class="edge">
<title>140346179952576&#45;&gt;140346179857632</title>
<path fill="none" stroke="black" stroke-dasharray="1,5" d="M162.74,-509.77C164.51,-490.66 167,-458.91 167,-431.5 167,-431.5 167,-431.5 167,-104 167,-56.32 223.29,-35.29 268.89,-26.07"/>
<polygon fill="black" stroke="black" points="269.54,-29.51 278.73,-24.23 268.25,-22.63 269.54,-29.51"/>
<text text-anchor="middle" x="172" y="-296.3" font-family="Times,serif" font-size="14.00">2</text>
</g>
<!-- 140346425024384&#45;&gt;140346179855568 -->
<g id="edge15" class="edge">
<title>140346425024384&#45;&gt;140346179855568</title>
<path fill="none" stroke="black" stroke-dasharray="1,5" d="M428.25,-368.91C398.49,-358.7 366.48,-342.72 345,-318 334.5,-305.91 329.72,-288.6 327.59,-274.1"/>
<polygon fill="black" stroke="black" points="331.07,-273.7 326.46,-264.16 324.11,-274.49 331.07,-273.7"/>
<text text-anchor="middle" x="392" y="-339.8" font-family="Times,serif" font-size="14.00">0</text>
</g>
<!-- 140346425024384&#45;&gt;140346179465952 -->
<g id="edge19" class="edge">
<title>140346425024384&#45;&gt;140346179465952</title>
<path fill="none" stroke="black" stroke-dasharray="1,5" d="M505,-368.8C505,-357.16 505,-341.55 505,-328.24"/>
<polygon fill="black" stroke="black" points="508.5,-328.18 505,-318.18 501.5,-328.18 508.5,-328.18"/>
<text text-anchor="middle" x="510" y="-339.8" font-family="Times,serif" font-size="14.00">0</text>
</g>
<!-- 140346179861904 -->
<g id="node18" class="node">
<title>140346179861904</title>
<path fill="none" stroke="black" d="M570,-488.73C570,-490.53 555.21,-492 537,-492 518.79,-492 504,-490.53 504,-488.73 504,-488.73 504,-459.27 504,-459.27 504,-457.47 518.79,-456 537,-456 555.21,-456 570,-457.47 570,-459.27 570,-459.27 570,-488.73 570,-488.73"/>
<path fill="none" stroke="black" d="M570,-488.73C570,-486.92 555.21,-485.45 537,-485.45 518.79,-485.45 504,-486.92 504,-488.73"/>
<text text-anchor="middle" x="537" y="-470.3" font-family="Times,serif" font-size="14.00">Loader</text>
</g>
<!-- 140346179861904&#45;&gt;140346425024384 -->
<g id="edge16" class="edge">
<title>140346179861904&#45;&gt;140346425024384</title>
<path fill="none" stroke="black" stroke-dasharray="1,5" d="M530.52,-455.8C526.1,-444.05 520.15,-428.24 515.11,-414.84"/>
<polygon fill="black" stroke="black" points="518.26,-413.3 511.47,-405.18 511.71,-415.77 518.26,-413.3"/>
<text text-anchor="middle" x="527" y="-426.8" font-family="Times,serif" font-size="14.00">0</text>
</g>
<!-- 140346179465952&#45;&gt;140346179466912 -->
<g id="edge23" class="edge">
<title>140346179465952&#45;&gt;140346179466912</title>
<path fill="none" stroke="black" d="M547.58,-281.97C593.9,-263.44 667.98,-233.81 717.78,-213.89"/>
<polygon fill="black" stroke="black" points="719.1,-217.13 727.09,-210.16 716.5,-210.63 719.1,-217.13"/>
<text text-anchor="middle" x="681" y="-242.3" font-family="Times,serif" font-size="14.00">1</text>
</g>
<!-- 140346179465952&#45;&gt;140346179733120 -->
<g id="edge25" class="edge">
<title>140346179465952&#45;&gt;140346179733120</title>
<path fill="none" stroke="black" d="M500.82,-281.97C496.73,-265.3 490.44,-239.65 485.66,-220.16"/>
<polygon fill="black" stroke="black" points="489.03,-219.22 483.25,-210.34 482.24,-220.89 489.03,-219.22"/>
<text text-anchor="middle" x="501" y="-242.3" font-family="Times,serif" font-size="14.00">0</text>
</g>
<!-- 140346179466912&#45;&gt;140346179943200 -->
<g id="edge21" class="edge">
<title>140346179466912&#45;&gt;140346179943200</title>
<path fill="none" stroke="black" stroke-dasharray="1,5" d="M729.12,-173.8C695.93,-159.83 649.11,-140.13 614.5,-125.56"/>
<polygon fill="black" stroke="black" points="615.65,-122.25 605.08,-121.6 612.94,-128.71 615.65,-122.25"/>
<text text-anchor="middle" x="686" y="-144.8" font-family="Times,serif" font-size="14.00">0</text>
</g>
<!-- 140346179943248 -->
<g id="node21" class="node">
<title>140346179943248</title>
<path fill="none" stroke="black" d="M778,-314.73C778,-316.53 763.21,-318 745,-318 726.79,-318 712,-316.53 712,-314.73 712,-314.73 712,-285.27 712,-285.27 712,-283.47 726.79,-282 745,-282 763.21,-282 778,-283.47 778,-285.27 778,-285.27 778,-314.73 778,-314.73"/>
<path fill="none" stroke="black" d="M778,-314.73C778,-312.92 763.21,-311.45 745,-311.45 726.79,-311.45 712,-312.92 712,-314.73"/>
<text text-anchor="middle" x="745" y="-296.3" font-family="Times,serif" font-size="14.00">Loader</text>
</g>
<!-- 140346179943248&#45;&gt;140346179466912 -->
<g id="edge22" class="edge">
<title>140346179943248&#45;&gt;140346179466912</title>
<path fill="none" stroke="black" stroke-dasharray="1,5" d="M749.02,-281.97C752.95,-265.3 759,-239.65 763.59,-220.16"/>
<polygon fill="black" stroke="black" points="767.02,-220.88 765.91,-210.34 760.21,-219.27 767.02,-220.88"/>
<text text-anchor="middle" x="766" y="-242.3" font-family="Times,serif" font-size="14.00">0</text>
</g>
<!-- 140346179674704&#45;&gt;140346179667824 -->
<g id="edge27" class="edge">
<title>140346179674704&#45;&gt;140346179667824</title>
<path fill="none" stroke="black" stroke-dasharray="1,5" d="M192.56,-671.97C223.99,-653.86 273.82,-625.16 308.34,-605.27"/>
<polygon fill="black" stroke="black" points="310.29,-608.19 317.21,-600.16 306.79,-602.12 310.29,-608.19"/>
<text text-anchor="middle" x="288" y="-632.3" font-family="Times,serif" font-size="14.00">0</text>
</g>
<!-- 140346179674704&#45;&gt;140346179952576 -->
<g id="edge29" class="edge">
<title>140346179674704&#45;&gt;140346179952576</title>
<path fill="none" stroke="black" stroke-dasharray="1,5" d="M162.79,-671.88C162.44,-644.35 161.76,-590.01 161.35,-556.85"/>
<polygon fill="black" stroke="black" points="164.84,-556.44 161.22,-546.48 157.84,-556.53 164.84,-556.44"/>
<text text-anchor="middle" x="168" y="-632.3" font-family="Times,serif" font-size="14.00">0</text>
</g>
<!-- 140346179951280 -->
<g id="node24" class="node">
<title>140346179951280</title>
<path fill="none" stroke="black" d="M196,-791.73C196,-793.53 181.21,-795 163,-795 144.79,-795 130,-793.53 130,-791.73 130,-791.73 130,-762.27 130,-762.27 130,-760.47 144.79,-759 163,-759 181.21,-759 196,-760.47 196,-762.27 196,-762.27 196,-791.73 196,-791.73"/>
<path fill="none" stroke="black" d="M196,-791.73C196,-789.92 181.21,-788.45 163,-788.45 144.79,-788.45 130,-789.92 130,-791.73"/>
<text text-anchor="middle" x="163" y="-773.3" font-family="Times,serif" font-size="14.00">Loader</text>
</g>
<!-- 140346179951280&#45;&gt;140346179674704 -->
<g id="edge30" class="edge">
<title>140346179951280&#45;&gt;140346179674704</title>
<path fill="none" stroke="black" stroke-dasharray="1,5" d="M163,-758.8C163,-747.16 163,-731.55 163,-718.24"/>
<polygon fill="black" stroke="black" points="166.5,-718.18 163,-708.18 159.5,-718.18 166.5,-718.18"/>
<text text-anchor="middle" x="168" y="-729.8" font-family="Times,serif" font-size="14.00">0</text>
</g>
</g>
</svg>
