<?xml version="1.0" encoding="UTF-8" standalone="no"?>
<!DOCTYPE svg PUBLIC "-//W3C//DTD SVG 1.1//EN"
 "http://www.w3.org/Graphics/SVG/1.1/DTD/svg11.dtd">
<!-- Generated by graphviz version 2.43.0 (0)
 -->
<!-- Title: %3 Pages: 1 -->
<svg width="3844pt" height="827pt"
 viewBox="0.00 0.00 3843.50 827.00" xmlns="http://www.w3.org/2000/svg" xmlns:xlink="http://www.w3.org/1999/xlink">
<g id="graph0" class="graph" transform="scale(1 1) rotate(0) translate(4 823)">
<title>%3</title>
<!-- 140158789350512 -->
<g id="node1" class="node">
<title>140158789350512</title>
<path fill="none" stroke="black" d="M3823.5,-819C3823.5,-819 370.5,-819 370.5,-819 364.5,-819 358.5,-813 358.5,-807 358.5,-807 358.5,-795 358.5,-795 358.5,-789 364.5,-783 370.5,-783 370.5,-783 3823.5,-783 3823.5,-783 3829.5,-783 3835.5,-789 3835.5,-795 3835.5,-795 3835.5,-807 3835.5,-807 3835.5,-813 3829.5,-819 3823.5,-819"/>
<text text-anchor="middle" x="2097" y="-797.3" font-family="Times,serif" font-size="14.00">RowDriver(Reader(con=LazyReaderBackend), Statement(Avazu[Avazu.hour, Avazu.C1, Avazu.banner_pos, Avazu.site_id, Avazu.site_domain, Avazu.site_category, Avazu.app_id, Avazu.app_domain, Avazu.app_category, Avazu.device_model, Avazu.device_type, Avazu.device_conn_type, Avazu.C14, Avazu.C15, Avazu.C16, Avazu.C17, Avazu.C18, Avazu.C19, Avazu.C20, Avazu.C21].orderby(Avazu.hour&lt;ascending&gt;)[0:500000], ordinal=Ordinal(column=Avazu.hour, once=exactly))).apply</text>
</g>
<!-- 140158789351232 -->
<g id="node2" class="node">
<title>140158789351232</title>
<path fill="none" stroke="black" d="M2149,-732C2149,-732 2045,-732 2045,-732 2039,-732 2033,-726 2033,-720 2033,-720 2033,-708 2033,-708 2033,-702 2039,-696 2045,-696 2045,-696 2149,-696 2149,-696 2155,-696 2161,-702 2161,-708 2161,-708 2161,-720 2161,-720 2161,-726 2155,-732 2149,-732"/>
<text text-anchor="middle" x="2097" y="-710.3" font-family="Times,serif" font-size="14.00">ToPandas.apply</text>
</g>
<!-- 140158789350512&#45;&gt;140158789351232 -->
<g id="edge1" class="edge">
<title>140158789350512&#45;&gt;140158789351232</title>
<path fill="none" stroke="black" d="M2097,-782.8C2097,-771.16 2097,-755.55 2097,-742.24"/>
<polygon fill="black" stroke="black" points="2100.5,-742.18 2097,-732.18 2093.5,-742.18 2100.5,-742.18"/>
<text text-anchor="middle" x="2102" y="-753.8" font-family="Times,serif" font-size="14.00">0</text>
</g>
<!-- 140158790175776 -->
<g id="node3" class="node">
<title>140158790175776</title>
<path fill="none" stroke="black" d="M2166,-645C2166,-645 2028,-645 2028,-645 2022,-645 2016,-639 2016,-633 2016,-633 2016,-621 2016,-621 2016,-615 2022,-609 2028,-609 2028,-609 2166,-609 2166,-609 2172,-609 2178,-615 2178,-621 2178,-621 2178,-633 2178,-633 2178,-639 2172,-645 2166,-645"/>
<text text-anchor="middle" x="2097" y="-623.3" font-family="Times,serif" font-size="14.00">TimeExtractor.apply</text>
</g>
<!-- 140158789351232&#45;&gt;140158790175776 -->
<g id="edge2" class="edge">
<title>140158789351232&#45;&gt;140158790175776</title>
<path fill="none" stroke="black" d="M2097,-695.8C2097,-684.16 2097,-668.55 2097,-655.24"/>
<polygon fill="black" stroke="black" points="2100.5,-655.18 2097,-645.18 2093.5,-655.18 2100.5,-655.18"/>
<text text-anchor="middle" x="2102" y="-666.8" font-family="Times,serif" font-size="14.00">0</text>
</g>
<!-- 140157868373824 -->
<g id="node5" class="node">
<title>140157868373824</title>
<path fill="none" stroke="black" d="M3454,-558C3454,-558 1796,-558 1796,-558 1790,-558 1784,-552 1784,-546 1784,-546 1784,-534 1784,-534 1784,-528 1790,-522 1796,-522 1796,-522 3454,-522 3454,-522 3460,-522 3466,-528 3466,-534 3466,-534 3466,-546 3466,-546 3466,-552 3460,-558 3454,-558"/>
<text text-anchor="middle" x="2625" y="-536.3" font-family="Times,serif" font-size="14.00">TargetEncoder(cols=[&#39;C1&#39;, &#39;banner_pos&#39;, &#39;site_id&#39;, &#39;site_domain&#39;, &#39;site_category&#39;, &#39;app_id&#39;, &#39;app_domain&#39;, &#39;app_category&#39;, &#39;device_model&#39;, &#39;device_type&#39;, &#39;device_conn_type&#39;, &#39;C14&#39;, &#39;C15&#39;, &#39;C16&#39;, &#39;C17&#39;, &#39;C18&#39;, &#39;C19&#39;, &#39;C20&#39;, &#39;C21&#39;]).setstate.apply</text>
</g>
<!-- 140158790175776&#45;&gt;140157868373824 -->
<g id="edge4" class="edge">
<title>140158790175776&#45;&gt;140157868373824</title>
<path fill="none" stroke="black" d="M2178.05,-612.95C2266.51,-598.71 2408.87,-575.79 2509.12,-559.66"/>
<polygon fill="black" stroke="black" points="2509.97,-563.06 2519.29,-558.02 2508.86,-556.15 2509.97,-563.06"/>
<text text-anchor="middle" x="2398" y="-579.8" font-family="Times,serif" font-size="14.00">1</text>
</g>
<!-- 140158790179776 -->
<g id="node21" class="node">
<title>140158790179776</title>
<path fill="none" stroke="black" d="M1670,-558C1670,-558 12,-558 12,-558 6,-558 0,-552 0,-546 0,-546 0,-534 0,-534 0,-528 6,-522 12,-522 12,-522 1670,-522 1670,-522 1676,-522 1682,-528 1682,-534 1682,-534 1682,-546 1682,-546 1682,-552 1676,-558 1670,-558"/>
<text text-anchor="middle" x="841" y="-536.3" font-family="Times,serif" font-size="14.00">TargetEncoder(cols=[&#39;C1&#39;, &#39;banner_pos&#39;, &#39;site_id&#39;, &#39;site_domain&#39;, &#39;site_category&#39;, &#39;app_id&#39;, &#39;app_domain&#39;, &#39;app_category&#39;, &#39;device_model&#39;, &#39;device_type&#39;, &#39;device_conn_type&#39;, &#39;C14&#39;, &#39;C15&#39;, &#39;C16&#39;, &#39;C17&#39;, &#39;C18&#39;, &#39;C19&#39;, &#39;C20&#39;, &#39;C21&#39;]).setstate.apply</text>
</g>
<!-- 140158790175776&#45;&gt;140158790179776 -->
<g id="edge21" class="edge">
<title>140158790175776&#45;&gt;140158790179776</title>
<path fill="none" stroke="black" d="M2015.56,-620.49C1834.04,-608.2 1389.7,-578.13 1102.56,-558.7"/>
<polygon fill="black" stroke="black" points="1102.63,-555.2 1092.42,-558.01 1102.16,-562.18 1102.63,-555.2"/>
<text text-anchor="middle" x="1550" y="-579.8" font-family="Times,serif" font-size="14.00">1</text>
</g>
<!-- 140158791420176 -->
<g id="node4" class="node">
<title>140158791420176</title>
<path fill="none" stroke="black" d="M2658,-641.73C2658,-643.53 2643.21,-645 2625,-645 2606.79,-645 2592,-643.53 2592,-641.73 2592,-641.73 2592,-612.27 2592,-612.27 2592,-610.47 2606.79,-609 2625,-609 2643.21,-609 2658,-610.47 2658,-612.27 2658,-612.27 2658,-641.73 2658,-641.73"/>
<path fill="none" stroke="black" d="M2658,-641.73C2658,-639.92 2643.21,-638.45 2625,-638.45 2606.79,-638.45 2592,-639.92 2592,-641.73"/>
<text text-anchor="middle" x="2625" y="-623.3" font-family="Times,serif" font-size="14.00">Loader</text>
</g>
<!-- 140158791420176&#45;&gt;140157868373824 -->
<g id="edge3" class="edge">
<title>140158791420176&#45;&gt;140157868373824</title>
<path fill="none" stroke="black" stroke-dasharray="1,5" d="M2625,-608.8C2625,-597.16 2625,-581.55 2625,-568.24"/>
<polygon fill="black" stroke="black" points="2628.5,-568.18 2625,-558.18 2621.5,-568.18 2628.5,-568.18"/>
<text text-anchor="middle" x="2630" y="-579.8" font-family="Times,serif" font-size="14.00">0</text>
</g>
<!-- 140157669933760 -->
<g id="node7" class="node">
<title>140157669933760</title>
<path fill="none" stroke="black" d="M2776,-471C2776,-471 2576,-471 2576,-471 2570,-471 2564,-465 2564,-459 2564,-459 2564,-447 2564,-447 2564,-441 2570,-435 2576,-435 2576,-435 2776,-435 2776,-435 2782,-435 2788,-441 2788,-447 2788,-447 2788,-459 2788,-459 2788,-465 2782,-471 2776,-471"/>
<text text-anchor="middle" x="2676" y="-449.3" font-family="Times,serif" font-size="14.00">MinMaxScaler.setstate.apply</text>
</g>
<!-- 140157868373824&#45;&gt;140157669933760 -->
<g id="edge6" class="edge">
<title>140157868373824&#45;&gt;140157669933760</title>
<path fill="none" stroke="black" d="M2635.32,-521.8C2642.51,-509.82 2652.23,-493.62 2660.37,-480.06"/>
<polygon fill="black" stroke="black" points="2663.55,-481.55 2665.69,-471.18 2657.55,-477.95 2663.55,-481.55"/>
<text text-anchor="middle" x="2658" y="-492.8" font-family="Times,serif" font-size="14.00">1</text>
</g>
<!-- 140158791420896 -->
<g id="node6" class="node">
<title>140158791420896</title>
<path fill="none" stroke="black" d="M3550,-554.73C3550,-556.53 3535.21,-558 3517,-558 3498.79,-558 3484,-556.53 3484,-554.73 3484,-554.73 3484,-525.27 3484,-525.27 3484,-523.47 3498.79,-522 3517,-522 3535.21,-522 3550,-523.47 3550,-525.27 3550,-525.27 3550,-554.73 3550,-554.73"/>
<path fill="none" stroke="black" d="M3550,-554.73C3550,-552.92 3535.21,-551.45 3517,-551.45 3498.79,-551.45 3484,-552.92 3484,-554.73"/>
<text text-anchor="middle" x="3517" y="-536.3" font-family="Times,serif" font-size="14.00">Loader</text>
</g>
<!-- 140158791420896&#45;&gt;140157669933760 -->
<g id="edge5" class="edge">
<title>140158791420896&#45;&gt;140157669933760</title>
<path fill="none" stroke="black" stroke-dasharray="1,5" d="M3483.83,-524.5C3480.88,-523.54 3477.91,-522.68 3475,-522 3185.12,-454 3103.19,-501.5 2807,-471 2804.11,-470.7 2801.19,-470.39 2798.24,-470.07"/>
<polygon fill="black" stroke="black" points="2798.48,-466.58 2788.15,-468.95 2797.7,-473.53 2798.48,-466.58"/>
<text text-anchor="middle" x="3383" y="-492.8" font-family="Times,serif" font-size="14.00">0</text>
</g>
<!-- 140157669934640 -->
<g id="node9" class="node">
<title>140157669934640</title>
<path fill="none" stroke="black" d="M2603.5,-384C2603.5,-384 2174.5,-384 2174.5,-384 2168.5,-384 2162.5,-378 2162.5,-372 2162.5,-372 2162.5,-360 2162.5,-360 2162.5,-354 2168.5,-348 2174.5,-348 2174.5,-348 2603.5,-348 2603.5,-348 2609.5,-348 2615.5,-354 2615.5,-360 2615.5,-360 2615.5,-372 2615.5,-372 2615.5,-378 2609.5,-384 2603.5,-384"/>
<text text-anchor="middle" x="2389" y="-362.3" font-family="Times,serif" font-size="14.00">GradientBoostingClassifier(random_state=42).setstate.apply</text>
</g>
<!-- 140157669933760&#45;&gt;140157669934640 -->
<g id="edge8" class="edge">
<title>140157669933760&#45;&gt;140157669934640</title>
<path fill="none" stroke="black" d="M2618.27,-434.9C2571.46,-421.04 2505.43,-401.48 2456.24,-386.92"/>
<polygon fill="black" stroke="black" points="2457.22,-383.56 2446.64,-384.07 2455.24,-390.27 2457.22,-383.56"/>
<text text-anchor="middle" x="2554" y="-405.8" font-family="Times,serif" font-size="14.00">1</text>
</g>
<!-- 140157669934800 -->
<g id="node18" class="node">
<title>140157669934800</title>
<path fill="none" stroke="black" d="M3052.5,-384C3052.5,-384 2645.5,-384 2645.5,-384 2639.5,-384 2633.5,-378 2633.5,-372 2633.5,-372 2633.5,-360 2633.5,-360 2633.5,-354 2639.5,-348 2645.5,-348 2645.5,-348 3052.5,-348 3052.5,-348 3058.5,-348 3064.5,-354 3064.5,-360 3064.5,-360 3064.5,-372 3064.5,-372 3064.5,-378 3058.5,-384 3052.5,-384"/>
<text text-anchor="middle" x="2849" y="-362.3" font-family="Times,serif" font-size="14.00">RandomForestClassifier(random_state=42).setstate.apply</text>
</g>
<!-- 140157669933760&#45;&gt;140157669934800 -->
<g id="edge17" class="edge">
<title>140157669933760&#45;&gt;140157669934800</title>
<path fill="none" stroke="black" d="M2711.01,-434.8C2738.18,-421.45 2776.01,-402.86 2805.19,-388.52"/>
<polygon fill="black" stroke="black" points="2806.91,-391.58 2814.34,-384.03 2803.82,-385.3 2806.91,-391.58"/>
<text text-anchor="middle" x="2777" y="-405.8" font-family="Times,serif" font-size="14.00">1</text>
</g>
<!-- 140158791421520 -->
<g id="node8" class="node">
<title>140158791421520</title>
<path fill="none" stroke="black" d="M2150,-467.73C2150,-469.53 2135.21,-471 2117,-471 2098.79,-471 2084,-469.53 2084,-467.73 2084,-467.73 2084,-438.27 2084,-438.27 2084,-436.47 2098.79,-435 2117,-435 2135.21,-435 2150,-436.47 2150,-438.27 2150,-438.27 2150,-467.73 2150,-467.73"/>
<path fill="none" stroke="black" d="M2150,-467.73C2150,-465.92 2135.21,-464.45 2117,-464.45 2098.79,-464.45 2084,-465.92 2084,-467.73"/>
<text text-anchor="middle" x="2117" y="-449.3" font-family="Times,serif" font-size="14.00">Loader</text>
</g>
<!-- 140158791421520&#45;&gt;140157669934640 -->
<g id="edge7" class="edge">
<title>140158791421520&#45;&gt;140157669934640</title>
<path fill="none" stroke="black" stroke-dasharray="1,5" d="M2130.1,-434.83C2139.63,-423.63 2153.53,-409.7 2169,-402 2180.8,-396.13 2193.35,-391.2 2206.24,-387.07"/>
<polygon fill="black" stroke="black" points="2207.61,-390.31 2216.17,-384.06 2205.58,-383.61 2207.61,-390.31"/>
<text text-anchor="middle" x="2174" y="-405.8" font-family="Times,serif" font-size="14.00">0</text>
</g>
<!-- 140157669934560 -->
<g id="node10" class="node">
<title>140157669934560</title>
<path fill="none" stroke="black" d="M2111,-297C2111,-297 1857,-297 1857,-297 1851,-297 1845,-291 1845,-285 1845,-285 1845,-273 1845,-273 1845,-267 1851,-261 1857,-261 1857,-261 2111,-261 2111,-261 2117,-261 2123,-267 2123,-273 2123,-273 2123,-285 2123,-285 2123,-291 2117,-297 2111,-297"/>
<text text-anchor="middle" x="1984" y="-275.3" font-family="Times,serif" font-size="14.00">Apply(function=pandas_mean).apply</text>
</g>
<!-- 140157669934640&#45;&gt;140157669934560 -->
<g id="edge9" class="edge">
<title>140157669934640&#45;&gt;140157669934560</title>
<path fill="none" stroke="black" d="M2307.53,-347.9C2240.38,-333.81 2145.19,-313.83 2075.44,-299.19"/>
<polygon fill="black" stroke="black" points="2075.85,-295.7 2065.34,-297.07 2074.41,-302.55 2075.85,-295.7"/>
<text text-anchor="middle" x="2216" y="-318.8" font-family="Times,serif" font-size="14.00">0</text>
</g>
<!-- 140157669934480 -->
<g id="node12" class="node">
<title>140157669934480</title>
<path fill="none" stroke="black" d="M2333,-210C2333,-210 1929,-210 1929,-210 1923,-210 1917,-204 1917,-198 1917,-198 1917,-186 1917,-186 1917,-180 1923,-174 1929,-174 1929,-174 2333,-174 2333,-174 2339,-174 2345,-180 2345,-186 2345,-186 2345,-198 2345,-198 2345,-204 2339,-210 2333,-210"/>
<text text-anchor="middle" x="2131" y="-188.3" font-family="Times,serif" font-size="14.00">PandasConcat(axis=&#39;columns&#39;, ignore_index=False).apply</text>
</g>
<!-- 140157669934560&#45;&gt;140157669934480 -->
<g id="edge11" class="edge">
<title>140157669934560&#45;&gt;140157669934480</title>
<path fill="none" stroke="black" d="M2013.75,-260.8C2036.46,-247.66 2067.94,-229.46 2092.56,-215.22"/>
<polygon fill="black" stroke="black" points="2094.39,-218.21 2101.3,-210.18 2090.89,-212.15 2094.39,-218.21"/>
<text text-anchor="middle" x="2072" y="-231.8" font-family="Times,serif" font-size="14.00">0</text>
</g>
<!-- 140157669938400 -->
<g id="node11" class="node">
<title>140157669938400</title>
<path fill="none" stroke="black" d="M1683.5,-384C1683.5,-384 1254.5,-384 1254.5,-384 1248.5,-384 1242.5,-378 1242.5,-372 1242.5,-372 1242.5,-360 1242.5,-360 1242.5,-354 1248.5,-348 1254.5,-348 1254.5,-348 1683.5,-348 1683.5,-348 1689.5,-348 1695.5,-354 1695.5,-360 1695.5,-360 1695.5,-372 1695.5,-372 1695.5,-378 1689.5,-384 1683.5,-384"/>
<text text-anchor="middle" x="1469" y="-362.3" font-family="Times,serif" font-size="14.00">GradientBoostingClassifier(random_state=42).setstate.apply</text>
</g>
<!-- 140157669938400&#45;&gt;140157669934560 -->
<g id="edge10" class="edge">
<title>140157669938400&#45;&gt;140157669934560</title>
<path fill="none" stroke="black" d="M1572.29,-347.95C1658.75,-333.68 1781.94,-313.35 1871.01,-298.65"/>
<polygon fill="black" stroke="black" points="1871.59,-302.1 1880.88,-297.02 1870.45,-295.19 1871.59,-302.1"/>
<text text-anchor="middle" x="1763" y="-318.8" font-family="Times,serif" font-size="14.00">1</text>
</g>
<!-- 140157669934720 -->
<g id="node15" class="node">
<title>140157669934720</title>
<path fill="none" stroke="black" d="M2576.5,-123C2576.5,-123 1949.5,-123 1949.5,-123 1943.5,-123 1937.5,-117 1937.5,-111 1937.5,-111 1937.5,-99 1937.5,-99 1937.5,-93 1943.5,-87 1949.5,-87 1949.5,-87 2576.5,-87 2576.5,-87 2582.5,-87 2588.5,-93 2588.5,-99 2588.5,-99 2588.5,-111 2588.5,-111 2588.5,-117 2582.5,-123 2576.5,-123"/>
<text text-anchor="middle" x="2263" y="-101.3" font-family="Times,serif" font-size="14.00">LogisticRegression(warm_start=True, max_iter=1000, random_state=42).setstate.apply</text>
</g>
<!-- 140157669934480&#45;&gt;140157669934720 -->
<g id="edge14" class="edge">
<title>140157669934480&#45;&gt;140157669934720</title>
<path fill="none" stroke="black" d="M2157.71,-173.8C2177.93,-160.78 2205.88,-142.78 2227.9,-128.6"/>
<polygon fill="black" stroke="black" points="2229.81,-131.53 2236.33,-123.18 2226.02,-125.65 2229.81,-131.53"/>
<text text-anchor="middle" x="2210" y="-144.8" font-family="Times,serif" font-size="14.00">1</text>
</g>
<!-- 140157669936800 -->
<g id="node13" class="node">
<title>140157669936800</title>
<path fill="none" stroke="black" d="M2407,-297C2407,-297 2153,-297 2153,-297 2147,-297 2141,-291 2141,-285 2141,-285 2141,-273 2141,-273 2141,-267 2147,-261 2153,-261 2153,-261 2407,-261 2407,-261 2413,-261 2419,-267 2419,-273 2419,-273 2419,-285 2419,-285 2419,-291 2413,-297 2407,-297"/>
<text text-anchor="middle" x="2280" y="-275.3" font-family="Times,serif" font-size="14.00">Apply(function=pandas_mean).apply</text>
</g>
<!-- 140157669936800&#45;&gt;140157669934480 -->
<g id="edge12" class="edge">
<title>140157669936800&#45;&gt;140157669934480</title>
<path fill="none" stroke="black" d="M2249.85,-260.8C2226.75,-247.62 2194.71,-229.34 2169.71,-215.08"/>
<polygon fill="black" stroke="black" points="2171.27,-211.95 2160.85,-210.03 2167.8,-218.03 2171.27,-211.95"/>
<text text-anchor="middle" x="2220" y="-231.8" font-family="Times,serif" font-size="14.00">1</text>
</g>
<!-- 140158791423296 -->
<g id="node14" class="node">
<title>140158791423296</title>
<path fill="none" stroke="black" d="M2429,-206.73C2429,-208.53 2414.21,-210 2396,-210 2377.79,-210 2363,-208.53 2363,-206.73 2363,-206.73 2363,-177.27 2363,-177.27 2363,-175.47 2377.79,-174 2396,-174 2414.21,-174 2429,-175.47 2429,-177.27 2429,-177.27 2429,-206.73 2429,-206.73"/>
<path fill="none" stroke="black" d="M2429,-206.73C2429,-204.92 2414.21,-203.45 2396,-203.45 2377.79,-203.45 2363,-204.92 2363,-206.73"/>
<text text-anchor="middle" x="2396" y="-188.3" font-family="Times,serif" font-size="14.00">Loader</text>
</g>
<!-- 140158791423296&#45;&gt;140157669934720 -->
<g id="edge13" class="edge">
<title>140158791423296&#45;&gt;140157669934720</title>
<path fill="none" stroke="black" stroke-dasharray="1,5" d="M2370.36,-174.61C2349.96,-161.58 2321.21,-143.2 2298.58,-128.74"/>
<polygon fill="black" stroke="black" points="2300.25,-125.65 2289.93,-123.21 2296.48,-131.55 2300.25,-125.65"/>
<text text-anchor="middle" x="2343" y="-144.8" font-family="Times,serif" font-size="14.00">0</text>
</g>
<!-- 140157669934880 -->
<g id="node16" class="node">
<title>140157669934880</title>
<path fill="none" stroke="black" d="M2332,-36C2332,-36 2194,-36 2194,-36 2188,-36 2182,-30 2182,-24 2182,-24 2182,-12 2182,-12 2182,-6 2188,0 2194,0 2194,0 2332,0 2332,0 2338,0 2344,-6 2344,-12 2344,-12 2344,-24 2344,-24 2344,-30 2338,-36 2332,-36"/>
<text text-anchor="middle" x="2263" y="-14.3" font-family="Times,serif" font-size="14.00">Driver(Writer).apply</text>
</g>
<!-- 140157669934720&#45;&gt;140157669934880 -->
<g id="edge15" class="edge">
<title>140157669934720&#45;&gt;140157669934880</title>
<path fill="none" stroke="black" d="M2263,-86.8C2263,-75.16 2263,-59.55 2263,-46.24"/>
<polygon fill="black" stroke="black" points="2266.5,-46.18 2263,-36.18 2259.5,-46.18 2266.5,-46.18"/>
<text text-anchor="middle" x="2268" y="-57.8" font-family="Times,serif" font-size="14.00">0</text>
</g>
<!-- 140158791422000 -->
<g id="node17" class="node">
<title>140158791422000</title>
<path fill="none" stroke="black" d="M2882,-467.73C2882,-469.53 2867.21,-471 2849,-471 2830.79,-471 2816,-469.53 2816,-467.73 2816,-467.73 2816,-438.27 2816,-438.27 2816,-436.47 2830.79,-435 2849,-435 2867.21,-435 2882,-436.47 2882,-438.27 2882,-438.27 2882,-467.73 2882,-467.73"/>
<path fill="none" stroke="black" d="M2882,-467.73C2882,-465.92 2867.21,-464.45 2849,-464.45 2830.79,-464.45 2816,-465.92 2816,-467.73"/>
<text text-anchor="middle" x="2849" y="-449.3" font-family="Times,serif" font-size="14.00">Loader</text>
</g>
<!-- 140158791422000&#45;&gt;140157669934800 -->
<g id="edge16" class="edge">
<title>140158791422000&#45;&gt;140157669934800</title>
<path fill="none" stroke="black" stroke-dasharray="1,5" d="M2849,-434.8C2849,-423.16 2849,-407.55 2849,-394.24"/>
<polygon fill="black" stroke="black" points="2852.5,-394.18 2849,-384.18 2845.5,-394.18 2852.5,-394.18"/>
<text text-anchor="middle" x="2854" y="-405.8" font-family="Times,serif" font-size="14.00">0</text>
</g>
<!-- 140157669934800&#45;&gt;140157669936800 -->
<g id="edge18" class="edge">
<title>140157669934800&#45;&gt;140157669936800</title>
<path fill="none" stroke="black" d="M2734.88,-347.95C2639.06,-333.64 2502.42,-313.23 2403.94,-298.51"/>
<polygon fill="black" stroke="black" points="2404.34,-295.04 2393.93,-297.02 2403.3,-301.96 2404.34,-295.04"/>
<text text-anchor="middle" x="2603" y="-318.8" font-family="Times,serif" font-size="14.00">0</text>
</g>
<!-- 140157669938160 -->
<g id="node19" class="node">
<title>140157669938160</title>
<path fill="none" stroke="black" d="M2132.5,-384C2132.5,-384 1725.5,-384 1725.5,-384 1719.5,-384 1713.5,-378 1713.5,-372 1713.5,-372 1713.5,-360 1713.5,-360 1713.5,-354 1719.5,-348 1725.5,-348 1725.5,-348 2132.5,-348 2132.5,-348 2138.5,-348 2144.5,-354 2144.5,-360 2144.5,-360 2144.5,-372 2144.5,-372 2144.5,-378 2138.5,-384 2132.5,-384"/>
<text text-anchor="middle" x="1929" y="-362.3" font-family="Times,serif" font-size="14.00">RandomForestClassifier(random_state=42).setstate.apply</text>
</g>
<!-- 140157669938160&#45;&gt;140157669936800 -->
<g id="edge19" class="edge">
<title>140157669938160&#45;&gt;140157669936800</title>
<path fill="none" stroke="black" d="M1999.61,-347.9C2057.45,-333.89 2139.29,-314.07 2199.63,-299.46"/>
<polygon fill="black" stroke="black" points="2200.61,-302.83 2209.5,-297.07 2198.96,-296.02 2200.61,-302.83"/>
<text text-anchor="middle" x="2131" y="-318.8" font-family="Times,serif" font-size="14.00">1</text>
</g>
<!-- 140158791420656 -->
<g id="node20" class="node">
<title>140158791420656</title>
<path fill="none" stroke="black" d="M874,-641.73C874,-643.53 859.21,-645 841,-645 822.79,-645 808,-643.53 808,-641.73 808,-641.73 808,-612.27 808,-612.27 808,-610.47 822.79,-609 841,-609 859.21,-609 874,-610.47 874,-612.27 874,-612.27 874,-641.73 874,-641.73"/>
<path fill="none" stroke="black" d="M874,-641.73C874,-639.92 859.21,-638.45 841,-638.45 822.79,-638.45 808,-639.92 808,-641.73"/>
<text text-anchor="middle" x="841" y="-623.3" font-family="Times,serif" font-size="14.00">Loader</text>
</g>
<!-- 140158791420656&#45;&gt;140158790179776 -->
<g id="edge20" class="edge">
<title>140158791420656&#45;&gt;140158790179776</title>
<path fill="none" stroke="black" stroke-dasharray="1,5" d="M841,-608.8C841,-597.16 841,-581.55 841,-568.24"/>
<polygon fill="black" stroke="black" points="844.5,-568.18 841,-558.18 837.5,-568.18 844.5,-568.18"/>
<text text-anchor="middle" x="846" y="-579.8" font-family="Times,serif" font-size="14.00">0</text>
</g>
<!-- 140157669934320 -->
<g id="node23" class="node">
<title>140157669934320</title>
<path fill="none" stroke="black" d="M1752,-471C1752,-471 1552,-471 1552,-471 1546,-471 1540,-465 1540,-459 1540,-459 1540,-447 1540,-447 1540,-441 1546,-435 1552,-435 1552,-435 1752,-435 1752,-435 1758,-435 1764,-441 1764,-447 1764,-447 1764,-459 1764,-459 1764,-465 1758,-471 1752,-471"/>
<text text-anchor="middle" x="1652" y="-449.3" font-family="Times,serif" font-size="14.00">MinMaxScaler.setstate.apply</text>
</g>
<!-- 140158790179776&#45;&gt;140157669934320 -->
<g id="edge23" class="edge">
<title>140158790179776&#45;&gt;140157669934320</title>
<path fill="none" stroke="black" d="M1017.78,-521.97C1152.92,-508.74 1343.81,-489.56 1511,-471 1517.11,-470.32 1523.37,-469.61 1529.69,-468.89"/>
<polygon fill="black" stroke="black" points="1530.12,-472.36 1539.66,-467.74 1529.32,-465.41 1530.12,-472.36"/>
<text text-anchor="middle" x="1333" y="-492.8" font-family="Times,serif" font-size="14.00">1</text>
</g>
<!-- 140158791424256 -->
<g id="node22" class="node">
<title>140158791424256</title>
<path fill="none" stroke="black" d="M1766,-554.73C1766,-556.53 1751.21,-558 1733,-558 1714.79,-558 1700,-556.53 1700,-554.73 1700,-554.73 1700,-525.27 1700,-525.27 1700,-523.47 1714.79,-522 1733,-522 1751.21,-522 1766,-523.47 1766,-525.27 1766,-525.27 1766,-554.73 1766,-554.73"/>
<path fill="none" stroke="black" d="M1766,-554.73C1766,-552.92 1751.21,-551.45 1733,-551.45 1714.79,-551.45 1700,-552.92 1700,-554.73"/>
<text text-anchor="middle" x="1733" y="-536.3" font-family="Times,serif" font-size="14.00">Loader</text>
</g>
<!-- 140158791424256&#45;&gt;140157669934320 -->
<g id="edge22" class="edge">
<title>140158791424256&#45;&gt;140157669934320</title>
<path fill="none" stroke="black" stroke-dasharray="1,5" d="M1716.61,-521.8C1704.75,-509.36 1688.56,-492.36 1675.35,-478.5"/>
<polygon fill="black" stroke="black" points="1677.8,-476 1668.37,-471.18 1672.73,-480.83 1677.8,-476"/>
<text text-anchor="middle" x="1703" y="-492.8" font-family="Times,serif" font-size="14.00">0</text>
</g>
<!-- 140157669934320&#45;&gt;140157669938400 -->
<g id="edge25" class="edge">
<title>140157669934320&#45;&gt;140157669938400</title>
<path fill="none" stroke="black" d="M1614.97,-434.8C1586.1,-421.39 1545.86,-402.7 1514.94,-388.34"/>
<polygon fill="black" stroke="black" points="1516.21,-385.07 1505.66,-384.03 1513.26,-391.42 1516.21,-385.07"/>
<text text-anchor="middle" x="1577" y="-405.8" font-family="Times,serif" font-size="14.00">1</text>
</g>
<!-- 140157669934320&#45;&gt;140157669938160 -->
<g id="edge27" class="edge">
<title>140157669934320&#45;&gt;140157669938160</title>
<path fill="none" stroke="black" d="M1707.72,-434.9C1752.8,-421.07 1816.36,-401.56 1863.8,-387.01"/>
<polygon fill="black" stroke="black" points="1864.83,-390.35 1873.37,-384.07 1862.78,-383.66 1864.83,-390.35"/>
<text text-anchor="middle" x="1813" y="-405.8" font-family="Times,serif" font-size="14.00">1</text>
</g>
<!-- 140158791425072 -->
<g id="node24" class="node">
<title>140158791425072</title>
<path fill="none" stroke="black" d="M1502,-467.73C1502,-469.53 1487.21,-471 1469,-471 1450.79,-471 1436,-469.53 1436,-467.73 1436,-467.73 1436,-438.27 1436,-438.27 1436,-436.47 1450.79,-435 1469,-435 1487.21,-435 1502,-436.47 1502,-438.27 1502,-438.27 1502,-467.73 1502,-467.73"/>
<path fill="none" stroke="black" d="M1502,-467.73C1502,-465.92 1487.21,-464.45 1469,-464.45 1450.79,-464.45 1436,-465.92 1436,-467.73"/>
<text text-anchor="middle" x="1469" y="-449.3" font-family="Times,serif" font-size="14.00">Loader</text>
</g>
<!-- 140158791425072&#45;&gt;140157669938400 -->
<g id="edge24" class="edge">
<title>140158791425072&#45;&gt;140157669938400</title>
<path fill="none" stroke="black" stroke-dasharray="1,5" d="M1469,-434.8C1469,-423.16 1469,-407.55 1469,-394.24"/>
<polygon fill="black" stroke="black" points="1472.5,-394.18 1469,-384.18 1465.5,-394.18 1472.5,-394.18"/>
<text text-anchor="middle" x="1474" y="-405.8" font-family="Times,serif" font-size="14.00">0</text>
</g>
<!-- 140158791425552 -->
<g id="node25" class="node">
<title>140158791425552</title>
<path fill="none" stroke="black" d="M2234,-467.73C2234,-469.53 2219.21,-471 2201,-471 2182.79,-471 2168,-469.53 2168,-467.73 2168,-467.73 2168,-438.27 2168,-438.27 2168,-436.47 2182.79,-435 2201,-435 2219.21,-435 2234,-436.47 2234,-438.27 2234,-438.27 2234,-467.73 2234,-467.73"/>
<path fill="none" stroke="black" d="M2234,-467.73C2234,-465.92 2219.21,-464.45 2201,-464.45 2182.79,-464.45 2168,-465.92 2168,-467.73"/>
<text text-anchor="middle" x="2201" y="-449.3" font-family="Times,serif" font-size="14.00">Loader</text>
</g>
<!-- 140158791425552&#45;&gt;140157669938160 -->
<g id="edge26" class="edge">
<title>140158791425552&#45;&gt;140157669938160</title>
<path fill="none" stroke="black" stroke-dasharray="1,5" d="M2197.94,-434.96C2195.01,-423.81 2189.44,-409.9 2179,-402 2170.67,-395.7 2156.77,-390.53 2139.67,-386.29"/>
<polygon fill="black" stroke="black" points="2140.38,-382.86 2129.85,-384.03 2138.81,-389.68 2140.38,-382.86"/>
<text text-anchor="middle" x="2196" y="-405.8" font-family="Times,serif" font-size="14.00">0</text>
</g>
</g>
</svg>
