<?xml version="1.0" encoding="UTF-8" standalone="no"?>
<!DOCTYPE svg PUBLIC "-//W3C//DTD SVG 1.1//EN"
 "http://www.w3.org/Graphics/SVG/1.1/DTD/svg11.dtd">
<!-- Generated by graphviz version 2.43.0 (0)
 -->
<!-- Title: %3 Pages: 1 -->
<svg width="3662pt" height="827pt"
 viewBox="0.00 0.00 3662.00 827.00" xmlns="http://www.w3.org/2000/svg" xmlns:xlink="http://www.w3.org/1999/xlink">
<g id="graph0" class="graph" transform="scale(1 1) rotate(0) translate(4 823)">
<title>%3</title>
<!-- 140254630550304 -->
<g id="node1" class="node">
<title>140254630550304</title>
<path fill="none" stroke="black" d="M3642,-819C3642,-819 377,-819 377,-819 371,-819 365,-813 365,-807 365,-807 365,-795 365,-795 365,-789 371,-783 377,-783 377,-783 3642,-783 3642,-783 3648,-783 3654,-789 3654,-795 3654,-795 3654,-807 3654,-807 3654,-813 3648,-819 3642,-819"/>
<text text-anchor="middle" x="2009.5" y="-797.3" font-family="Times,serif" font-size="14.00">RowDriver(Reader(con=LazyReaderBackend), Statement(Avazu[Avazu.hour, Avazu.banner_pos, Avazu.site_domain, Avazu.site_category, Avazu.app_id, Avazu.app_domain, Avazu.app_category, Avazu.device_id, Avazu.device_ip, Avazu.device_model, Avazu.device_type, Avazu.device_conn_type, Avazu.C14, Avazu.C15, Avazu.C18, Avazu.C19, Avazu.C20].orderby(Avazu.hour&lt;ascending&gt;)[0:500000], ordinal=Ordinal(column=Avazu.hour, once=exactly))).apply</text>
</g>
<!-- 140254630549824 -->
<g id="node2" class="node">
<title>140254630549824</title>
<path fill="none" stroke="black" d="M2061.5,-732C2061.5,-732 1957.5,-732 1957.5,-732 1951.5,-732 1945.5,-726 1945.5,-720 1945.5,-720 1945.5,-708 1945.5,-708 1945.5,-702 1951.5,-696 1957.5,-696 1957.5,-696 2061.5,-696 2061.5,-696 2067.5,-696 2073.5,-702 2073.5,-708 2073.5,-708 2073.5,-720 2073.5,-720 2073.5,-726 2067.5,-732 2061.5,-732"/>
<text text-anchor="middle" x="2009.5" y="-710.3" font-family="Times,serif" font-size="14.00">ToPandas.apply</text>
</g>
<!-- 140254630550304&#45;&gt;140254630549824 -->
<g id="edge1" class="edge">
<title>140254630550304&#45;&gt;140254630549824</title>
<path fill="none" stroke="black" d="M2009.5,-782.8C2009.5,-771.16 2009.5,-755.55 2009.5,-742.24"/>
<polygon fill="black" stroke="black" points="2013,-742.18 2009.5,-732.18 2006,-742.18 2013,-742.18"/>
<text text-anchor="middle" x="2014.5" y="-753.8" font-family="Times,serif" font-size="14.00">0</text>
</g>
<!-- 140254630545344 -->
<g id="node3" class="node">
<title>140254630545344</title>
<path fill="none" stroke="black" d="M2078.5,-645C2078.5,-645 1940.5,-645 1940.5,-645 1934.5,-645 1928.5,-639 1928.5,-633 1928.5,-633 1928.5,-621 1928.5,-621 1928.5,-615 1934.5,-609 1940.5,-609 1940.5,-609 2078.5,-609 2078.5,-609 2084.5,-609 2090.5,-615 2090.5,-621 2090.5,-621 2090.5,-633 2090.5,-633 2090.5,-639 2084.5,-645 2078.5,-645"/>
<text text-anchor="middle" x="2009.5" y="-623.3" font-family="Times,serif" font-size="14.00">TimeExtractor.apply</text>
</g>
<!-- 140254630549824&#45;&gt;140254630545344 -->
<g id="edge2" class="edge">
<title>140254630549824&#45;&gt;140254630545344</title>
<path fill="none" stroke="black" d="M2009.5,-695.8C2009.5,-684.16 2009.5,-668.55 2009.5,-655.24"/>
<polygon fill="black" stroke="black" points="2013,-655.18 2009.5,-645.18 2006,-655.18 2013,-655.18"/>
<text text-anchor="middle" x="2014.5" y="-666.8" font-family="Times,serif" font-size="14.00">0</text>
</g>
<!-- 140254629327984 -->
<g id="node5" class="node">
<title>140254629327984</title>
<path fill="none" stroke="black" d="M3315,-558C3315,-558 1726,-558 1726,-558 1720,-558 1714,-552 1714,-546 1714,-546 1714,-534 1714,-534 1714,-528 1720,-522 1726,-522 1726,-522 3315,-522 3315,-522 3321,-522 3327,-528 3327,-534 3327,-534 3327,-546 3327,-546 3327,-552 3321,-558 3315,-558"/>
<text text-anchor="middle" x="2520.5" y="-536.3" font-family="Times,serif" font-size="14.00">TargetEncoder(cols=[&#39;banner_pos&#39;, &#39;site_domain&#39;, &#39;site_category&#39;, &#39;app_id&#39;, &#39;app_domain&#39;, &#39;app_category&#39;, &#39;device_id&#39;, &#39;device_ip&#39;, &#39;device_model&#39;, &#39;device_type&#39;, &#39;device_conn_type&#39;, &#39;C14&#39;, &#39;C15&#39;, &#39;C18&#39;, &#39;C19&#39;, &#39;C20&#39;]).setstate.apply</text>
</g>
<!-- 140254630545344&#45;&gt;140254629327984 -->
<g id="edge4" class="edge">
<title>140254630545344&#45;&gt;140254629327984</title>
<path fill="none" stroke="black" d="M2090.75,-612.48C2176.42,-598.23 2312.02,-575.68 2407.96,-559.72"/>
<polygon fill="black" stroke="black" points="2408.7,-563.15 2417.99,-558.05 2407.55,-556.24 2408.7,-563.15"/>
<text text-anchor="middle" x="2300.5" y="-579.8" font-family="Times,serif" font-size="14.00">1</text>
</g>
<!-- 140254239233008 -->
<g id="node21" class="node">
<title>140254239233008</title>
<path fill="none" stroke="black" d="M1601,-558C1601,-558 12,-558 12,-558 6,-558 0,-552 0,-546 0,-546 0,-534 0,-534 0,-528 6,-522 12,-522 12,-522 1601,-522 1601,-522 1607,-522 1613,-528 1613,-534 1613,-534 1613,-546 1613,-546 1613,-552 1607,-558 1601,-558"/>
<text text-anchor="middle" x="806.5" y="-536.3" font-family="Times,serif" font-size="14.00">TargetEncoder(cols=[&#39;banner_pos&#39;, &#39;site_domain&#39;, &#39;site_category&#39;, &#39;app_id&#39;, &#39;app_domain&#39;, &#39;app_category&#39;, &#39;device_id&#39;, &#39;device_ip&#39;, &#39;device_model&#39;, &#39;device_type&#39;, &#39;device_conn_type&#39;, &#39;C14&#39;, &#39;C15&#39;, &#39;C18&#39;, &#39;C19&#39;, &#39;C20&#39;]).setstate.apply</text>
</g>
<!-- 140254630545344&#45;&gt;140254239233008 -->
<g id="edge21" class="edge">
<title>140254630545344&#45;&gt;140254239233008</title>
<path fill="none" stroke="black" d="M1928.23,-620.26C1752.39,-607.83 1330.49,-578.02 1057.17,-558.71"/>
<polygon fill="black" stroke="black" points="1057.33,-555.21 1047.11,-558 1056.84,-562.2 1057.33,-555.21"/>
<text text-anchor="middle" x="1485.5" y="-579.8" font-family="Times,serif" font-size="14.00">1</text>
</g>
<!-- 140254627838944 -->
<g id="node4" class="node">
<title>140254627838944</title>
<path fill="none" stroke="black" d="M2553.5,-641.73C2553.5,-643.53 2538.71,-645 2520.5,-645 2502.29,-645 2487.5,-643.53 2487.5,-641.73 2487.5,-641.73 2487.5,-612.27 2487.5,-612.27 2487.5,-610.47 2502.29,-609 2520.5,-609 2538.71,-609 2553.5,-610.47 2553.5,-612.27 2553.5,-612.27 2553.5,-641.73 2553.5,-641.73"/>
<path fill="none" stroke="black" d="M2553.5,-641.73C2553.5,-639.92 2538.71,-638.45 2520.5,-638.45 2502.29,-638.45 2487.5,-639.92 2487.5,-641.73"/>
<text text-anchor="middle" x="2520.5" y="-623.3" font-family="Times,serif" font-size="14.00">Loader</text>
</g>
<!-- 140254627838944&#45;&gt;140254629327984 -->
<g id="edge3" class="edge">
<title>140254627838944&#45;&gt;140254629327984</title>
<path fill="none" stroke="black" stroke-dasharray="1,5" d="M2520.5,-608.8C2520.5,-597.16 2520.5,-581.55 2520.5,-568.24"/>
<polygon fill="black" stroke="black" points="2524,-568.18 2520.5,-558.18 2517,-568.18 2524,-568.18"/>
<text text-anchor="middle" x="2525.5" y="-579.8" font-family="Times,serif" font-size="14.00">0</text>
</g>
<!-- 140254239233168 -->
<g id="node7" class="node">
<title>140254239233168</title>
<path fill="none" stroke="black" d="M2682.5,-471C2682.5,-471 2482.5,-471 2482.5,-471 2476.5,-471 2470.5,-465 2470.5,-459 2470.5,-459 2470.5,-447 2470.5,-447 2470.5,-441 2476.5,-435 2482.5,-435 2482.5,-435 2682.5,-435 2682.5,-435 2688.5,-435 2694.5,-441 2694.5,-447 2694.5,-447 2694.5,-459 2694.5,-459 2694.5,-465 2688.5,-471 2682.5,-471"/>
<text text-anchor="middle" x="2582.5" y="-449.3" font-family="Times,serif" font-size="14.00">MinMaxScaler.setstate.apply</text>
</g>
<!-- 140254629327984&#45;&gt;140254239233168 -->
<g id="edge6" class="edge">
<title>140254629327984&#45;&gt;140254239233168</title>
<path fill="none" stroke="black" d="M2533.05,-521.8C2541.95,-509.59 2554.06,-492.99 2564.06,-479.28"/>
<polygon fill="black" stroke="black" points="2566.91,-481.32 2569.97,-471.18 2561.25,-477.19 2566.91,-481.32"/>
<text text-anchor="middle" x="2559.5" y="-492.8" font-family="Times,serif" font-size="14.00">1</text>
</g>
<!-- 140254627839664 -->
<g id="node6" class="node">
<title>140254627839664</title>
<path fill="none" stroke="black" d="M3410.5,-554.73C3410.5,-556.53 3395.71,-558 3377.5,-558 3359.29,-558 3344.5,-556.53 3344.5,-554.73 3344.5,-554.73 3344.5,-525.27 3344.5,-525.27 3344.5,-523.47 3359.29,-522 3377.5,-522 3395.71,-522 3410.5,-523.47 3410.5,-525.27 3410.5,-525.27 3410.5,-554.73 3410.5,-554.73"/>
<path fill="none" stroke="black" d="M3410.5,-554.73C3410.5,-552.92 3395.71,-551.45 3377.5,-551.45 3359.29,-551.45 3344.5,-552.92 3344.5,-554.73"/>
<text text-anchor="middle" x="3377.5" y="-536.3" font-family="Times,serif" font-size="14.00">Loader</text>
</g>
<!-- 140254627839664&#45;&gt;140254239233168 -->
<g id="edge5" class="edge">
<title>140254627839664&#45;&gt;140254239233168</title>
<path fill="none" stroke="black" stroke-dasharray="1,5" d="M3344.22,-524.21C3341.64,-523.37 3339.05,-522.62 3336.5,-522 3067.34,-456.85 2990.92,-499.9 2715.5,-471 2711.98,-470.63 2708.41,-470.24 2704.8,-469.85"/>
<polygon fill="black" stroke="black" points="2704.9,-466.34 2694.57,-468.69 2704.11,-473.29 2704.9,-466.34"/>
<text text-anchor="middle" x="3251.5" y="-492.8" font-family="Times,serif" font-size="14.00">0</text>
</g>
<!-- 140254239233328 -->
<g id="node9" class="node">
<title>140254239233328</title>
<path fill="none" stroke="black" d="M2512,-384C2512,-384 2083,-384 2083,-384 2077,-384 2071,-378 2071,-372 2071,-372 2071,-360 2071,-360 2071,-354 2077,-348 2083,-348 2083,-348 2512,-348 2512,-348 2518,-348 2524,-354 2524,-360 2524,-360 2524,-372 2524,-372 2524,-378 2518,-384 2512,-384"/>
<text text-anchor="middle" x="2297.5" y="-362.3" font-family="Times,serif" font-size="14.00">GradientBoostingClassifier(random_state=42).setstate.apply</text>
</g>
<!-- 140254239233168&#45;&gt;140254239233328 -->
<g id="edge8" class="edge">
<title>140254239233168&#45;&gt;140254239233328</title>
<path fill="none" stroke="black" d="M2525.17,-434.9C2478.79,-421.07 2413.39,-401.56 2364.58,-387.01"/>
<polygon fill="black" stroke="black" points="2365.32,-383.58 2354.74,-384.07 2363.32,-390.28 2365.32,-383.58"/>
<text text-anchor="middle" x="2461.5" y="-405.8" font-family="Times,serif" font-size="14.00">1</text>
</g>
<!-- 140254239233488 -->
<g id="node18" class="node">
<title>140254239233488</title>
<path fill="none" stroke="black" d="M2961,-384C2961,-384 2554,-384 2554,-384 2548,-384 2542,-378 2542,-372 2542,-372 2542,-360 2542,-360 2542,-354 2548,-348 2554,-348 2554,-348 2961,-348 2961,-348 2967,-348 2973,-354 2973,-360 2973,-360 2973,-372 2973,-372 2973,-378 2967,-384 2961,-384"/>
<text text-anchor="middle" x="2757.5" y="-362.3" font-family="Times,serif" font-size="14.00">RandomForestClassifier(random_state=42).setstate.apply</text>
</g>
<!-- 140254239233168&#45;&gt;140254239233488 -->
<g id="edge17" class="edge">
<title>140254239233168&#45;&gt;140254239233488</title>
<path fill="none" stroke="black" d="M2617.91,-434.8C2645.4,-421.45 2683.67,-402.86 2713.19,-388.52"/>
<polygon fill="black" stroke="black" points="2714.97,-391.55 2722.44,-384.03 2711.91,-385.25 2714.97,-391.55"/>
<text text-anchor="middle" x="2684.5" y="-405.8" font-family="Times,serif" font-size="14.00">1</text>
</g>
<!-- 140254627725664 -->
<g id="node8" class="node">
<title>140254627725664</title>
<path fill="none" stroke="black" d="M2058.5,-467.73C2058.5,-469.53 2043.71,-471 2025.5,-471 2007.29,-471 1992.5,-469.53 1992.5,-467.73 1992.5,-467.73 1992.5,-438.27 1992.5,-438.27 1992.5,-436.47 2007.29,-435 2025.5,-435 2043.71,-435 2058.5,-436.47 2058.5,-438.27 2058.5,-438.27 2058.5,-467.73 2058.5,-467.73"/>
<path fill="none" stroke="black" d="M2058.5,-467.73C2058.5,-465.92 2043.71,-464.45 2025.5,-464.45 2007.29,-464.45 1992.5,-465.92 1992.5,-467.73"/>
<text text-anchor="middle" x="2025.5" y="-449.3" font-family="Times,serif" font-size="14.00">Loader</text>
</g>
<!-- 140254627725664&#45;&gt;140254239233328 -->
<g id="edge7" class="edge">
<title>140254627725664&#45;&gt;140254239233328</title>
<path fill="none" stroke="black" stroke-dasharray="1,5" d="M2038.6,-434.83C2048.13,-423.63 2062.03,-409.7 2077.5,-402 2089.3,-396.13 2101.85,-391.2 2114.74,-387.07"/>
<polygon fill="black" stroke="black" points="2116.11,-390.31 2124.67,-384.06 2114.08,-383.61 2116.11,-390.31"/>
<text text-anchor="middle" x="2082.5" y="-405.8" font-family="Times,serif" font-size="14.00">0</text>
</g>
<!-- 140254239233248 -->
<g id="node10" class="node">
<title>140254239233248</title>
<path fill="none" stroke="black" d="M2019.5,-297C2019.5,-297 1765.5,-297 1765.5,-297 1759.5,-297 1753.5,-291 1753.5,-285 1753.5,-285 1753.5,-273 1753.5,-273 1753.5,-267 1759.5,-261 1765.5,-261 1765.5,-261 2019.5,-261 2019.5,-261 2025.5,-261 2031.5,-267 2031.5,-273 2031.5,-273 2031.5,-285 2031.5,-285 2031.5,-291 2025.5,-297 2019.5,-297"/>
<text text-anchor="middle" x="1892.5" y="-275.3" font-family="Times,serif" font-size="14.00">Apply(function=pandas_mean).apply</text>
</g>
<!-- 140254239233328&#45;&gt;140254239233248 -->
<g id="edge9" class="edge">
<title>140254239233328&#45;&gt;140254239233248</title>
<path fill="none" stroke="black" d="M2216.03,-347.9C2148.88,-333.81 2053.69,-313.83 1983.94,-299.19"/>
<polygon fill="black" stroke="black" points="1984.35,-295.7 1973.84,-297.07 1982.91,-302.55 1984.35,-295.7"/>
<text text-anchor="middle" x="2124.5" y="-318.8" font-family="Times,serif" font-size="14.00">0</text>
</g>
<!-- 140254239233568 -->
<g id="node12" class="node">
<title>140254239233568</title>
<path fill="none" stroke="black" d="M2241.5,-210C2241.5,-210 1837.5,-210 1837.5,-210 1831.5,-210 1825.5,-204 1825.5,-198 1825.5,-198 1825.5,-186 1825.5,-186 1825.5,-180 1831.5,-174 1837.5,-174 1837.5,-174 2241.5,-174 2241.5,-174 2247.5,-174 2253.5,-180 2253.5,-186 2253.5,-186 2253.5,-198 2253.5,-198 2253.5,-204 2247.5,-210 2241.5,-210"/>
<text text-anchor="middle" x="2039.5" y="-188.3" font-family="Times,serif" font-size="14.00">PandasConcat(axis=&#39;columns&#39;, ignore_index=False).apply</text>
</g>
<!-- 140254239233248&#45;&gt;140254239233568 -->
<g id="edge11" class="edge">
<title>140254239233248&#45;&gt;140254239233568</title>
<path fill="none" stroke="black" d="M1922.25,-260.8C1944.96,-247.66 1976.44,-229.46 2001.06,-215.22"/>
<polygon fill="black" stroke="black" points="2002.89,-218.21 2009.8,-210.18 1999.39,-212.15 2002.89,-218.21"/>
<text text-anchor="middle" x="1980.5" y="-231.8" font-family="Times,serif" font-size="14.00">0</text>
</g>
<!-- 140254239233728 -->
<g id="node11" class="node">
<title>140254239233728</title>
<path fill="none" stroke="black" d="M1592,-384C1592,-384 1163,-384 1163,-384 1157,-384 1151,-378 1151,-372 1151,-372 1151,-360 1151,-360 1151,-354 1157,-348 1163,-348 1163,-348 1592,-348 1592,-348 1598,-348 1604,-354 1604,-360 1604,-360 1604,-372 1604,-372 1604,-378 1598,-384 1592,-384"/>
<text text-anchor="middle" x="1377.5" y="-362.3" font-family="Times,serif" font-size="14.00">GradientBoostingClassifier(random_state=42).setstate.apply</text>
</g>
<!-- 140254239233728&#45;&gt;140254239233248 -->
<g id="edge10" class="edge">
<title>140254239233728&#45;&gt;140254239233248</title>
<path fill="none" stroke="black" d="M1480.79,-347.95C1567.25,-333.68 1690.44,-313.35 1779.51,-298.65"/>
<polygon fill="black" stroke="black" points="1780.09,-302.1 1789.38,-297.02 1778.95,-295.19 1780.09,-302.1"/>
<text text-anchor="middle" x="1671.5" y="-318.8" font-family="Times,serif" font-size="14.00">1</text>
</g>
<!-- 140254239233808 -->
<g id="node15" class="node">
<title>140254239233808</title>
<path fill="none" stroke="black" d="M2485,-123C2485,-123 1858,-123 1858,-123 1852,-123 1846,-117 1846,-111 1846,-111 1846,-99 1846,-99 1846,-93 1852,-87 1858,-87 1858,-87 2485,-87 2485,-87 2491,-87 2497,-93 2497,-99 2497,-99 2497,-111 2497,-111 2497,-117 2491,-123 2485,-123"/>
<text text-anchor="middle" x="2171.5" y="-101.3" font-family="Times,serif" font-size="14.00">LogisticRegression(warm_start=True, max_iter=1000, random_state=42).setstate.apply</text>
</g>
<!-- 140254239233568&#45;&gt;140254239233808 -->
<g id="edge14" class="edge">
<title>140254239233568&#45;&gt;140254239233808</title>
<path fill="none" stroke="black" d="M2066.21,-173.8C2086.43,-160.78 2114.38,-142.78 2136.4,-128.6"/>
<polygon fill="black" stroke="black" points="2138.31,-131.53 2144.83,-123.18 2134.52,-125.65 2138.31,-131.53"/>
<text text-anchor="middle" x="2118.5" y="-144.8" font-family="Times,serif" font-size="14.00">1</text>
</g>
<!-- 140254239233408 -->
<g id="node13" class="node">
<title>140254239233408</title>
<path fill="none" stroke="black" d="M2315.5,-297C2315.5,-297 2061.5,-297 2061.5,-297 2055.5,-297 2049.5,-291 2049.5,-285 2049.5,-285 2049.5,-273 2049.5,-273 2049.5,-267 2055.5,-261 2061.5,-261 2061.5,-261 2315.5,-261 2315.5,-261 2321.5,-261 2327.5,-267 2327.5,-273 2327.5,-273 2327.5,-285 2327.5,-285 2327.5,-291 2321.5,-297 2315.5,-297"/>
<text text-anchor="middle" x="2188.5" y="-275.3" font-family="Times,serif" font-size="14.00">Apply(function=pandas_mean).apply</text>
</g>
<!-- 140254239233408&#45;&gt;140254239233568 -->
<g id="edge12" class="edge">
<title>140254239233408&#45;&gt;140254239233568</title>
<path fill="none" stroke="black" d="M2158.35,-260.8C2135.25,-247.62 2103.21,-229.34 2078.21,-215.08"/>
<polygon fill="black" stroke="black" points="2079.77,-211.95 2069.35,-210.03 2076.3,-218.03 2079.77,-211.95"/>
<text text-anchor="middle" x="2128.5" y="-231.8" font-family="Times,serif" font-size="14.00">1</text>
</g>
<!-- 140254627727440 -->
<g id="node14" class="node">
<title>140254627727440</title>
<path fill="none" stroke="black" d="M2337.5,-206.73C2337.5,-208.53 2322.71,-210 2304.5,-210 2286.29,-210 2271.5,-208.53 2271.5,-206.73 2271.5,-206.73 2271.5,-177.27 2271.5,-177.27 2271.5,-175.47 2286.29,-174 2304.5,-174 2322.71,-174 2337.5,-175.47 2337.5,-177.27 2337.5,-177.27 2337.5,-206.73 2337.5,-206.73"/>
<path fill="none" stroke="black" d="M2337.5,-206.73C2337.5,-204.92 2322.71,-203.45 2304.5,-203.45 2286.29,-203.45 2271.5,-204.92 2271.5,-206.73"/>
<text text-anchor="middle" x="2304.5" y="-188.3" font-family="Times,serif" font-size="14.00">Loader</text>
</g>
<!-- 140254627727440&#45;&gt;140254239233808 -->
<g id="edge13" class="edge">
<title>140254627727440&#45;&gt;140254239233808</title>
<path fill="none" stroke="black" stroke-dasharray="1,5" d="M2278.86,-174.61C2258.46,-161.58 2229.71,-143.2 2207.08,-128.74"/>
<polygon fill="black" stroke="black" points="2208.75,-125.65 2198.43,-123.21 2204.98,-131.55 2208.75,-125.65"/>
<text text-anchor="middle" x="2251.5" y="-144.8" font-family="Times,serif" font-size="14.00">0</text>
</g>
<!-- 140254239233888 -->
<g id="node16" class="node">
<title>140254239233888</title>
<path fill="none" stroke="black" d="M2240.5,-36C2240.5,-36 2102.5,-36 2102.5,-36 2096.5,-36 2090.5,-30 2090.5,-24 2090.5,-24 2090.5,-12 2090.5,-12 2090.5,-6 2096.5,0 2102.5,0 2102.5,0 2240.5,0 2240.5,0 2246.5,0 2252.5,-6 2252.5,-12 2252.5,-12 2252.5,-24 2252.5,-24 2252.5,-30 2246.5,-36 2240.5,-36"/>
<text text-anchor="middle" x="2171.5" y="-14.3" font-family="Times,serif" font-size="14.00">Driver(Writer).apply</text>
</g>
<!-- 140254239233808&#45;&gt;140254239233888 -->
<g id="edge15" class="edge">
<title>140254239233808&#45;&gt;140254239233888</title>
<path fill="none" stroke="black" d="M2171.5,-86.8C2171.5,-75.16 2171.5,-59.55 2171.5,-46.24"/>
<polygon fill="black" stroke="black" points="2175,-46.18 2171.5,-36.18 2168,-46.18 2175,-46.18"/>
<text text-anchor="middle" x="2176.5" y="-57.8" font-family="Times,serif" font-size="14.00">0</text>
</g>
<!-- 140254627726144 -->
<g id="node17" class="node">
<title>140254627726144</title>
<path fill="none" stroke="black" d="M2790.5,-467.73C2790.5,-469.53 2775.71,-471 2757.5,-471 2739.29,-471 2724.5,-469.53 2724.5,-467.73 2724.5,-467.73 2724.5,-438.27 2724.5,-438.27 2724.5,-436.47 2739.29,-435 2757.5,-435 2775.71,-435 2790.5,-436.47 2790.5,-438.27 2790.5,-438.27 2790.5,-467.73 2790.5,-467.73"/>
<path fill="none" stroke="black" d="M2790.5,-467.73C2790.5,-465.92 2775.71,-464.45 2757.5,-464.45 2739.29,-464.45 2724.5,-465.92 2724.5,-467.73"/>
<text text-anchor="middle" x="2757.5" y="-449.3" font-family="Times,serif" font-size="14.00">Loader</text>
</g>
<!-- 140254627726144&#45;&gt;140254239233488 -->
<g id="edge16" class="edge">
<title>140254627726144&#45;&gt;140254239233488</title>
<path fill="none" stroke="black" stroke-dasharray="1,5" d="M2757.5,-434.8C2757.5,-423.16 2757.5,-407.55 2757.5,-394.24"/>
<polygon fill="black" stroke="black" points="2761,-394.18 2757.5,-384.18 2754,-394.18 2761,-394.18"/>
<text text-anchor="middle" x="2762.5" y="-405.8" font-family="Times,serif" font-size="14.00">0</text>
</g>
<!-- 140254239233488&#45;&gt;140254239233408 -->
<g id="edge18" class="edge">
<title>140254239233488&#45;&gt;140254239233408</title>
<path fill="none" stroke="black" d="M2643.38,-347.95C2547.56,-333.64 2410.92,-313.23 2312.44,-298.51"/>
<polygon fill="black" stroke="black" points="2312.84,-295.04 2302.43,-297.02 2311.8,-301.96 2312.84,-295.04"/>
<text text-anchor="middle" x="2511.5" y="-318.8" font-family="Times,serif" font-size="14.00">0</text>
</g>
<!-- 140254239234128 -->
<g id="node19" class="node">
<title>140254239234128</title>
<path fill="none" stroke="black" d="M2041,-384C2041,-384 1634,-384 1634,-384 1628,-384 1622,-378 1622,-372 1622,-372 1622,-360 1622,-360 1622,-354 1628,-348 1634,-348 1634,-348 2041,-348 2041,-348 2047,-348 2053,-354 2053,-360 2053,-360 2053,-372 2053,-372 2053,-378 2047,-384 2041,-384"/>
<text text-anchor="middle" x="1837.5" y="-362.3" font-family="Times,serif" font-size="14.00">RandomForestClassifier(random_state=42).setstate.apply</text>
</g>
<!-- 140254239234128&#45;&gt;140254239233408 -->
<g id="edge19" class="edge">
<title>140254239234128&#45;&gt;140254239233408</title>
<path fill="none" stroke="black" d="M1908.11,-347.9C1965.95,-333.89 2047.79,-314.07 2108.13,-299.46"/>
<polygon fill="black" stroke="black" points="2109.11,-302.83 2118,-297.07 2107.46,-296.02 2109.11,-302.83"/>
<text text-anchor="middle" x="2039.5" y="-318.8" font-family="Times,serif" font-size="14.00">1</text>
</g>
<!-- 140254627839424 -->
<g id="node20" class="node">
<title>140254627839424</title>
<path fill="none" stroke="black" d="M839.5,-641.73C839.5,-643.53 824.71,-645 806.5,-645 788.29,-645 773.5,-643.53 773.5,-641.73 773.5,-641.73 773.5,-612.27 773.5,-612.27 773.5,-610.47 788.29,-609 806.5,-609 824.71,-609 839.5,-610.47 839.5,-612.27 839.5,-612.27 839.5,-641.73 839.5,-641.73"/>
<path fill="none" stroke="black" d="M839.5,-641.73C839.5,-639.92 824.71,-638.45 806.5,-638.45 788.29,-638.45 773.5,-639.92 773.5,-641.73"/>
<text text-anchor="middle" x="806.5" y="-623.3" font-family="Times,serif" font-size="14.00">Loader</text>
</g>
<!-- 140254627839424&#45;&gt;140254239233008 -->
<g id="edge20" class="edge">
<title>140254627839424&#45;&gt;140254239233008</title>
<path fill="none" stroke="black" stroke-dasharray="1,5" d="M806.5,-608.8C806.5,-597.16 806.5,-581.55 806.5,-568.24"/>
<polygon fill="black" stroke="black" points="810,-568.18 806.5,-558.18 803,-568.18 810,-568.18"/>
<text text-anchor="middle" x="811.5" y="-579.8" font-family="Times,serif" font-size="14.00">0</text>
</g>
<!-- 140254239233648 -->
<g id="node23" class="node">
<title>140254239233648</title>
<path fill="none" stroke="black" d="M1665.5,-471C1665.5,-471 1465.5,-471 1465.5,-471 1459.5,-471 1453.5,-465 1453.5,-459 1453.5,-459 1453.5,-447 1453.5,-447 1453.5,-441 1459.5,-435 1465.5,-435 1465.5,-435 1665.5,-435 1665.5,-435 1671.5,-435 1677.5,-441 1677.5,-447 1677.5,-447 1677.5,-459 1677.5,-459 1677.5,-465 1671.5,-471 1665.5,-471"/>
<text text-anchor="middle" x="1565.5" y="-449.3" font-family="Times,serif" font-size="14.00">MinMaxScaler.setstate.apply</text>
</g>
<!-- 140254239233008&#45;&gt;140254239233648 -->
<g id="edge23" class="edge">
<title>140254239233008&#45;&gt;140254239233648</title>
<path fill="none" stroke="black" d="M962.1,-521.98C1086.02,-508.36 1263.9,-488.69 1419.5,-471 1427.17,-470.13 1435.06,-469.23 1443.01,-468.31"/>
<polygon fill="black" stroke="black" points="1443.58,-471.77 1453.12,-467.15 1442.78,-464.82 1443.58,-471.77"/>
<text text-anchor="middle" x="1256.5" y="-492.8" font-family="Times,serif" font-size="14.00">1</text>
</g>
<!-- 140254627728400 -->
<g id="node22" class="node">
<title>140254627728400</title>
<path fill="none" stroke="black" d="M1696.5,-554.73C1696.5,-556.53 1681.71,-558 1663.5,-558 1645.29,-558 1630.5,-556.53 1630.5,-554.73 1630.5,-554.73 1630.5,-525.27 1630.5,-525.27 1630.5,-523.47 1645.29,-522 1663.5,-522 1681.71,-522 1696.5,-523.47 1696.5,-525.27 1696.5,-525.27 1696.5,-554.73 1696.5,-554.73"/>
<path fill="none" stroke="black" d="M1696.5,-554.73C1696.5,-552.92 1681.71,-551.45 1663.5,-551.45 1645.29,-551.45 1630.5,-552.92 1630.5,-554.73"/>
<text text-anchor="middle" x="1663.5" y="-536.3" font-family="Times,serif" font-size="14.00">Loader</text>
</g>
<!-- 140254627728400&#45;&gt;140254239233648 -->
<g id="edge22" class="edge">
<title>140254627728400&#45;&gt;140254239233648</title>
<path fill="none" stroke="black" stroke-dasharray="1,5" d="M1643.67,-521.8C1629.06,-509.13 1609,-491.73 1592.87,-477.74"/>
<polygon fill="black" stroke="black" points="1595.15,-475.08 1585.3,-471.18 1590.56,-480.37 1595.15,-475.08"/>
<text text-anchor="middle" x="1625.5" y="-492.8" font-family="Times,serif" font-size="14.00">0</text>
</g>
<!-- 140254239233648&#45;&gt;140254239233728 -->
<g id="edge25" class="edge">
<title>140254239233648&#45;&gt;140254239233728</title>
<path fill="none" stroke="black" d="M1527.46,-434.8C1497.67,-421.33 1456.1,-402.54 1424.28,-388.15"/>
<polygon fill="black" stroke="black" points="1425.72,-384.96 1415.17,-384.03 1422.84,-391.34 1425.72,-384.96"/>
<text text-anchor="middle" x="1488.5" y="-405.8" font-family="Times,serif" font-size="14.00">1</text>
</g>
<!-- 140254239233648&#45;&gt;140254239234128 -->
<g id="edge27" class="edge">
<title>140254239233648&#45;&gt;140254239234128</title>
<path fill="none" stroke="black" d="M1620.22,-434.9C1664.39,-421.1 1726.63,-401.65 1773.19,-387.1"/>
<polygon fill="black" stroke="black" points="1774.37,-390.39 1782.87,-384.07 1772.28,-383.71 1774.37,-390.39"/>
<text text-anchor="middle" x="1723.5" y="-405.8" font-family="Times,serif" font-size="14.00">1</text>
</g>
<!-- 140254627729216 -->
<g id="node24" class="node">
<title>140254627729216</title>
<path fill="none" stroke="black" d="M1410.5,-467.73C1410.5,-469.53 1395.71,-471 1377.5,-471 1359.29,-471 1344.5,-469.53 1344.5,-467.73 1344.5,-467.73 1344.5,-438.27 1344.5,-438.27 1344.5,-436.47 1359.29,-435 1377.5,-435 1395.71,-435 1410.5,-436.47 1410.5,-438.27 1410.5,-438.27 1410.5,-467.73 1410.5,-467.73"/>
<path fill="none" stroke="black" d="M1410.5,-467.73C1410.5,-465.92 1395.71,-464.45 1377.5,-464.45 1359.29,-464.45 1344.5,-465.92 1344.5,-467.73"/>
<text text-anchor="middle" x="1377.5" y="-449.3" font-family="Times,serif" font-size="14.00">Loader</text>
</g>
<!-- 140254627729216&#45;&gt;140254239233728 -->
<g id="edge24" class="edge">
<title>140254627729216&#45;&gt;140254239233728</title>
<path fill="none" stroke="black" stroke-dasharray="1,5" d="M1377.5,-434.8C1377.5,-423.16 1377.5,-407.55 1377.5,-394.24"/>
<polygon fill="black" stroke="black" points="1381,-394.18 1377.5,-384.18 1374,-394.18 1381,-394.18"/>
<text text-anchor="middle" x="1382.5" y="-405.8" font-family="Times,serif" font-size="14.00">0</text>
</g>
<!-- 140254627729696 -->
<g id="node25" class="node">
<title>140254627729696</title>
<path fill="none" stroke="black" d="M2142.5,-467.73C2142.5,-469.53 2127.71,-471 2109.5,-471 2091.29,-471 2076.5,-469.53 2076.5,-467.73 2076.5,-467.73 2076.5,-438.27 2076.5,-438.27 2076.5,-436.47 2091.29,-435 2109.5,-435 2127.71,-435 2142.5,-436.47 2142.5,-438.27 2142.5,-438.27 2142.5,-467.73 2142.5,-467.73"/>
<path fill="none" stroke="black" d="M2142.5,-467.73C2142.5,-465.92 2127.71,-464.45 2109.5,-464.45 2091.29,-464.45 2076.5,-465.92 2076.5,-467.73"/>
<text text-anchor="middle" x="2109.5" y="-449.3" font-family="Times,serif" font-size="14.00">Loader</text>
</g>
<!-- 140254627729696&#45;&gt;140254239234128 -->
<g id="edge26" class="edge">
<title>140254627729696&#45;&gt;140254239234128</title>
<path fill="none" stroke="black" stroke-dasharray="1,5" d="M2106.44,-434.96C2103.51,-423.81 2097.94,-409.9 2087.5,-402 2079.17,-395.7 2065.27,-390.53 2048.17,-386.29"/>
<polygon fill="black" stroke="black" points="2048.88,-382.86 2038.35,-384.03 2047.31,-389.68 2048.88,-382.86"/>
<text text-anchor="middle" x="2104.5" y="-405.8" font-family="Times,serif" font-size="14.00">0</text>
</g>
</g>
</svg>
