<?xml version="1.0" encoding="UTF-8" standalone="no"?>
<!DOCTYPE svg PUBLIC "-//W3C//DTD SVG 1.1//EN"
 "http://www.w3.org/Graphics/SVG/1.1/DTD/svg11.dtd">
<!-- Generated by graphviz version 2.43.0 (0)
 -->
<!-- Title: %3 Pages: 1 -->
<svg width="8028pt" height="1841pt"
 viewBox="0.00 0.00 8028.07 1841.00" xmlns="http://www.w3.org/2000/svg" xmlns:xlink="http://www.w3.org/1999/xlink">
<g id="graph0" class="graph" transform="scale(1 1) rotate(0) translate(4 1837)">
<title>%3</title>
<!-- 140636094372640 -->
<g id="node1" class="node">
<title>140636094372640</title>
<path fill="none" stroke="black" d="M7336.57,-1833C7336.57,-1833 3665.57,-1833 3665.57,-1833 3659.57,-1833 3653.57,-1827 3653.57,-1821 3653.57,-1821 3653.57,-1809 3653.57,-1809 3653.57,-1803 3659.57,-1797 3665.57,-1797 3665.57,-1797 7336.57,-1797 7336.57,-1797 7342.57,-1797 7348.57,-1803 7348.57,-1809 7348.57,-1809 7348.57,-1821 7348.57,-1821 7348.57,-1827 7342.57,-1833 7336.57,-1833"/>
<text text-anchor="middle" x="5501.07" y="-1811.3" font-family="Times,serif" font-size="14.00">TableDriver(Reader(con=LazyReaderBackend), Statement(Avazu[Avazu.hour, Avazu.C1, Avazu.banner_pos, Avazu.site_id, Avazu.site_domain, Avazu.site_category, Avazu.app_id, Avazu.app_domain, Avazu.app_category, Avazu.device_id, Avazu.device_model, Avazu.device_type, Avazu.device_conn_type, Avazu.C14, Avazu.C15, Avazu.C16, Avazu.C17, Avazu.C18, Avazu.C19, Avazu.C20, Avazu.C21, Avazu.click].orderby(Avazu.hour&lt;ascending&gt;)[0:500000], ordinal=Ordinal(column=Avazu.hour, once=exactly))).apply</text>
</g>
<!-- 140636094368480 -->
<g id="node2" class="node">
<title>140636094368480</title>
<path fill="none" stroke="black" d="M5602.57,-1746C5602.57,-1746 5399.57,-1746 5399.57,-1746 5393.57,-1746 5387.57,-1740 5387.57,-1734 5387.57,-1734 5387.57,-1722 5387.57,-1722 5387.57,-1716 5393.57,-1710 5399.57,-1710 5399.57,-1710 5602.57,-1710 5602.57,-1710 5608.57,-1710 5614.57,-1716 5614.57,-1722 5614.57,-1722 5614.57,-1734 5614.57,-1734 5614.57,-1740 5608.57,-1746 5602.57,-1746"/>
<text text-anchor="middle" x="5501.07" y="-1724.3" font-family="Times,serif" font-size="14.00">Slicer(range(0, 21), 21).apply</text>
</g>
<!-- 140636094372640&#45;&gt;140636094368480 -->
<g id="edge1" class="edge">
<title>140636094372640&#45;&gt;140636094368480</title>
<path fill="none" stroke="black" d="M5501.07,-1796.8C5501.07,-1785.16 5501.07,-1769.55 5501.07,-1756.24"/>
<polygon fill="black" stroke="black" points="5504.57,-1756.18 5501.07,-1746.18 5497.57,-1756.18 5504.57,-1756.18"/>
<text text-anchor="middle" x="5506.07" y="-1767.8" font-family="Times,serif" font-size="14.00">0</text>
</g>
<!-- 140637602551200 -->
<g id="node3" class="node">
<title>140637602551200</title>
<ellipse fill="none" stroke="black" cx="5458.07" cy="-1641" rx="54.69" ry="18"/>
<text text-anchor="middle" x="5458.07" y="-1637.3" font-family="Times,serif" font-size="14.00">Getter#0</text>
</g>
<!-- 140636094368480&#45;&gt;140637602551200 -->
<g id="edge2" class="edge">
<title>140636094368480&#45;&gt;140637602551200</title>
<path fill="none" stroke="black" d="M5492.37,-1709.8C5486.33,-1697.85 5478.17,-1681.72 5471.32,-1668.18"/>
<polygon fill="black" stroke="black" points="5474.25,-1666.23 5466.62,-1658.89 5468.01,-1669.39 5474.25,-1666.23"/>
<text text-anchor="middle" x="5487.07" y="-1680.8" font-family="Times,serif" font-size="14.00">0</text>
</g>
<!-- 140637602556048 -->
<g id="node4" class="node">
<title>140637602556048</title>
<ellipse fill="none" stroke="black" cx="5548.07" cy="-1587" rx="54.69" ry="18"/>
<text text-anchor="middle" x="5548.07" y="-1583.3" font-family="Times,serif" font-size="14.00">Getter#1</text>
</g>
<!-- 140636094368480&#45;&gt;140637602556048 -->
<g id="edge3" class="edge">
<title>140636094368480&#45;&gt;140637602556048</title>
<path fill="none" stroke="black" d="M5506.84,-1709.96C5514.87,-1686.2 5529.52,-1642.88 5539.02,-1614.78"/>
<polygon fill="black" stroke="black" points="5542.38,-1615.78 5542.26,-1605.18 5535.74,-1613.54 5542.38,-1615.78"/>
<text text-anchor="middle" x="5522.07" y="-1680.8" font-family="Times,serif" font-size="14.00">0</text>
</g>
<!-- 140636094280016 -->
<g id="node5" class="node">
<title>140636094280016</title>
<path fill="none" stroke="black" d="M5498.07,-1551C5498.07,-1551 5394.07,-1551 5394.07,-1551 5388.07,-1551 5382.07,-1545 5382.07,-1539 5382.07,-1539 5382.07,-1527 5382.07,-1527 5382.07,-1521 5388.07,-1515 5394.07,-1515 5394.07,-1515 5498.07,-1515 5498.07,-1515 5504.07,-1515 5510.07,-1521 5510.07,-1527 5510.07,-1527 5510.07,-1539 5510.07,-1539 5510.07,-1545 5504.07,-1551 5498.07,-1551"/>
<text text-anchor="middle" x="5446.07" y="-1529.3" font-family="Times,serif" font-size="14.00">ToPandas.apply</text>
</g>
<!-- 140637602551200&#45;&gt;140636094280016 -->
<g id="edge4" class="edge">
<title>140637602551200&#45;&gt;140636094280016</title>
<path fill="none" stroke="black" d="M5456.15,-1622.97C5454.27,-1606.38 5451.38,-1580.88 5449.18,-1561.43"/>
<polygon fill="black" stroke="black" points="5452.64,-1560.88 5448.04,-1551.34 5445.68,-1561.67 5452.64,-1560.88"/>
<text text-anchor="middle" x="5458.07" y="-1583.3" font-family="Times,serif" font-size="14.00">0</text>
</g>
<!-- 140636094278256 -->
<g id="node8" class="node">
<title>140636094278256</title>
<path fill="none" stroke="black" d="M5614.07,-1464C5614.07,-1464 5510.07,-1464 5510.07,-1464 5504.07,-1464 5498.07,-1458 5498.07,-1452 5498.07,-1452 5498.07,-1440 5498.07,-1440 5498.07,-1434 5504.07,-1428 5510.07,-1428 5510.07,-1428 5614.07,-1428 5614.07,-1428 5620.07,-1428 5626.07,-1434 5626.07,-1440 5626.07,-1440 5626.07,-1452 5626.07,-1452 5626.07,-1458 5620.07,-1464 5614.07,-1464"/>
<text text-anchor="middle" x="5562.07" y="-1442.3" font-family="Times,serif" font-size="14.00">ToPandas.apply</text>
</g>
<!-- 140637602556048&#45;&gt;140636094278256 -->
<g id="edge91" class="edge">
<title>140637602556048&#45;&gt;140636094278256</title>
<path fill="none" stroke="black" d="M5549.79,-1568.96C5552.17,-1545.3 5556.51,-1502.26 5559.34,-1474.15"/>
<polygon fill="black" stroke="black" points="5562.82,-1474.48 5560.34,-1464.18 5555.86,-1473.78 5562.82,-1474.48"/>
<text text-anchor="middle" x="5560.07" y="-1529.3" font-family="Times,serif" font-size="14.00">0</text>
</g>
<!-- 140636094267856 -->
<g id="node6" class="node">
<title>140636094267856</title>
<path fill="none" stroke="black" d="M5468.07,-1464C5468.07,-1464 5330.07,-1464 5330.07,-1464 5324.07,-1464 5318.07,-1458 5318.07,-1452 5318.07,-1452 5318.07,-1440 5318.07,-1440 5318.07,-1434 5324.07,-1428 5330.07,-1428 5330.07,-1428 5468.07,-1428 5468.07,-1428 5474.07,-1428 5480.07,-1434 5480.07,-1440 5480.07,-1440 5480.07,-1452 5480.07,-1452 5480.07,-1458 5474.07,-1464 5468.07,-1464"/>
<text text-anchor="middle" x="5399.07" y="-1442.3" font-family="Times,serif" font-size="14.00">TimeExtractor.apply</text>
</g>
<!-- 140636094280016&#45;&gt;140636094267856 -->
<g id="edge5" class="edge">
<title>140636094280016&#45;&gt;140636094267856</title>
<path fill="none" stroke="black" d="M5436.56,-1514.8C5429.94,-1502.82 5420.98,-1486.62 5413.48,-1473.06"/>
<polygon fill="black" stroke="black" points="5416.47,-1471.23 5408.57,-1464.18 5410.35,-1474.62 5416.47,-1471.23"/>
<text text-anchor="middle" x="5430.07" y="-1485.8" font-family="Times,serif" font-size="14.00">0</text>
</g>
<!-- 140636355819728 -->
<g id="node7" class="node">
<title>140636355819728</title>
<polygon fill="none" stroke="black" points="5842.07,-1377 5120.07,-1377 5120.07,-1341 5842.07,-1341 5842.07,-1377"/>
<text text-anchor="middle" x="5481.07" y="-1355.3" font-family="Times,serif" font-size="14.00">PandasCVFolds(crossvalidator=StratifiedKFold(n_splits=2, random_state=42, shuffle=True)).train</text>
</g>
<!-- 140636094267856&#45;&gt;140636355819728 -->
<g id="edge6" class="edge">
<title>140636094267856&#45;&gt;140636355819728</title>
<path fill="none" stroke="black" d="M5415.67,-1427.8C5427.67,-1415.36 5444.06,-1398.36 5457.43,-1384.5"/>
<polygon fill="black" stroke="black" points="5460.08,-1386.8 5464.5,-1377.18 5455.04,-1381.94 5460.08,-1386.8"/>
<text text-anchor="middle" x="5449.07" y="-1398.8" font-family="Times,serif" font-size="14.00">0</text>
</g>
<!-- 140636094481808 -->
<g id="node9" class="node">
<title>140636094481808</title>
<path fill="none" stroke="black" d="M5395.57,-1290C5395.57,-1290 4630.57,-1290 4630.57,-1290 4624.57,-1290 4618.57,-1284 4618.57,-1278 4618.57,-1278 4618.57,-1266 4618.57,-1266 4618.57,-1260 4624.57,-1254 4630.57,-1254 4630.57,-1254 5395.57,-1254 5395.57,-1254 5401.57,-1254 5407.57,-1260 5407.57,-1266 5407.57,-1266 5407.57,-1278 5407.57,-1278 5407.57,-1284 5401.57,-1290 5395.57,-1290"/>
<text text-anchor="middle" x="5013.07" y="-1268.3" font-family="Times,serif" font-size="14.00">PandasCVFolds(crossvalidator=StratifiedKFold(n_splits=2, random_state=42, shuffle=True)).setstate.apply</text>
</g>
<!-- 140636094267856&#45;&gt;140636094481808 -->
<g id="edge9" class="edge">
<title>140636094267856&#45;&gt;140636094481808</title>
<path fill="none" stroke="black" d="M5317.96,-1440.42C5254.89,-1433.72 5167.27,-1417.26 5101.07,-1377 5069.36,-1357.71 5043.45,-1322.98 5028.16,-1299"/>
<polygon fill="black" stroke="black" points="5031.06,-1297.04 5022.82,-1290.38 5025.11,-1300.73 5031.06,-1297.04"/>
<text text-anchor="middle" x="5106.07" y="-1355.3" font-family="Times,serif" font-size="14.00">1</text>
</g>
<!-- 140636355819728&#45;&gt;140636094481808 -->
<g id="edge8" class="edge">
<title>140636355819728&#45;&gt;140636094481808</title>
<path fill="none" stroke="black" stroke-dasharray="1,5" d="M5387.21,-1340.95C5309.04,-1326.75 5197.83,-1306.56 5116.98,-1291.87"/>
<polygon fill="black" stroke="black" points="5117.24,-1288.36 5106.78,-1290.02 5115.99,-1295.25 5117.24,-1288.36"/>
<text text-anchor="middle" x="5280.07" y="-1311.8" font-family="Times,serif" font-size="14.00">0</text>
</g>
<!-- 140636094482848 -->
<g id="node61" class="node">
<title>140636094482848</title>
<path fill="none" stroke="black" d="M6329.57,-1290C6329.57,-1290 5564.57,-1290 5564.57,-1290 5558.57,-1290 5552.57,-1284 5552.57,-1278 5552.57,-1278 5552.57,-1266 5552.57,-1266 5552.57,-1260 5558.57,-1254 5564.57,-1254 5564.57,-1254 6329.57,-1254 6329.57,-1254 6335.57,-1254 6341.57,-1260 6341.57,-1266 6341.57,-1266 6341.57,-1278 6341.57,-1278 6341.57,-1284 6335.57,-1290 6329.57,-1290"/>
<text text-anchor="middle" x="5947.07" y="-1268.3" font-family="Times,serif" font-size="14.00">PandasCVFolds(crossvalidator=StratifiedKFold(n_splits=2, random_state=42, shuffle=True)).setstate.apply</text>
</g>
<!-- 140636355819728&#45;&gt;140636094482848 -->
<g id="edge92" class="edge">
<title>140636355819728&#45;&gt;140636094482848</title>
<path fill="none" stroke="black" stroke-dasharray="1,5" d="M5574.54,-1340.95C5652.38,-1326.75 5763.11,-1306.56 5843.61,-1291.87"/>
<polygon fill="black" stroke="black" points="5844.56,-1295.26 5853.77,-1290.02 5843.3,-1288.37 5844.56,-1295.26"/>
<text text-anchor="middle" x="5746.07" y="-1311.8" font-family="Times,serif" font-size="14.00">0</text>
</g>
<!-- 140636094278256&#45;&gt;140636355819728 -->
<g id="edge7" class="edge">
<title>140636094278256&#45;&gt;140636355819728</title>
<path fill="none" stroke="black" d="M5545.68,-1427.8C5533.82,-1415.36 5517.63,-1398.36 5504.42,-1384.5"/>
<polygon fill="black" stroke="black" points="5506.87,-1382 5497.44,-1377.18 5501.81,-1386.83 5506.87,-1382"/>
<text text-anchor="middle" x="5531.07" y="-1398.8" font-family="Times,serif" font-size="14.00">1</text>
</g>
<!-- 140636094278256&#45;&gt;140636094482848 -->
<g id="edge93" class="edge">
<title>140636094278256&#45;&gt;140636094482848</title>
<path fill="none" stroke="black" d="M5626.36,-1440.72C5687.73,-1434.23 5780.96,-1417.92 5851.07,-1377 5884.53,-1357.48 5913.18,-1322.56 5930.26,-1298.61"/>
<polygon fill="black" stroke="black" points="5933.19,-1300.54 5936.02,-1290.34 5927.44,-1296.55 5933.19,-1300.54"/>
<text text-anchor="middle" x="5899.07" y="-1355.3" font-family="Times,serif" font-size="14.00">1</text>
</g>
<!-- 140637602573536 -->
<g id="node10" class="node">
<title>140637602573536</title>
<ellipse fill="none" stroke="black" cx="834.07" cy="-1185" rx="54.69" ry="18"/>
<text text-anchor="middle" x="834.07" y="-1181.3" font-family="Times,serif" font-size="14.00">Getter#0</text>
</g>
<!-- 140636094481808&#45;&gt;140637602573536 -->
<g id="edge10" class="edge">
<title>140636094481808&#45;&gt;140637602573536</title>
<path fill="none" stroke="black" d="M4618.25,-1269.93C3659.24,-1266.56 1259.11,-1253.17 898.07,-1203 893.01,-1202.3 887.77,-1201.32 882.57,-1200.2"/>
<polygon fill="black" stroke="black" points="883.22,-1196.75 872.69,-1197.87 881.62,-1203.57 883.22,-1196.75"/>
<text text-anchor="middle" x="1505.07" y="-1224.8" font-family="Times,serif" font-size="14.00">0</text>
</g>
<!-- 140637602578240 -->
<g id="node11" class="node">
<title>140637602578240</title>
<ellipse fill="none" stroke="black" cx="3803.07" cy="-1131" rx="54.69" ry="18"/>
<text text-anchor="middle" x="3803.07" y="-1127.3" font-family="Times,serif" font-size="14.00">Getter#1</text>
</g>
<!-- 140636094481808&#45;&gt;140637602578240 -->
<g id="edge11" class="edge">
<title>140636094481808&#45;&gt;140637602578240</title>
<path fill="none" stroke="black" d="M4880.71,-1253.95C4802.82,-1244.05 4702.39,-1231.49 4613.07,-1221 4333.72,-1188.19 3999.71,-1152.66 3864.44,-1138.43"/>
<polygon fill="black" stroke="black" points="3864.59,-1134.92 3854.28,-1137.36 3863.86,-1141.89 3864.59,-1134.92"/>
<text text-anchor="middle" x="4736.07" y="-1224.8" font-family="Times,serif" font-size="14.00">0</text>
</g>
<!-- 140637602578336 -->
<g id="node12" class="node">
<title>140637602578336</title>
<ellipse fill="none" stroke="black" cx="5615.07" cy="-1185" rx="54.69" ry="18"/>
<text text-anchor="middle" x="5615.07" y="-1181.3" font-family="Times,serif" font-size="14.00">Getter#2</text>
</g>
<!-- 140636094481808&#45;&gt;140637602578336 -->
<g id="edge12" class="edge">
<title>140636094481808&#45;&gt;140637602578336</title>
<path fill="none" stroke="black" d="M5133.81,-1253.95C5261.61,-1235.91 5458.03,-1208.17 5555.7,-1194.38"/>
<polygon fill="black" stroke="black" points="5556.28,-1197.84 5565.69,-1192.97 5555.3,-1190.91 5556.28,-1197.84"/>
<text text-anchor="middle" x="5355.07" y="-1224.8" font-family="Times,serif" font-size="14.00">0</text>
</g>
<!-- 140637602594928 -->
<g id="node13" class="node">
<title>140637602594928</title>
<ellipse fill="none" stroke="black" cx="4751.07" cy="-1131" rx="54.69" ry="18"/>
<text text-anchor="middle" x="4751.07" y="-1127.3" font-family="Times,serif" font-size="14.00">Getter#3</text>
</g>
<!-- 140636094481808&#45;&gt;140637602594928 -->
<g id="edge13" class="edge">
<title>140636094481808&#45;&gt;140637602594928</title>
<path fill="none" stroke="black" d="M4980.95,-1253.96C4932.06,-1228.02 4839.27,-1178.79 4787.79,-1151.48"/>
<polygon fill="black" stroke="black" points="4789.15,-1148.24 4778.68,-1146.65 4785.87,-1154.42 4789.15,-1148.24"/>
<text text-anchor="middle" x="4952.07" y="-1224.8" font-family="Times,serif" font-size="14.00">0</text>
</g>
<!-- 140636094482048 -->
<g id="node24" class="node">
<title>140636094482048</title>
<polygon fill="none" stroke="black" points="1786.07,-1095 26.07,-1095 26.07,-1059 1786.07,-1059 1786.07,-1095"/>
<text text-anchor="middle" x="906.07" y="-1073.3" font-family="Times,serif" font-size="14.00">TargetEncoder(cols=[&#39;C1&#39;, &#39;banner_pos&#39;, &#39;site_id&#39;, &#39;site_domain&#39;, &#39;site_category&#39;, &#39;app_id&#39;, &#39;app_domain&#39;, &#39;app_category&#39;, &#39;device_id&#39;, &#39;device_model&#39;, &#39;device_type&#39;, &#39;device_conn_type&#39;, &#39;C14&#39;, &#39;C15&#39;, &#39;C16&#39;, &#39;C17&#39;, &#39;C18&#39;, &#39;C19&#39;, &#39;C20&#39;, &#39;C21&#39;]).setstate.train</text>
</g>
<!-- 140637602573536&#45;&gt;140636094482048 -->
<g id="edge25" class="edge">
<title>140637602573536&#45;&gt;140636094482048</title>
<path fill="none" stroke="black" d="M845.64,-1166.97C857.22,-1149.92 875.2,-1123.46 888.53,-1103.82"/>
<polygon fill="black" stroke="black" points="891.57,-1105.58 894.29,-1095.34 885.78,-1101.65 891.57,-1105.58"/>
<text text-anchor="middle" x="886.07" y="-1127.3" font-family="Times,serif" font-size="14.00">1</text>
</g>
<!-- 140636094482208 -->
<g id="node27" class="node">
<title>140636094482208</title>
<path fill="none" stroke="black" d="M1849.07,-987C1849.07,-987 109.07,-987 109.07,-987 103.07,-987 97.07,-981 97.07,-975 97.07,-975 97.07,-963 97.07,-963 97.07,-957 103.07,-951 109.07,-951 109.07,-951 1849.07,-951 1849.07,-951 1855.07,-951 1861.07,-957 1861.07,-963 1861.07,-963 1861.07,-975 1861.07,-975 1861.07,-981 1855.07,-987 1849.07,-987"/>
<text text-anchor="middle" x="979.07" y="-965.3" font-family="Times,serif" font-size="14.00">TargetEncoder(cols=[&#39;C1&#39;, &#39;banner_pos&#39;, &#39;site_id&#39;, &#39;site_domain&#39;, &#39;site_category&#39;, &#39;app_id&#39;, &#39;app_domain&#39;, &#39;app_category&#39;, &#39;device_id&#39;, &#39;device_model&#39;, &#39;device_type&#39;, &#39;device_conn_type&#39;, &#39;C14&#39;, &#39;C15&#39;, &#39;C16&#39;, &#39;C17&#39;, &#39;C18&#39;, &#39;C19&#39;, &#39;C20&#39;, &#39;C21&#39;]).setstate.apply</text>
</g>
<!-- 140637602573536&#45;&gt;140636094482208 -->
<g id="edge28" class="edge">
<title>140637602573536&#45;&gt;140636094482208</title>
<path fill="none" stroke="black" d="M780,-1182.28C604.45,-1176.16 58.82,-1152.61 7.07,-1095 -3.62,-1083.1 -0.59,-1073.04 7.07,-1059 28.34,-1020.05 48.74,-1018.34 91.07,-1005 113.7,-997.87 176.7,-992.14 259.38,-987.56"/>
<polygon fill="black" stroke="black" points="259.76,-991.04 269.55,-987.01 259.38,-984.06 259.76,-991.04"/>
<text text-anchor="middle" x="12.07" y="-1073.3" font-family="Times,serif" font-size="14.00">1</text>
</g>
<!-- 140636094482608 -->
<g id="node35" class="node">
<title>140636094482608</title>
<path fill="none" stroke="black" d="M3791.07,-987C3791.07,-987 2051.07,-987 2051.07,-987 2045.07,-987 2039.07,-981 2039.07,-975 2039.07,-975 2039.07,-963 2039.07,-963 2039.07,-957 2045.07,-951 2051.07,-951 2051.07,-951 3791.07,-951 3791.07,-951 3797.07,-951 3803.07,-957 3803.07,-963 3803.07,-963 3803.07,-975 3803.07,-975 3803.07,-981 3797.07,-987 3791.07,-987"/>
<text text-anchor="middle" x="2921.07" y="-965.3" font-family="Times,serif" font-size="14.00">TargetEncoder(cols=[&#39;C1&#39;, &#39;banner_pos&#39;, &#39;site_id&#39;, &#39;site_domain&#39;, &#39;site_category&#39;, &#39;app_id&#39;, &#39;app_domain&#39;, &#39;app_category&#39;, &#39;device_id&#39;, &#39;device_model&#39;, &#39;device_type&#39;, &#39;device_conn_type&#39;, &#39;C14&#39;, &#39;C15&#39;, &#39;C16&#39;, &#39;C17&#39;, &#39;C18&#39;, &#39;C19&#39;, &#39;C20&#39;, &#39;C21&#39;]).setstate.apply</text>
</g>
<!-- 140637602578240&#45;&gt;140636094482608 -->
<g id="edge44" class="edge">
<title>140637602578240&#45;&gt;140636094482608</title>
<path fill="none" stroke="black" d="M3756.28,-1121.51C3619.3,-1096.66 3216.8,-1023.65 3025.01,-988.85"/>
<polygon fill="black" stroke="black" points="3025.38,-985.36 3014.92,-987.02 3024.13,-992.25 3025.38,-985.36"/>
<text text-anchor="middle" x="3602.07" y="-1073.3" font-family="Times,serif" font-size="14.00">1</text>
</g>
<!-- 140636094482368 -->
<g id="node48" class="node">
<title>140636094482368</title>
<polygon fill="none" stroke="black" points="7403.07,-1095 5643.07,-1095 5643.07,-1059 7403.07,-1059 7403.07,-1095"/>
<text text-anchor="middle" x="6523.07" y="-1073.3" font-family="Times,serif" font-size="14.00">TargetEncoder(cols=[&#39;C1&#39;, &#39;banner_pos&#39;, &#39;site_id&#39;, &#39;site_domain&#39;, &#39;site_category&#39;, &#39;app_id&#39;, &#39;app_domain&#39;, &#39;app_category&#39;, &#39;device_id&#39;, &#39;device_model&#39;, &#39;device_type&#39;, &#39;device_conn_type&#39;, &#39;C14&#39;, &#39;C15&#39;, &#39;C16&#39;, &#39;C17&#39;, &#39;C18&#39;, &#39;C19&#39;, &#39;C20&#39;, &#39;C21&#39;]).setstate.train</text>
</g>
<!-- 140637602578336&#45;&gt;140636094482368 -->
<g id="edge65" class="edge">
<title>140637602578336&#45;&gt;140636094482368</title>
<path fill="none" stroke="black" d="M5665.84,-1178.07C5798.21,-1162.62 6158.13,-1120.6 6367.11,-1096.21"/>
<polygon fill="black" stroke="black" points="6367.73,-1099.66 6377.26,-1095.02 6366.92,-1092.71 6367.73,-1099.66"/>
<text text-anchor="middle" x="6208.07" y="-1127.3" font-family="Times,serif" font-size="14.00">1</text>
</g>
<!-- 140636094482688 -->
<g id="node51" class="node">
<title>140636094482688</title>
<path fill="none" stroke="black" d="M7393.07,-987C7393.07,-987 5653.07,-987 5653.07,-987 5647.07,-987 5641.07,-981 5641.07,-975 5641.07,-975 5641.07,-963 5641.07,-963 5641.07,-957 5647.07,-951 5653.07,-951 5653.07,-951 7393.07,-951 7393.07,-951 7399.07,-951 7405.07,-957 7405.07,-963 7405.07,-963 7405.07,-975 7405.07,-975 7405.07,-981 7399.07,-987 7393.07,-987"/>
<text text-anchor="middle" x="6523.07" y="-965.3" font-family="Times,serif" font-size="14.00">TargetEncoder(cols=[&#39;C1&#39;, &#39;banner_pos&#39;, &#39;site_id&#39;, &#39;site_domain&#39;, &#39;site_category&#39;, &#39;app_id&#39;, &#39;app_domain&#39;, &#39;app_category&#39;, &#39;device_id&#39;, &#39;device_model&#39;, &#39;device_type&#39;, &#39;device_conn_type&#39;, &#39;C14&#39;, &#39;C15&#39;, &#39;C16&#39;, &#39;C17&#39;, &#39;C18&#39;, &#39;C19&#39;, &#39;C20&#39;, &#39;C21&#39;]).setstate.apply</text>
</g>
<!-- 140637602578336&#45;&gt;140636094482688 -->
<g id="edge68" class="edge">
<title>140637602578336&#45;&gt;140636094482688</title>
<path fill="none" stroke="black" d="M5609.93,-1166.87C5600.32,-1130.9 5584.4,-1047.36 5629.07,-1005 5636.56,-997.9 5679.49,-992.24 5742.81,-987.72"/>
<polygon fill="black" stroke="black" points="5743.41,-991.19 5753.14,-987.01 5742.92,-984.21 5743.41,-991.19"/>
<text text-anchor="middle" x="5606.07" y="-1073.3" font-family="Times,serif" font-size="14.00">1</text>
</g>
<!-- 140636094483808 -->
<g id="node59" class="node">
<title>140636094483808</title>
<path fill="none" stroke="black" d="M5573.07,-987C5573.07,-987 3833.07,-987 3833.07,-987 3827.07,-987 3821.07,-981 3821.07,-975 3821.07,-975 3821.07,-963 3821.07,-963 3821.07,-957 3827.07,-951 3833.07,-951 3833.07,-951 5573.07,-951 5573.07,-951 5579.07,-951 5585.07,-957 5585.07,-963 5585.07,-963 5585.07,-975 5585.07,-975 5585.07,-981 5579.07,-987 5573.07,-987"/>
<text text-anchor="middle" x="4703.07" y="-965.3" font-family="Times,serif" font-size="14.00">TargetEncoder(cols=[&#39;C1&#39;, &#39;banner_pos&#39;, &#39;site_id&#39;, &#39;site_domain&#39;, &#39;site_category&#39;, &#39;app_id&#39;, &#39;app_domain&#39;, &#39;app_category&#39;, &#39;device_id&#39;, &#39;device_model&#39;, &#39;device_type&#39;, &#39;device_conn_type&#39;, &#39;C14&#39;, &#39;C15&#39;, &#39;C16&#39;, &#39;C17&#39;, &#39;C18&#39;, &#39;C19&#39;, &#39;C20&#39;, &#39;C21&#39;]).setstate.apply</text>
</g>
<!-- 140637602594928&#45;&gt;140636094483808 -->
<g id="edge84" class="edge">
<title>140637602594928&#45;&gt;140636094483808</title>
<path fill="none" stroke="black" d="M4745.94,-1112.88C4737.64,-1085.23 4721.23,-1030.54 4711.3,-997.42"/>
<polygon fill="black" stroke="black" points="4714.54,-996.06 4708.32,-987.48 4707.84,-998.07 4714.54,-996.06"/>
<text text-anchor="middle" x="4745.07" y="-1073.3" font-family="Times,serif" font-size="14.00">1</text>
</g>
<!-- 140637602595360 -->
<g id="node14" class="node">
<title>140637602595360</title>
<path fill="none" stroke="black" d="M5728.07,-32.73C5728.07,-34.53 5707.01,-36 5681.07,-36 5655.14,-36 5634.07,-34.53 5634.07,-32.73 5634.07,-32.73 5634.07,-3.27 5634.07,-3.27 5634.07,-1.47 5655.14,0 5681.07,0 5707.01,0 5728.07,-1.47 5728.07,-3.27 5728.07,-3.27 5728.07,-32.73 5728.07,-32.73"/>
<path fill="none" stroke="black" d="M5728.07,-32.73C5728.07,-30.92 5707.01,-29.45 5681.07,-29.45 5655.14,-29.45 5634.07,-30.92 5634.07,-32.73"/>
<text text-anchor="middle" x="5681.07" y="-14.3" font-family="Times,serif" font-size="14.00">Committer</text>
</g>
<!-- 140637602595696 -->
<g id="node15" class="node">
<title>140637602595696</title>
<path fill="none" stroke="black" d="M639.07,-929.73C639.07,-931.53 622.49,-933 602.07,-933 581.66,-933 565.07,-931.53 565.07,-929.73 565.07,-929.73 565.07,-900.27 565.07,-900.27 565.07,-898.47 581.66,-897 602.07,-897 622.49,-897 639.07,-898.47 639.07,-900.27 639.07,-900.27 639.07,-929.73 639.07,-929.73"/>
<path fill="none" stroke="black" d="M639.07,-929.73C639.07,-927.92 622.49,-926.45 602.07,-926.45 581.66,-926.45 565.07,-927.92 565.07,-929.73"/>
<text text-anchor="middle" x="602.07" y="-911.3" font-family="Times,serif" font-size="14.00">Dumper</text>
</g>
<!-- 140637602595696&#45;&gt;140637602595360 -->
<g id="edge14" class="edge">
<title>140637602595696&#45;&gt;140637602595360</title>
<path fill="none" stroke="black" stroke-dasharray="1,5" d="M625.48,-896.94C648.45,-878.03 680.07,-845.24 680.07,-808 680.07,-808 680.07,-808 680.07,-104 680.07,-38.92 5069.73,-21.18 5623.83,-19.2"/>
<polygon fill="black" stroke="black" points="5623.99,-22.69 5633.97,-19.16 5623.96,-15.69 5623.99,-22.69"/>
<text text-anchor="middle" x="685.07" y="-479.3" font-family="Times,serif" font-size="14.00">0</text>
</g>
<!-- 140637602596464 -->
<g id="node16" class="node">
<title>140637602596464</title>
<path fill="none" stroke="black" d="M1345.07,-713.73C1345.07,-715.53 1328.49,-717 1308.07,-717 1287.66,-717 1271.07,-715.53 1271.07,-713.73 1271.07,-713.73 1271.07,-684.27 1271.07,-684.27 1271.07,-682.47 1287.66,-681 1308.07,-681 1328.49,-681 1345.07,-682.47 1345.07,-684.27 1345.07,-684.27 1345.07,-713.73 1345.07,-713.73"/>
<path fill="none" stroke="black" d="M1345.07,-713.73C1345.07,-711.92 1328.49,-710.45 1308.07,-710.45 1287.66,-710.45 1271.07,-711.92 1271.07,-713.73"/>
<text text-anchor="middle" x="1308.07" y="-695.3" font-family="Times,serif" font-size="14.00">Dumper</text>
</g>
<!-- 140637602596464&#45;&gt;140637602595360 -->
<g id="edge15" class="edge">
<title>140637602596464&#45;&gt;140637602595360</title>
<path fill="none" stroke="black" stroke-dasharray="1,5" d="M1311.23,-680.81C1314.78,-659.9 1320.07,-623.48 1320.07,-592 1320.07,-592 1320.07,-592 1320.07,-104 1320.07,-47.52 5110.61,-22.47 5623.82,-19.34"/>
<polygon fill="black" stroke="black" points="5623.97,-22.84 5633.95,-19.28 5623.93,-15.84 5623.97,-22.84"/>
<text text-anchor="middle" x="1325.07" y="-371.3" font-family="Times,serif" font-size="14.00">1</text>
</g>
<!-- 140637602597424 -->
<g id="node17" class="node">
<title>140637602597424</title>
<path fill="none" stroke="black" d="M2833.07,-497.73C2833.07,-499.53 2816.49,-501 2796.07,-501 2775.66,-501 2759.07,-499.53 2759.07,-497.73 2759.07,-497.73 2759.07,-468.27 2759.07,-468.27 2759.07,-466.47 2775.66,-465 2796.07,-465 2816.49,-465 2833.07,-466.47 2833.07,-468.27 2833.07,-468.27 2833.07,-497.73 2833.07,-497.73"/>
<path fill="none" stroke="black" d="M2833.07,-497.73C2833.07,-495.92 2816.49,-494.45 2796.07,-494.45 2775.66,-494.45 2759.07,-495.92 2759.07,-497.73"/>
<text text-anchor="middle" x="2796.07" y="-479.3" font-family="Times,serif" font-size="14.00">Dumper</text>
</g>
<!-- 140637602597424&#45;&gt;140637602595360 -->
<g id="edge16" class="edge">
<title>140637602597424&#45;&gt;140637602595360</title>
<path fill="none" stroke="black" stroke-dasharray="1,5" d="M2833.22,-477.51C2980.45,-459.61 3515.07,-393.41 3515.07,-376 3515.07,-376 3515.07,-376 3515.07,-104 3515.07,-49.63 5281.24,-24.14 5623.89,-19.71"/>
<polygon fill="black" stroke="black" points="5624.12,-23.21 5634.07,-19.58 5624.03,-16.21 5624.12,-23.21"/>
<text text-anchor="middle" x="3520.07" y="-263.3" font-family="Times,serif" font-size="14.00">2</text>
</g>
<!-- 140636094292672 -->
<g id="node18" class="node">
<title>140636094292672</title>
<path fill="none" stroke="black" d="M5718.07,-119.73C5718.07,-121.53 5701.49,-123 5681.07,-123 5660.66,-123 5644.07,-121.53 5644.07,-119.73 5644.07,-119.73 5644.07,-90.27 5644.07,-90.27 5644.07,-88.47 5660.66,-87 5681.07,-87 5701.49,-87 5718.07,-88.47 5718.07,-90.27 5718.07,-90.27 5718.07,-119.73 5718.07,-119.73"/>
<path fill="none" stroke="black" d="M5718.07,-119.73C5718.07,-117.92 5701.49,-116.45 5681.07,-116.45 5660.66,-116.45 5644.07,-117.92 5644.07,-119.73"/>
<text text-anchor="middle" x="5681.07" y="-101.3" font-family="Times,serif" font-size="14.00">Dumper</text>
</g>
<!-- 140636094292672&#45;&gt;140637602595360 -->
<g id="edge17" class="edge">
<title>140636094292672&#45;&gt;140637602595360</title>
<path fill="none" stroke="black" stroke-dasharray="1,5" d="M5681.07,-86.8C5681.07,-75.16 5681.07,-59.55 5681.07,-46.24"/>
<polygon fill="black" stroke="black" points="5684.57,-46.18 5681.07,-36.18 5677.57,-46.18 5684.57,-46.18"/>
<text text-anchor="middle" x="5686.07" y="-57.8" font-family="Times,serif" font-size="14.00">3</text>
</g>
<!-- 140637602597472 -->
<g id="node19" class="node">
<title>140637602597472</title>
<path fill="none" stroke="black" d="M2547.07,-389.73C2547.07,-391.53 2530.49,-393 2510.07,-393 2489.66,-393 2473.07,-391.53 2473.07,-389.73 2473.07,-389.73 2473.07,-360.27 2473.07,-360.27 2473.07,-358.47 2489.66,-357 2510.07,-357 2530.49,-357 2547.07,-358.47 2547.07,-360.27 2547.07,-360.27 2547.07,-389.73 2547.07,-389.73"/>
<path fill="none" stroke="black" d="M2547.07,-389.73C2547.07,-387.92 2530.49,-386.45 2510.07,-386.45 2489.66,-386.45 2473.07,-387.92 2473.07,-389.73"/>
<text text-anchor="middle" x="2510.07" y="-371.3" font-family="Times,serif" font-size="14.00">Dumper</text>
</g>
<!-- 140637602597472&#45;&gt;140637602595360 -->
<g id="edge18" class="edge">
<title>140637602597472&#45;&gt;140637602595360</title>
<path fill="none" stroke="black" stroke-dasharray="1,5" d="M2547.25,-373.78C2660.58,-372.1 2994.07,-359.4 2994.07,-268 2994.07,-268 2994.07,-268 2994.07,-104 2994.07,9.21 3388.05,-60.47 3501.07,-54 3931.74,-29.35 5323.57,-20.85 5623.7,-19.28"/>
<polygon fill="black" stroke="black" points="5623.93,-22.78 5633.91,-19.23 5623.89,-15.78 5623.93,-22.78"/>
<text text-anchor="middle" x="2999.07" y="-209.3" font-family="Times,serif" font-size="14.00">4</text>
</g>
<!-- 140636094292336 -->
<g id="node20" class="node">
<title>140636094292336</title>
<path fill="none" stroke="black" d="M7578.07,-821.73C7578.07,-823.53 7561.49,-825 7541.07,-825 7520.66,-825 7504.07,-823.53 7504.07,-821.73 7504.07,-821.73 7504.07,-792.27 7504.07,-792.27 7504.07,-790.47 7520.66,-789 7541.07,-789 7561.49,-789 7578.07,-790.47 7578.07,-792.27 7578.07,-792.27 7578.07,-821.73 7578.07,-821.73"/>
<path fill="none" stroke="black" d="M7578.07,-821.73C7578.07,-819.92 7561.49,-818.45 7541.07,-818.45 7520.66,-818.45 7504.07,-819.92 7504.07,-821.73"/>
<text text-anchor="middle" x="7541.07" y="-803.3" font-family="Times,serif" font-size="14.00">Dumper</text>
</g>
<!-- 140636094292336&#45;&gt;140637602595360 -->
<g id="edge19" class="edge">
<title>140636094292336&#45;&gt;140637602595360</title>
<path fill="none" stroke="black" stroke-dasharray="1,5" d="M7574.3,-789.95C7605.06,-772.49 7646.07,-741.44 7646.07,-700 7646.07,-700 7646.07,-700 7646.07,-104 7646.07,-54.94 6061.62,-25.45 5738.27,-19.94"/>
<polygon fill="black" stroke="black" points="5738.25,-16.44 5728.19,-19.77 5738.13,-23.44 5738.25,-16.44"/>
<text text-anchor="middle" x="7651.07" y="-425.3" font-family="Times,serif" font-size="14.00">5</text>
</g>
<!-- 140637602597904 -->
<g id="node21" class="node">
<title>140637602597904</title>
<path fill="none" stroke="black" d="M6431.07,-605.73C6431.07,-607.53 6414.49,-609 6394.07,-609 6373.66,-609 6357.07,-607.53 6357.07,-605.73 6357.07,-605.73 6357.07,-576.27 6357.07,-576.27 6357.07,-574.47 6373.66,-573 6394.07,-573 6414.49,-573 6431.07,-574.47 6431.07,-576.27 6431.07,-576.27 6431.07,-605.73 6431.07,-605.73"/>
<path fill="none" stroke="black" d="M6431.07,-605.73C6431.07,-603.92 6414.49,-602.45 6394.07,-602.45 6373.66,-602.45 6357.07,-603.92 6357.07,-605.73"/>
<text text-anchor="middle" x="6394.07" y="-587.3" font-family="Times,serif" font-size="14.00">Dumper</text>
</g>
<!-- 140637602597904&#45;&gt;140637602595360 -->
<g id="edge20" class="edge">
<title>140637602597904&#45;&gt;140637602595360</title>
<path fill="none" stroke="black" stroke-dasharray="1,5" d="M6375.56,-572.79C6356.66,-553.25 6330.07,-519.47 6330.07,-484 6330.07,-484 6330.07,-484 6330.07,-104 6330.07,-44.58 5896.85,-25.52 5738.31,-20.53"/>
<polygon fill="black" stroke="black" points="5738.37,-17.03 5728.27,-20.22 5738.16,-24.03 5738.37,-17.03"/>
<text text-anchor="middle" x="6335.07" y="-317.3" font-family="Times,serif" font-size="14.00">6</text>
</g>
<!-- 140637602600208 -->
<g id="node22" class="node">
<title>140637602600208</title>
<path fill="none" stroke="black" d="M6075.07,-173.73C6075.07,-175.53 6058.49,-177 6038.07,-177 6017.66,-177 6001.07,-175.53 6001.07,-173.73 6001.07,-173.73 6001.07,-144.27 6001.07,-144.27 6001.07,-142.47 6017.66,-141 6038.07,-141 6058.49,-141 6075.07,-142.47 6075.07,-144.27 6075.07,-144.27 6075.07,-173.73 6075.07,-173.73"/>
<path fill="none" stroke="black" d="M6075.07,-173.73C6075.07,-171.92 6058.49,-170.45 6038.07,-170.45 6017.66,-170.45 6001.07,-171.92 6001.07,-173.73"/>
<text text-anchor="middle" x="6038.07" y="-155.3" font-family="Times,serif" font-size="14.00">Dumper</text>
</g>
<!-- 140637602600208&#45;&gt;140637602595360 -->
<g id="edge21" class="edge">
<title>140637602600208&#45;&gt;140637602595360</title>
<path fill="none" stroke="black" stroke-dasharray="1,5" d="M6034.39,-140.64C6028.35,-116.8 6013.89,-74.55 5984.07,-54 5945.45,-27.38 5815.17,-20.84 5738.59,-19.34"/>
<polygon fill="black" stroke="black" points="5738.21,-15.83 5728.15,-19.16 5738.09,-22.83 5738.21,-15.83"/>
<text text-anchor="middle" x="6034.07" y="-101.3" font-family="Times,serif" font-size="14.00">7</text>
</g>
<!-- 140637602600448 -->
<g id="node23" class="node">
<title>140637602600448</title>
<path fill="none" stroke="black" d="M6012.07,-281.73C6012.07,-283.53 5995.49,-285 5975.07,-285 5954.66,-285 5938.07,-283.53 5938.07,-281.73 5938.07,-281.73 5938.07,-252.27 5938.07,-252.27 5938.07,-250.47 5954.66,-249 5975.07,-249 5995.49,-249 6012.07,-250.47 6012.07,-252.27 6012.07,-252.27 6012.07,-281.73 6012.07,-281.73"/>
<path fill="none" stroke="black" d="M6012.07,-281.73C6012.07,-279.92 5995.49,-278.45 5975.07,-278.45 5954.66,-278.45 5938.07,-279.92 5938.07,-281.73"/>
<text text-anchor="middle" x="5975.07" y="-263.3" font-family="Times,serif" font-size="14.00">Dumper</text>
</g>
<!-- 140637602600448&#45;&gt;140637602595360 -->
<g id="edge22" class="edge">
<title>140637602600448&#45;&gt;140637602595360</title>
<path fill="none" stroke="black" stroke-dasharray="1,5" d="M5971.12,-248.72C5966.92,-233.34 5959.06,-210.86 5946.07,-195 5885.91,-121.53 5787.03,-67.36 5728.58,-39.71"/>
<polygon fill="black" stroke="black" points="5729.75,-36.39 5719.2,-35.34 5726.79,-42.73 5729.75,-36.39"/>
<text text-anchor="middle" x="5932.07" y="-155.3" font-family="Times,serif" font-size="14.00">8</text>
</g>
<!-- 140636094482048&#45;&gt;140637602595696 -->
<g id="edge23" class="edge">
<title>140636094482048&#45;&gt;140637602595696</title>
<path fill="none" stroke="black" stroke-dasharray="1,5" d="M520.02,-1058.99C310.56,-1045.69 87.7,-1023.21 55.07,-987 44.36,-975.11 44.13,-962.67 55.07,-951 88.87,-914.97 427.77,-914.36 554.55,-915.42"/>
<polygon fill="black" stroke="black" points="554.69,-918.92 564.72,-915.51 554.76,-911.92 554.69,-918.92"/>
<text text-anchor="middle" x="304.07" y="-1019.3" font-family="Times,serif" font-size="14.00">0</text>
</g>
<!-- 140636094482048&#45;&gt;140636094482208 -->
<g id="edge27" class="edge">
<title>140636094482048&#45;&gt;140636094482208</title>
<path fill="none" stroke="black" stroke-dasharray="1,5" d="M917.8,-1058.97C929.55,-1041.92 947.77,-1015.46 961.29,-995.82"/>
<polygon fill="black" stroke="black" points="964.34,-997.56 967.13,-987.34 958.58,-993.59 964.34,-997.56"/>
<text text-anchor="middle" x="959.07" y="-1019.3" font-family="Times,serif" font-size="14.00">0</text>
</g>
<!-- 140636094482048&#45;&gt;140636094482608 -->
<g id="edge43" class="edge">
<title>140636094482048&#45;&gt;140636094482608</title>
<path fill="none" stroke="black" stroke-dasharray="1,5" d="M1571.94,-1058.99C1709.26,-1054.21 1852.9,-1048.27 1987.07,-1041 2239.73,-1027.31 2530.28,-1004.04 2719.33,-987.88"/>
<polygon fill="black" stroke="black" points="2719.72,-991.36 2729.38,-987.02 2719.12,-984.39 2719.72,-991.36"/>
<text text-anchor="middle" x="2501.07" y="-1019.3" font-family="Times,serif" font-size="14.00">0</text>
</g>
<!-- 140637602595504 -->
<g id="node25" class="node">
<title>140637602595504</title>
<path fill="none" stroke="black" d="M973.07,-1199.73C973.07,-1201.53 958.28,-1203 940.07,-1203 921.86,-1203 907.07,-1201.53 907.07,-1199.73 907.07,-1199.73 907.07,-1170.27 907.07,-1170.27 907.07,-1168.47 921.86,-1167 940.07,-1167 958.28,-1167 973.07,-1168.47 973.07,-1170.27 973.07,-1170.27 973.07,-1199.73 973.07,-1199.73"/>
<path fill="none" stroke="black" d="M973.07,-1199.73C973.07,-1197.92 958.28,-1196.45 940.07,-1196.45 921.86,-1196.45 907.07,-1197.92 907.07,-1199.73"/>
<text text-anchor="middle" x="940.07" y="-1181.3" font-family="Times,serif" font-size="14.00">Loader</text>
</g>
<!-- 140637602595504&#45;&gt;140636094482048 -->
<g id="edge24" class="edge">
<title>140637602595504&#45;&gt;140636094482048</title>
<path fill="none" stroke="black" stroke-dasharray="1,5" d="M934.61,-1166.97C929.24,-1150.22 920.96,-1124.41 914.7,-1104.89"/>
<polygon fill="black" stroke="black" points="918.02,-1103.79 911.64,-1095.34 911.36,-1105.93 918.02,-1103.79"/>
<text text-anchor="middle" x="934.07" y="-1127.3" font-family="Times,serif" font-size="14.00">0</text>
</g>
<!-- 140637602552784 -->
<g id="node26" class="node">
<title>140637602552784</title>
<ellipse fill="none" stroke="black" cx="1973.07" cy="-1185" rx="54.69" ry="18"/>
<text text-anchor="middle" x="1973.07" y="-1181.3" font-family="Times,serif" font-size="14.00">Getter#0</text>
</g>
<!-- 140637602552784&#45;&gt;140636094482048 -->
<g id="edge26" class="edge">
<title>140637602552784&#45;&gt;140636094482048</title>
<path fill="none" stroke="black" d="M1921.61,-1178.89C1772.92,-1164.12 1337.47,-1120.86 1087.71,-1096.04"/>
<polygon fill="black" stroke="black" points="1087.73,-1092.53 1077.43,-1095.02 1087.04,-1099.5 1087.73,-1092.53"/>
<text text-anchor="middle" x="1603.07" y="-1127.3" font-family="Times,serif" font-size="14.00">2</text>
</g>
<!-- 140636094482288 -->
<g id="node28" class="node">
<title>140636094482288</title>
<polygon fill="none" stroke="black" points="1940.07,-879 1720.07,-879 1720.07,-843 1940.07,-843 1940.07,-879"/>
<text text-anchor="middle" x="1830.07" y="-857.3" font-family="Times,serif" font-size="14.00">MinMaxScaler.setstate.train</text>
</g>
<!-- 140637602552784&#45;&gt;140636094482288 -->
<g id="edge32" class="edge">
<title>140637602552784&#45;&gt;140636094482288</title>
<path fill="none" stroke="black" d="M1975.62,-1166.86C1980.75,-1126.82 1989.09,-1024.9 1954.07,-951 1939.65,-920.56 1908.97,-898.4 1881.74,-883.81"/>
<polygon fill="black" stroke="black" points="1883.16,-880.6 1872.67,-879.15 1879.96,-886.83 1883.16,-880.6"/>
<text text-anchor="middle" x="1983.07" y="-1019.3" font-family="Times,serif" font-size="14.00">2</text>
</g>
<!-- 140636094482528 -->
<g id="node31" class="node">
<title>140636094482528</title>
<polygon fill="none" stroke="black" points="2265.57,-663 1816.57,-663 1816.57,-627 2265.57,-627 2265.57,-663"/>
<text text-anchor="middle" x="2041.07" y="-641.3" font-family="Times,serif" font-size="14.00">GradientBoostingClassifier(random_state=42).setstate.train</text>
</g>
<!-- 140637602552784&#45;&gt;140636094482528 -->
<g id="edge38" class="edge">
<title>140637602552784&#45;&gt;140636094482528</title>
<path fill="none" stroke="black" d="M1984.01,-1167.02C1987.26,-1161.44 1990.61,-1155.1 1993.07,-1149 2005.26,-1118.81 2011.07,-1110.55 2011.07,-1078 2011.07,-1078 2011.07,-1078 2011.07,-752 2011.07,-724.1 2020.82,-693.57 2029.2,-672.47"/>
<polygon fill="black" stroke="black" points="2032.44,-673.79 2033.03,-663.21 2025.98,-671.11 2032.44,-673.79"/>
<text text-anchor="middle" x="2016.07" y="-911.3" font-family="Times,serif" font-size="14.00">2</text>
</g>
<!-- 140636094481968 -->
<g id="node33" class="node">
<title>140636094481968</title>
<polygon fill="none" stroke="black" points="1798.57,-663 1371.57,-663 1371.57,-627 1798.57,-627 1798.57,-663"/>
<text text-anchor="middle" x="1585.07" y="-641.3" font-family="Times,serif" font-size="14.00">RandomForestClassifier(random_state=42).setstate.train</text>
</g>
<!-- 140637602552784&#45;&gt;140636094481968 -->
<g id="edge42" class="edge">
<title>140637602552784&#45;&gt;140636094481968</title>
<path fill="none" stroke="black" d="M1956.71,-1167.67C1927.33,-1139.55 1862.39,-1082.71 1795.07,-1059 1447.66,-936.61 1336.07,-1020.77 968.07,-1005 943.65,-1003.95 105.18,-1004.46 88.07,-987 76.88,-975.57 76.94,-962.49 88.07,-951 109.73,-928.64 617.22,-937.15 648.07,-933 919.86,-896.41 977.92,-836.14 1248.07,-789 1319.87,-776.47 1343.03,-797.12 1411.07,-771 1470.62,-748.15 1528.46,-699.83 1560.16,-670.41"/>
<polygon fill="black" stroke="black" points="1562.76,-672.77 1567.65,-663.37 1557.97,-667.67 1562.76,-672.77"/>
<text text-anchor="middle" x="841.07" y="-911.3" font-family="Times,serif" font-size="14.00">2</text>
</g>
<!-- 140636094482208&#45;&gt;140636094482288 -->
<g id="edge31" class="edge">
<title>140636094482208&#45;&gt;140636094482288</title>
<path fill="none" stroke="black" d="M1115.8,-950.97C1280.05,-930.51 1552.98,-896.51 1709.62,-877"/>
<polygon fill="black" stroke="black" points="1710.27,-880.45 1719.77,-875.74 1709.41,-873.5 1710.27,-880.45"/>
<text text-anchor="middle" x="1536.07" y="-911.3" font-family="Times,serif" font-size="14.00">1</text>
</g>
<!-- 140636094482448 -->
<g id="node30" class="node">
<title>140636094482448</title>
<path fill="none" stroke="black" d="M1744.07,-771C1744.07,-771 1544.07,-771 1544.07,-771 1538.07,-771 1532.07,-765 1532.07,-759 1532.07,-759 1532.07,-747 1532.07,-747 1532.07,-741 1538.07,-735 1544.07,-735 1544.07,-735 1744.07,-735 1744.07,-735 1750.07,-735 1756.07,-741 1756.07,-747 1756.07,-747 1756.07,-759 1756.07,-759 1756.07,-765 1750.07,-771 1744.07,-771"/>
<text text-anchor="middle" x="1644.07" y="-749.3" font-family="Times,serif" font-size="14.00">MinMaxScaler.setstate.apply</text>
</g>
<!-- 140636094482208&#45;&gt;140636094482448 -->
<g id="edge34" class="edge">
<title>140636094482208&#45;&gt;140636094482448</title>
<path fill="none" stroke="black" d="M1006.35,-951C1066.32,-914.53 1215.18,-828.86 1352.07,-789 1383.49,-779.85 1456.64,-771.09 1521.86,-764.62"/>
<polygon fill="black" stroke="black" points="1522.23,-768.1 1531.84,-763.64 1521.55,-761.14 1522.23,-768.1"/>
<text text-anchor="middle" x="1210.07" y="-857.3" font-family="Times,serif" font-size="14.00">1</text>
</g>
<!-- 140636094482288&#45;&gt;140637602596464 -->
<g id="edge29" class="edge">
<title>140636094482288&#45;&gt;140637602596464</title>
<path fill="none" stroke="black" stroke-dasharray="1,5" d="M1719.88,-854.09C1589.51,-844.84 1383.08,-822.36 1327.07,-771 1315.12,-760.03 1310.35,-742.45 1308.58,-727.52"/>
<polygon fill="black" stroke="black" points="1312.05,-726.95 1307.76,-717.26 1305.07,-727.5 1312.05,-726.95"/>
<text text-anchor="middle" x="1478.07" y="-803.3" font-family="Times,serif" font-size="14.00">0</text>
</g>
<!-- 140636094482288&#45;&gt;140636094482448 -->
<g id="edge33" class="edge">
<title>140636094482288&#45;&gt;140636094482448</title>
<path fill="none" stroke="black" stroke-dasharray="1,5" d="M1800.19,-842.97C1768.42,-824.86 1718.05,-796.16 1683.15,-776.27"/>
<polygon fill="black" stroke="black" points="1684.61,-773.07 1674.19,-771.16 1681.15,-779.16 1684.61,-773.07"/>
<text text-anchor="middle" x="1770.07" y="-803.3" font-family="Times,serif" font-size="14.00">0</text>
</g>
<!-- 140636094482768 -->
<g id="node36" class="node">
<title>140636094482768</title>
<path fill="none" stroke="black" d="M2616.07,-717C2616.07,-717 2416.07,-717 2416.07,-717 2410.07,-717 2404.07,-711 2404.07,-705 2404.07,-705 2404.07,-693 2404.07,-693 2404.07,-687 2410.07,-681 2416.07,-681 2416.07,-681 2616.07,-681 2616.07,-681 2622.07,-681 2628.07,-687 2628.07,-693 2628.07,-693 2628.07,-705 2628.07,-705 2628.07,-711 2622.07,-717 2616.07,-717"/>
<text text-anchor="middle" x="2516.07" y="-695.3" font-family="Times,serif" font-size="14.00">MinMaxScaler.setstate.apply</text>
</g>
<!-- 140636094482288&#45;&gt;140636094482768 -->
<g id="edge45" class="edge">
<title>140636094482288&#45;&gt;140636094482768</title>
<path fill="none" stroke="black" stroke-dasharray="1,5" d="M1903.16,-842.95C2031.82,-812.94 2297.91,-750.88 2433.2,-719.33"/>
<polygon fill="black" stroke="black" points="2434.16,-722.7 2443.1,-717.02 2432.57,-715.88 2434.16,-722.7"/>
<text text-anchor="middle" x="2135.07" y="-803.3" font-family="Times,serif" font-size="14.00">0</text>
</g>
<!-- 140637602596608 -->
<g id="node29" class="node">
<title>140637602596608</title>
<path fill="none" stroke="black" d="M1945.07,-983.73C1945.07,-985.53 1930.28,-987 1912.07,-987 1893.86,-987 1879.07,-985.53 1879.07,-983.73 1879.07,-983.73 1879.07,-954.27 1879.07,-954.27 1879.07,-952.47 1893.86,-951 1912.07,-951 1930.28,-951 1945.07,-952.47 1945.07,-954.27 1945.07,-954.27 1945.07,-983.73 1945.07,-983.73"/>
<path fill="none" stroke="black" d="M1945.07,-983.73C1945.07,-981.92 1930.28,-980.45 1912.07,-980.45 1893.86,-980.45 1879.07,-981.92 1879.07,-983.73"/>
<text text-anchor="middle" x="1912.07" y="-965.3" font-family="Times,serif" font-size="14.00">Loader</text>
</g>
<!-- 140637602596608&#45;&gt;140636094482288 -->
<g id="edge30" class="edge">
<title>140637602596608&#45;&gt;140636094482288</title>
<path fill="none" stroke="black" stroke-dasharray="1,5" d="M1898.9,-950.97C1885.59,-933.76 1864.87,-906.98 1849.64,-887.29"/>
<polygon fill="black" stroke="black" points="1852.37,-885.11 1843.49,-879.34 1846.84,-889.39 1852.37,-885.11"/>
<text text-anchor="middle" x="1889.07" y="-911.3" font-family="Times,serif" font-size="14.00">0</text>
</g>
<!-- 140636094482448&#45;&gt;140636094482528 -->
<g id="edge37" class="edge">
<title>140636094482448&#45;&gt;140636094482528</title>
<path fill="none" stroke="black" d="M1707.86,-734.97C1778.65,-716.07 1892.74,-685.61 1967.32,-665.69"/>
<polygon fill="black" stroke="black" points="1968.36,-669.04 1977.12,-663.08 1966.55,-662.27 1968.36,-669.04"/>
<text text-anchor="middle" x="1907.07" y="-695.3" font-family="Times,serif" font-size="14.00">1</text>
</g>
<!-- 140636094482448&#45;&gt;140636094481968 -->
<g id="edge41" class="edge">
<title>140636094482448&#45;&gt;140636094481968</title>
<path fill="none" stroke="black" d="M1634.59,-734.97C1625.15,-717.99 1610.51,-691.7 1599.6,-672.09"/>
<polygon fill="black" stroke="black" points="1602.65,-670.38 1594.73,-663.34 1596.53,-673.78 1602.65,-670.38"/>
<text text-anchor="middle" x="1629.07" y="-695.3" font-family="Times,serif" font-size="14.00">1</text>
</g>
<!-- 140636094482528&#45;&gt;140637602597424 -->
<g id="edge35" class="edge">
<title>140636094482528&#45;&gt;140637602597424</title>
<path fill="none" stroke="black" stroke-dasharray="1,5" d="M2038.78,-626.71C2037.66,-611.31 2038.38,-588.83 2049.07,-573 2077.34,-531.14 2100.46,-532.7 2149.07,-519 2261.76,-487.26 2618.93,-483.99 2748.52,-483.88"/>
<polygon fill="black" stroke="black" points="2748.9,-487.38 2758.9,-483.88 2748.9,-480.38 2748.9,-487.38"/>
<text text-anchor="middle" x="2054.07" y="-587.3" font-family="Times,serif" font-size="14.00">0</text>
</g>
<!-- 140636094482928 -->
<g id="node37" class="node">
<title>140636094482928</title>
<path fill="none" stroke="black" d="M3048.57,-555C3048.57,-555 2619.57,-555 2619.57,-555 2613.57,-555 2607.57,-549 2607.57,-543 2607.57,-543 2607.57,-531 2607.57,-531 2607.57,-525 2613.57,-519 2619.57,-519 2619.57,-519 3048.57,-519 3048.57,-519 3054.57,-519 3060.57,-525 3060.57,-531 3060.57,-531 3060.57,-543 3060.57,-543 3060.57,-549 3054.57,-555 3048.57,-555"/>
<text text-anchor="middle" x="2834.07" y="-533.3" font-family="Times,serif" font-size="14.00">GradientBoostingClassifier(random_state=42).setstate.apply</text>
</g>
<!-- 140636094482528&#45;&gt;140636094482928 -->
<g id="edge47" class="edge">
<title>140636094482528&#45;&gt;140636094482928</title>
<path fill="none" stroke="black" stroke-dasharray="1,5" d="M2168.48,-626.97C2313.03,-607.65 2547.93,-576.25 2696.55,-556.38"/>
<polygon fill="black" stroke="black" points="2697.2,-559.83 2706.65,-555.03 2696.28,-552.89 2697.2,-559.83"/>
<text text-anchor="middle" x="2560.07" y="-587.3" font-family="Times,serif" font-size="14.00">0</text>
</g>
<!-- 140637602597568 -->
<g id="node32" class="node">
<title>140637602597568</title>
<path fill="none" stroke="black" d="M1983.07,-767.73C1983.07,-769.53 1968.28,-771 1950.07,-771 1931.86,-771 1917.07,-769.53 1917.07,-767.73 1917.07,-767.73 1917.07,-738.27 1917.07,-738.27 1917.07,-736.47 1931.86,-735 1950.07,-735 1968.28,-735 1983.07,-736.47 1983.07,-738.27 1983.07,-738.27 1983.07,-767.73 1983.07,-767.73"/>
<path fill="none" stroke="black" d="M1983.07,-767.73C1983.07,-765.92 1968.28,-764.45 1950.07,-764.45 1931.86,-764.45 1917.07,-765.92 1917.07,-767.73"/>
<text text-anchor="middle" x="1950.07" y="-749.3" font-family="Times,serif" font-size="14.00">Loader</text>
</g>
<!-- 140637602597568&#45;&gt;140636094482528 -->
<g id="edge36" class="edge">
<title>140637602597568&#45;&gt;140636094482528</title>
<path fill="none" stroke="black" stroke-dasharray="1,5" d="M1956.15,-734.71C1962.21,-719.31 1972.67,-696.84 1987.07,-681 1991.02,-676.66 1995.62,-672.62 2000.45,-668.96"/>
<polygon fill="black" stroke="black" points="2002.54,-671.76 2008.69,-663.13 1998.5,-666.04 2002.54,-671.76"/>
<text text-anchor="middle" x="1992.07" y="-695.3" font-family="Times,serif" font-size="14.00">0</text>
</g>
<!-- 140636094481968&#45;&gt;140637602597472 -->
<g id="edge39" class="edge">
<title>140636094481968&#45;&gt;140637602597472</title>
<path fill="none" stroke="black" stroke-dasharray="1,5" d="M1643.99,-626.93C1814.93,-577.4 2308.69,-434.35 2463.25,-389.57"/>
<polygon fill="black" stroke="black" points="2464.3,-392.91 2472.93,-386.76 2462.35,-386.18 2464.3,-392.91"/>
<text text-anchor="middle" x="2015.07" y="-533.3" font-family="Times,serif" font-size="14.00">0</text>
</g>
<!-- 140636094483088 -->
<g id="node46" class="node">
<title>140636094483088</title>
<path fill="none" stroke="black" d="M2577.57,-555C2577.57,-555 2170.57,-555 2170.57,-555 2164.57,-555 2158.57,-549 2158.57,-543 2158.57,-543 2158.57,-531 2158.57,-531 2158.57,-525 2164.57,-519 2170.57,-519 2170.57,-519 2577.57,-519 2577.57,-519 2583.57,-519 2589.57,-525 2589.57,-531 2589.57,-531 2589.57,-543 2589.57,-543 2589.57,-549 2583.57,-555 2577.57,-555"/>
<text text-anchor="middle" x="2374.07" y="-533.3" font-family="Times,serif" font-size="14.00">RandomForestClassifier(random_state=42).setstate.apply</text>
</g>
<!-- 140636094481968&#45;&gt;140636094483088 -->
<g id="edge59" class="edge">
<title>140636094481968&#45;&gt;140636094483088</title>
<path fill="none" stroke="black" stroke-dasharray="1,5" d="M1798.63,-627.62C1801.46,-627.41 1804.28,-627.21 1807.07,-627 1920.83,-618.65 1950.39,-626.63 2063.07,-609 2129.53,-598.6 2144.51,-588.02 2210.07,-573 2233.29,-567.68 2258.42,-562.19 2281.86,-557.17"/>
<polygon fill="black" stroke="black" points="2282.75,-560.56 2291.8,-555.06 2281.29,-553.72 2282.75,-560.56"/>
<text text-anchor="middle" x="2215.07" y="-587.3" font-family="Times,serif" font-size="14.00">0</text>
</g>
<!-- 140637602598048 -->
<g id="node34" class="node">
<title>140637602598048</title>
<path fill="none" stroke="black" d="M1402.07,-767.73C1402.07,-769.53 1387.28,-771 1369.07,-771 1350.86,-771 1336.07,-769.53 1336.07,-767.73 1336.07,-767.73 1336.07,-738.27 1336.07,-738.27 1336.07,-736.47 1350.86,-735 1369.07,-735 1387.28,-735 1402.07,-736.47 1402.07,-738.27 1402.07,-738.27 1402.07,-767.73 1402.07,-767.73"/>
<path fill="none" stroke="black" d="M1402.07,-767.73C1402.07,-765.92 1387.28,-764.45 1369.07,-764.45 1350.86,-764.45 1336.07,-765.92 1336.07,-767.73"/>
<text text-anchor="middle" x="1369.07" y="-749.3" font-family="Times,serif" font-size="14.00">Loader</text>
</g>
<!-- 140637602598048&#45;&gt;140636094481968 -->
<g id="edge40" class="edge">
<title>140637602598048&#45;&gt;140636094481968</title>
<path fill="none" stroke="black" stroke-dasharray="1,5" d="M1373.36,-734.84C1378.38,-718.41 1388.37,-694.23 1406.07,-681 1414.17,-674.95 1429.37,-669.74 1447.63,-665.32"/>
<polygon fill="black" stroke="black" points="1448.46,-668.72 1457.43,-663.09 1446.9,-661.9 1448.46,-668.72"/>
<text text-anchor="middle" x="1411.07" y="-695.3" font-family="Times,serif" font-size="14.00">0</text>
</g>
<!-- 140636094482608&#45;&gt;140636094482768 -->
<g id="edge46" class="edge">
<title>140636094482608&#45;&gt;140636094482768</title>
<path fill="none" stroke="black" d="M2895.12,-950.83C2824.69,-904.22 2629.89,-775.32 2550.46,-722.76"/>
<polygon fill="black" stroke="black" points="2552.08,-719.63 2541.81,-717.03 2548.22,-725.47 2552.08,-719.63"/>
<text text-anchor="middle" x="2789.07" y="-857.3" font-family="Times,serif" font-size="14.00">1</text>
</g>
<!-- 140636094482768&#45;&gt;140636094482928 -->
<g id="edge48" class="edge">
<title>140636094482768&#45;&gt;140636094482928</title>
<path fill="none" stroke="black" d="M2550.1,-680.88C2608.29,-651.6 2726.79,-591.98 2790.77,-559.79"/>
<polygon fill="black" stroke="black" points="2792.45,-562.86 2799.81,-555.24 2789.3,-556.61 2792.45,-562.86"/>
<text text-anchor="middle" x="2660.07" y="-641.3" font-family="Times,serif" font-size="14.00">1</text>
</g>
<!-- 140636094482768&#45;&gt;140636094483088 -->
<g id="edge60" class="edge">
<title>140636094482768&#45;&gt;140636094483088</title>
<path fill="none" stroke="black" d="M2509.3,-680.62C2498.36,-654.44 2474.59,-604.59 2441.07,-573 2436.07,-568.28 2430.31,-564.03 2424.3,-560.25"/>
<polygon fill="black" stroke="black" points="2425.8,-557.07 2415.4,-555.05 2422.27,-563.11 2425.8,-557.07"/>
<text text-anchor="middle" x="2507.07" y="-641.3" font-family="Times,serif" font-size="14.00">1</text>
</g>
<!-- 140636094483008 -->
<g id="node38" class="node">
<title>140636094483008</title>
<path fill="none" stroke="black" d="M5871.07,-447C5871.07,-447 5491.07,-447 5491.07,-447 5485.07,-447 5479.07,-441 5479.07,-435 5479.07,-435 5479.07,-423 5479.07,-423 5479.07,-417 5485.07,-411 5491.07,-411 5491.07,-411 5871.07,-411 5871.07,-411 5877.07,-411 5883.07,-417 5883.07,-423 5883.07,-423 5883.07,-435 5883.07,-435 5883.07,-441 5877.07,-447 5871.07,-447"/>
<text text-anchor="middle" x="5681.07" y="-425.3" font-family="Times,serif" font-size="14.00">PandasConcat(axis=&#39;index&#39;, ignore_index=True).apply</text>
</g>
<!-- 140636094482928&#45;&gt;140636094483008 -->
<g id="edge49" class="edge">
<title>140636094482928&#45;&gt;140636094483008</title>
<path fill="none" stroke="black" d="M3060.59,-534.71C3621.67,-531.24 5046.2,-520.6 5261.07,-501 5376.37,-490.49 5507.72,-466.28 5592.37,-449.06"/>
<polygon fill="black" stroke="black" points="5593.1,-452.48 5602.2,-447.05 5591.7,-445.62 5593.1,-452.48"/>
<text text-anchor="middle" x="5505.07" y="-479.3" font-family="Times,serif" font-size="14.00">0</text>
</g>
<!-- 140636094483168 -->
<g id="node40" class="node">
<title>140636094483168</title>
<path fill="none" stroke="black" d="M5883.07,-339C5883.07,-339 5479.07,-339 5479.07,-339 5473.07,-339 5467.07,-333 5467.07,-327 5467.07,-327 5467.07,-315 5467.07,-315 5467.07,-309 5473.07,-303 5479.07,-303 5479.07,-303 5883.07,-303 5883.07,-303 5889.07,-303 5895.07,-309 5895.07,-315 5895.07,-315 5895.07,-327 5895.07,-327 5895.07,-333 5889.07,-339 5883.07,-339"/>
<text text-anchor="middle" x="5681.07" y="-317.3" font-family="Times,serif" font-size="14.00">PandasConcat(axis=&#39;columns&#39;, ignore_index=False).apply</text>
</g>
<!-- 140636094483008&#45;&gt;140636094483168 -->
<g id="edge51" class="edge">
<title>140636094483008&#45;&gt;140636094483168</title>
<path fill="none" stroke="black" d="M5681.07,-410.97C5681.07,-394.38 5681.07,-368.88 5681.07,-349.43"/>
<polygon fill="black" stroke="black" points="5684.57,-349.34 5681.07,-339.34 5677.57,-349.34 5684.57,-349.34"/>
<text text-anchor="middle" x="5686.07" y="-371.3" font-family="Times,serif" font-size="14.00">0</text>
</g>
<!-- 140636094484128 -->
<g id="node39" class="node">
<title>140636094484128</title>
<path fill="none" stroke="black" d="M5921.57,-555C5921.57,-555 5492.57,-555 5492.57,-555 5486.57,-555 5480.57,-549 5480.57,-543 5480.57,-543 5480.57,-531 5480.57,-531 5480.57,-525 5486.57,-519 5492.57,-519 5492.57,-519 5921.57,-519 5921.57,-519 5927.57,-519 5933.57,-525 5933.57,-531 5933.57,-531 5933.57,-543 5933.57,-543 5933.57,-549 5927.57,-555 5921.57,-555"/>
<text text-anchor="middle" x="5707.07" y="-533.3" font-family="Times,serif" font-size="14.00">GradientBoostingClassifier(random_state=42).setstate.apply</text>
</g>
<!-- 140636094484128&#45;&gt;140636094483008 -->
<g id="edge50" class="edge">
<title>140636094484128&#45;&gt;140636094483008</title>
<path fill="none" stroke="black" d="M5702.9,-518.97C5698.81,-502.3 5692.51,-476.65 5687.74,-457.16"/>
<polygon fill="black" stroke="black" points="5691.11,-456.22 5685.33,-447.34 5684.31,-457.89 5691.11,-456.22"/>
<text text-anchor="middle" x="5702.07" y="-479.3" font-family="Times,serif" font-size="14.00">1</text>
</g>
<!-- 140636094483328 -->
<g id="node42" class="node">
<title>140636094483328</title>
<polygon fill="none" stroke="black" points="5936.57,-231 5425.57,-231 5425.57,-195 5936.57,-195 5936.57,-231"/>
<text text-anchor="middle" x="5681.07" y="-209.3" font-family="Times,serif" font-size="14.00">LogisticRegression(max_iter=1000, random_state=42).setstate.train</text>
</g>
<!-- 140636094483168&#45;&gt;140636094483328 -->
<g id="edge55" class="edge">
<title>140636094483168&#45;&gt;140636094483328</title>
<path fill="none" stroke="black" d="M5681.07,-302.97C5681.07,-286.38 5681.07,-260.88 5681.07,-241.43"/>
<polygon fill="black" stroke="black" points="5684.57,-241.34 5681.07,-231.34 5677.57,-241.34 5684.57,-241.34"/>
<text text-anchor="middle" x="5686.07" y="-263.3" font-family="Times,serif" font-size="14.00">1</text>
</g>
<!-- 140636094483488 -->
<g id="node45" class="node">
<title>140636094483488</title>
<polygon fill="none" stroke="black" points="6272.07,-231 6118.07,-231 6118.07,-195 6272.07,-195 6272.07,-231"/>
<text text-anchor="middle" x="6195.07" y="-209.3" font-family="Times,serif" font-size="14.00">Captor(Value).train</text>
</g>
<!-- 140636094483168&#45;&gt;140636094483488 -->
<g id="edge57" class="edge">
<title>140636094483168&#45;&gt;140636094483488</title>
<path fill="none" stroke="black" d="M5895.35,-307.32C5937.41,-302.21 5980.92,-295.04 6021.07,-285 6067.36,-273.43 6117.55,-251.9 6152.08,-235.58"/>
<polygon fill="black" stroke="black" points="6153.88,-238.6 6161.38,-231.12 6150.85,-232.28 6153.88,-238.6"/>
<text text-anchor="middle" x="6126.07" y="-263.3" font-family="Times,serif" font-size="14.00">0</text>
</g>
<!-- 140636094483248 -->
<g id="node41" class="node">
<title>140636094483248</title>
<path fill="none" stroke="black" d="M5437.07,-447C5437.07,-447 5057.07,-447 5057.07,-447 5051.07,-447 5045.07,-441 5045.07,-435 5045.07,-435 5045.07,-423 5045.07,-423 5045.07,-417 5051.07,-411 5057.07,-411 5057.07,-411 5437.07,-411 5437.07,-411 5443.07,-411 5449.07,-417 5449.07,-423 5449.07,-423 5449.07,-435 5449.07,-435 5449.07,-441 5443.07,-447 5437.07,-447"/>
<text text-anchor="middle" x="5247.07" y="-425.3" font-family="Times,serif" font-size="14.00">PandasConcat(axis=&#39;index&#39;, ignore_index=True).apply</text>
</g>
<!-- 140636094483248&#45;&gt;140636094483168 -->
<g id="edge52" class="edge">
<title>140636094483248&#45;&gt;140636094483168</title>
<path fill="none" stroke="black" d="M5316.8,-410.97C5394.51,-391.99 5519.93,-361.36 5601.44,-341.45"/>
<polygon fill="black" stroke="black" points="5602.27,-344.85 5611.16,-339.08 5600.61,-338.05 5602.27,-344.85"/>
<text text-anchor="middle" x="5533.07" y="-371.3" font-family="Times,serif" font-size="14.00">1</text>
</g>
<!-- 140636094483328&#45;&gt;140636094292672 -->
<g id="edge53" class="edge">
<title>140636094483328&#45;&gt;140636094292672</title>
<path fill="none" stroke="black" stroke-dasharray="1,5" d="M5681.07,-194.97C5681.07,-178.38 5681.07,-152.88 5681.07,-133.43"/>
<polygon fill="black" stroke="black" points="5684.57,-133.34 5681.07,-123.34 5677.57,-133.34 5684.57,-133.34"/>
<text text-anchor="middle" x="5686.07" y="-155.3" font-family="Times,serif" font-size="14.00">0</text>
</g>
<!-- 140637602599680 -->
<g id="node43" class="node">
<title>140637602599680</title>
<path fill="none" stroke="black" d="M5449.07,-335.73C5449.07,-337.53 5434.28,-339 5416.07,-339 5397.86,-339 5383.07,-337.53 5383.07,-335.73 5383.07,-335.73 5383.07,-306.27 5383.07,-306.27 5383.07,-304.47 5397.86,-303 5416.07,-303 5434.28,-303 5449.07,-304.47 5449.07,-306.27 5449.07,-306.27 5449.07,-335.73 5449.07,-335.73"/>
<path fill="none" stroke="black" d="M5449.07,-335.73C5449.07,-333.92 5434.28,-332.45 5416.07,-332.45 5397.86,-332.45 5383.07,-333.92 5383.07,-335.73"/>
<text text-anchor="middle" x="5416.07" y="-317.3" font-family="Times,serif" font-size="14.00">Loader</text>
</g>
<!-- 140637602599680&#45;&gt;140636094483328 -->
<g id="edge54" class="edge">
<title>140637602599680&#45;&gt;140636094483328</title>
<path fill="none" stroke="black" stroke-dasharray="1,5" d="M5449.08,-306.62C5452.12,-305.4 5455.15,-304.17 5458.07,-303 5516.57,-279.49 5583.78,-252.69 5629,-234.7"/>
<polygon fill="black" stroke="black" points="5630.3,-237.95 5638.3,-231 5627.71,-231.45 5630.3,-237.95"/>
<text text-anchor="middle" x="5595.07" y="-263.3" font-family="Times,serif" font-size="14.00">0</text>
</g>
<!-- 140636094484688 -->
<g id="node44" class="node">
<title>140636094484688</title>
<path fill="none" stroke="black" d="M8008.07,-1041C8008.07,-1041 7628.07,-1041 7628.07,-1041 7622.07,-1041 7616.07,-1035 7616.07,-1029 7616.07,-1029 7616.07,-1017 7616.07,-1017 7616.07,-1011 7622.07,-1005 7628.07,-1005 7628.07,-1005 8008.07,-1005 8008.07,-1005 8014.07,-1005 8020.07,-1011 8020.07,-1017 8020.07,-1017 8020.07,-1029 8020.07,-1029 8020.07,-1035 8014.07,-1041 8008.07,-1041"/>
<text text-anchor="middle" x="7818.07" y="-1019.3" font-family="Times,serif" font-size="14.00">PandasConcat(axis=&#39;index&#39;, ignore_index=True).apply</text>
</g>
<!-- 140636094484688&#45;&gt;140636094483328 -->
<g id="edge56" class="edge">
<title>140636094484688&#45;&gt;140636094483328</title>
<path fill="none" stroke="black" d="M7757.46,-1004.98C7738.39,-999.45 7717.3,-993.15 7698.07,-987 7582.41,-949.99 7558.6,-923.46 7440.07,-897 7307.93,-867.5 6360.33,-799.95 6228.07,-771 6155.17,-755.04 6129.88,-760.28 6069.07,-717 6044.3,-699.37 6039.35,-690.82 6027.07,-663 5991.03,-581.31 6022.53,-549.29 5993.07,-465 5965.97,-387.45 5965.61,-357.42 5904.07,-303 5865.96,-269.3 5813.51,-247.5 5769.04,-233.92"/>
<polygon fill="black" stroke="black" points="5769.98,-230.55 5759.4,-231.06 5767.99,-237.26 5769.98,-230.55"/>
<text text-anchor="middle" x="6032.07" y="-641.3" font-family="Times,serif" font-size="14.00">2</text>
</g>
<!-- 140636094484688&#45;&gt;140636094483488 -->
<g id="edge58" class="edge">
<title>140636094484688&#45;&gt;140636094483488</title>
<path fill="none" stroke="black" d="M7771.87,-1004.92C7735.91,-988.29 7692.07,-959.17 7692.07,-916 7692.07,-916 7692.07,-916 7692.07,-698 7692.07,-569.65 7749.8,-502.78 7660.07,-411 7563.01,-311.72 6583.07,-239.51 6282.36,-219.55"/>
<polygon fill="black" stroke="black" points="6282.58,-216.06 6272.37,-218.89 6282.12,-223.04 6282.58,-216.06"/>
<text text-anchor="middle" x="7702.07" y="-641.3" font-family="Times,serif" font-size="14.00">1</text>
</g>
<!-- 140636094483088&#45;&gt;140636094483248 -->
<g id="edge61" class="edge">
<title>140636094483088&#45;&gt;140636094483248</title>
<path fill="none" stroke="black" d="M2589.84,-519.46C2592.6,-519.3 2595.35,-519.15 2598.07,-519 3503.78,-469.44 4585.31,-443.43 5034.88,-434.09"/>
<polygon fill="black" stroke="black" points="5035.13,-437.59 5045.06,-433.88 5034.99,-430.59 5035.13,-437.59"/>
<text text-anchor="middle" x="3837.07" y="-479.3" font-family="Times,serif" font-size="14.00">0</text>
</g>
<!-- 140636094484208 -->
<g id="node47" class="node">
<title>140636094484208</title>
<path fill="none" stroke="black" d="M5450.57,-555C5450.57,-555 5043.57,-555 5043.57,-555 5037.57,-555 5031.57,-549 5031.57,-543 5031.57,-543 5031.57,-531 5031.57,-531 5031.57,-525 5037.57,-519 5043.57,-519 5043.57,-519 5450.57,-519 5450.57,-519 5456.57,-519 5462.57,-525 5462.57,-531 5462.57,-531 5462.57,-543 5462.57,-543 5462.57,-549 5456.57,-555 5450.57,-555"/>
<text text-anchor="middle" x="5247.07" y="-533.3" font-family="Times,serif" font-size="14.00">RandomForestClassifier(random_state=42).setstate.apply</text>
</g>
<!-- 140636094484208&#45;&gt;140636094483248 -->
<g id="edge62" class="edge">
<title>140636094484208&#45;&gt;140636094483248</title>
<path fill="none" stroke="black" d="M5247.07,-518.97C5247.07,-502.38 5247.07,-476.88 5247.07,-457.43"/>
<polygon fill="black" stroke="black" points="5250.57,-457.34 5247.07,-447.34 5243.57,-457.34 5250.57,-457.34"/>
<text text-anchor="middle" x="5252.07" y="-479.3" font-family="Times,serif" font-size="14.00">1</text>
</g>
<!-- 140636094482368&#45;&gt;140636094292336 -->
<g id="edge63" class="edge">
<title>140636094482368&#45;&gt;140636094292336</title>
<path fill="none" stroke="black" stroke-dasharray="1,5" d="M6965.37,-1059C7203.1,-1045.74 7456.09,-1023.31 7498.07,-987 7541.92,-949.08 7545.22,-875.04 7543.42,-835.1"/>
<polygon fill="black" stroke="black" points="7546.91,-834.8 7542.82,-825.03 7539.92,-835.22 7546.91,-834.8"/>
<text text-anchor="middle" x="7529.07" y="-965.3" font-family="Times,serif" font-size="14.00">0</text>
</g>
<!-- 140636094482368&#45;&gt;140636094482688 -->
<g id="edge67" class="edge">
<title>140636094482368&#45;&gt;140636094482688</title>
<path fill="none" stroke="black" stroke-dasharray="1,5" d="M6523.07,-1058.97C6523.07,-1042.38 6523.07,-1016.88 6523.07,-997.43"/>
<polygon fill="black" stroke="black" points="6526.57,-997.34 6523.07,-987.34 6519.57,-997.34 6526.57,-997.34"/>
<text text-anchor="middle" x="6528.07" y="-1019.3" font-family="Times,serif" font-size="14.00">0</text>
</g>
<!-- 140636094482368&#45;&gt;140636094483808 -->
<g id="edge83" class="edge">
<title>140636094482368&#45;&gt;140636094483808</title>
<path fill="none" stroke="black" stroke-dasharray="1,5" d="M6231.16,-1059C5895.08,-1039.42 5345.71,-1007.43 5005.32,-987.6"/>
<polygon fill="black" stroke="black" points="5005.5,-984.11 4995.31,-987.02 5005.09,-991.1 5005.5,-984.11"/>
<text text-anchor="middle" x="5887.07" y="-1019.3" font-family="Times,serif" font-size="14.00">0</text>
</g>
<!-- 140636094283888 -->
<g id="node49" class="node">
<title>140636094283888</title>
<path fill="none" stroke="black" d="M6556.07,-1199.73C6556.07,-1201.53 6541.28,-1203 6523.07,-1203 6504.86,-1203 6490.07,-1201.53 6490.07,-1199.73 6490.07,-1199.73 6490.07,-1170.27 6490.07,-1170.27 6490.07,-1168.47 6504.86,-1167 6523.07,-1167 6541.28,-1167 6556.07,-1168.47 6556.07,-1170.27 6556.07,-1170.27 6556.07,-1199.73 6556.07,-1199.73"/>
<path fill="none" stroke="black" d="M6556.07,-1199.73C6556.07,-1197.92 6541.28,-1196.45 6523.07,-1196.45 6504.86,-1196.45 6490.07,-1197.92 6490.07,-1199.73"/>
<text text-anchor="middle" x="6523.07" y="-1181.3" font-family="Times,serif" font-size="14.00">Loader</text>
</g>
<!-- 140636094283888&#45;&gt;140636094482368 -->
<g id="edge64" class="edge">
<title>140636094283888&#45;&gt;140636094482368</title>
<path fill="none" stroke="black" stroke-dasharray="1,5" d="M6523.07,-1166.97C6523.07,-1150.38 6523.07,-1124.88 6523.07,-1105.43"/>
<polygon fill="black" stroke="black" points="6526.57,-1105.34 6523.07,-1095.34 6519.57,-1105.34 6526.57,-1105.34"/>
<text text-anchor="middle" x="6528.07" y="-1127.3" font-family="Times,serif" font-size="14.00">0</text>
</g>
<!-- 140637602552352 -->
<g id="node50" class="node">
<title>140637602552352</title>
<ellipse fill="none" stroke="black" cx="7431.07" cy="-1185" rx="54.69" ry="18"/>
<text text-anchor="middle" x="7431.07" y="-1181.3" font-family="Times,serif" font-size="14.00">Getter#2</text>
</g>
<!-- 140637602552352&#45;&gt;140636094482368 -->
<g id="edge66" class="edge">
<title>140637602552352&#45;&gt;140636094482368</title>
<path fill="none" stroke="black" d="M7380.31,-1178.07C7247.93,-1162.62 6888.01,-1120.6 6679.03,-1096.21"/>
<polygon fill="black" stroke="black" points="6679.23,-1092.71 6668.89,-1095.02 6678.42,-1099.66 6679.23,-1092.71"/>
<text text-anchor="middle" x="7116.07" y="-1127.3" font-family="Times,serif" font-size="14.00">2</text>
</g>
<!-- 140636094483408 -->
<g id="node52" class="node">
<title>140636094483408</title>
<polygon fill="none" stroke="black" points="6633.07,-879 6413.07,-879 6413.07,-843 6633.07,-843 6633.07,-879"/>
<text text-anchor="middle" x="6523.07" y="-857.3" font-family="Times,serif" font-size="14.00">MinMaxScaler.setstate.train</text>
</g>
<!-- 140637602552352&#45;&gt;140636094483408 -->
<g id="edge72" class="edge">
<title>140637602552352&#45;&gt;140636094483408</title>
<path fill="none" stroke="black" d="M7449.39,-1167.97C7492.65,-1128.18 7593.51,-1022.92 7538.07,-951 7480.56,-876.37 7426.23,-911.11 7333.07,-897 7266.92,-886.98 6852.21,-872.54 6643.2,-865.77"/>
<polygon fill="black" stroke="black" points="6643.2,-862.27 6633.1,-865.44 6642.98,-869.26 6643.2,-862.27"/>
<text text-anchor="middle" x="7559.07" y="-1019.3" font-family="Times,serif" font-size="14.00">2</text>
</g>
<!-- 140636094483728 -->
<g id="node55" class="node">
<title>140636094483728</title>
<polygon fill="none" stroke="black" points="6494.57,-663 6045.57,-663 6045.57,-627 6494.57,-627 6494.57,-663"/>
<text text-anchor="middle" x="6270.07" y="-641.3" font-family="Times,serif" font-size="14.00">GradientBoostingClassifier(random_state=42).setstate.train</text>
</g>
<!-- 140637602552352&#45;&gt;140636094483728 -->
<g id="edge78" class="edge">
<title>140637602552352&#45;&gt;140636094483728</title>
<path fill="none" stroke="black" d="M7464.38,-1170.53C7476.05,-1164.89 7488.8,-1157.62 7499.07,-1149 7522.15,-1129.62 7523.97,-1120.47 7540.07,-1095 7613.61,-978.71 7678.97,-891.41 7587.07,-789 7516.26,-710.09 6864.15,-670.66 6504.91,-654.78"/>
<polygon fill="black" stroke="black" points="6505.04,-651.29 6494.89,-654.34 6504.73,-658.28 6505.04,-651.29"/>
<text text-anchor="middle" x="7637.07" y="-911.3" font-family="Times,serif" font-size="14.00">2</text>
</g>
<!-- 140636094482128 -->
<g id="node57" class="node">
<title>140636094482128</title>
<polygon fill="none" stroke="black" points="5946.57,-663 5519.57,-663 5519.57,-627 5946.57,-627 5946.57,-663"/>
<text text-anchor="middle" x="5733.07" y="-641.3" font-family="Times,serif" font-size="14.00">RandomForestClassifier(random_state=42).setstate.train</text>
</g>
<!-- 140637602552352&#45;&gt;140636094482128 -->
<g id="edge82" class="edge">
<title>140637602552352&#45;&gt;140636094482128</title>
<path fill="none" stroke="black" d="M7434.41,-1166.81C7438.62,-1139.48 7442.04,-1086.41 7412.07,-1059 7340.19,-993.26 6634.4,-1008.97 6537.07,-1005 6511.95,-1003.98 5649.68,-1004.96 5632.07,-987 5620.87,-975.57 5628.68,-966.64 5632.07,-951 5650.72,-865.09 5689.01,-855.26 5714.07,-771 5723.82,-738.23 5728.74,-699.07 5731.1,-673.42"/>
<polygon fill="black" stroke="black" points="5734.6,-673.57 5731.96,-663.31 5727.62,-672.98 5734.6,-673.57"/>
<text text-anchor="middle" x="5654.07" y="-911.3" font-family="Times,serif" font-size="14.00">2</text>
</g>
<!-- 140636094482688&#45;&gt;140636094483408 -->
<g id="edge71" class="edge">
<title>140636094482688&#45;&gt;140636094483408</title>
<path fill="none" stroke="black" d="M6523.07,-950.97C6523.07,-934.38 6523.07,-908.88 6523.07,-889.43"/>
<polygon fill="black" stroke="black" points="6526.57,-889.34 6523.07,-879.34 6519.57,-889.34 6526.57,-889.34"/>
<text text-anchor="middle" x="6528.07" y="-911.3" font-family="Times,serif" font-size="14.00">1</text>
</g>
<!-- 140636094483648 -->
<g id="node54" class="node">
<title>140636094483648</title>
<path fill="none" stroke="black" d="M6067.07,-771C6067.07,-771 5867.07,-771 5867.07,-771 5861.07,-771 5855.07,-765 5855.07,-759 5855.07,-759 5855.07,-747 5855.07,-747 5855.07,-741 5861.07,-735 5867.07,-735 5867.07,-735 6067.07,-735 6067.07,-735 6073.07,-735 6079.07,-741 6079.07,-747 6079.07,-747 6079.07,-759 6079.07,-759 6079.07,-765 6073.07,-771 6067.07,-771"/>
<text text-anchor="middle" x="5967.07" y="-749.3" font-family="Times,serif" font-size="14.00">MinMaxScaler.setstate.apply</text>
</g>
<!-- 140636094482688&#45;&gt;140636094483648 -->
<g id="edge74" class="edge">
<title>140636094482688&#45;&gt;140636094483648</title>
<path fill="none" stroke="black" d="M6233.18,-950.98C6044.97,-933.18 5823.93,-897.19 5764.07,-825 5733.2,-787.77 5785.55,-770.04 5844.8,-761.6"/>
<polygon fill="black" stroke="black" points="5845.3,-765.07 5854.75,-760.28 5844.38,-758.13 5845.3,-765.07"/>
<text text-anchor="middle" x="5854.07" y="-857.3" font-family="Times,serif" font-size="14.00">1</text>
</g>
<!-- 140636094483408&#45;&gt;140637602597904 -->
<g id="edge69" class="edge">
<title>140636094483408&#45;&gt;140637602597904</title>
<path fill="none" stroke="black" stroke-dasharray="1,5" d="M6527.49,-842.78C6537.17,-800.74 6555.49,-691.63 6504.07,-627 6489.03,-608.1 6463.77,-599.23 6441.24,-595.15"/>
<polygon fill="black" stroke="black" points="6441.55,-591.66 6431.13,-593.59 6440.48,-598.57 6441.55,-591.66"/>
<text text-anchor="middle" x="6543.07" y="-749.3" font-family="Times,serif" font-size="14.00">0</text>
</g>
<!-- 140636094483408&#45;&gt;140636094483648 -->
<g id="edge73" class="edge">
<title>140636094483408&#45;&gt;140636094483648</title>
<path fill="none" stroke="black" stroke-dasharray="1,5" d="M6425.81,-842.99C6394.29,-837.38 6359.18,-831.03 6327.07,-825 6236.78,-808.04 6133.97,-787.65 6061.4,-773.09"/>
<polygon fill="black" stroke="black" points="6061.86,-769.61 6051.37,-771.07 6060.48,-776.47 6061.86,-769.61"/>
<text text-anchor="middle" x="6332.07" y="-803.3" font-family="Times,serif" font-size="14.00">0</text>
</g>
<!-- 140636094483968 -->
<g id="node60" class="node">
<title>140636094483968</title>
<path fill="none" stroke="black" d="M5381.07,-717C5381.07,-717 5181.07,-717 5181.07,-717 5175.07,-717 5169.07,-711 5169.07,-705 5169.07,-705 5169.07,-693 5169.07,-693 5169.07,-687 5175.07,-681 5181.07,-681 5181.07,-681 5381.07,-681 5381.07,-681 5387.07,-681 5393.07,-687 5393.07,-693 5393.07,-693 5393.07,-705 5393.07,-705 5393.07,-711 5387.07,-717 5381.07,-717"/>
<text text-anchor="middle" x="5281.07" y="-695.3" font-family="Times,serif" font-size="14.00">MinMaxScaler.setstate.apply</text>
</g>
<!-- 140636094483408&#45;&gt;140636094483968 -->
<g id="edge85" class="edge">
<title>140636094483408&#45;&gt;140636094483968</title>
<path fill="none" stroke="black" stroke-dasharray="1,5" d="M6412.95,-852.89C6243.89,-841.1 5910.49,-814.42 5630.07,-771 5538.78,-756.87 5435.18,-735.05 5364.73,-719.33"/>
<polygon fill="black" stroke="black" points="5365.1,-715.82 5354.58,-717.05 5363.57,-722.65 5365.1,-715.82"/>
<text text-anchor="middle" x="6069.07" y="-803.3" font-family="Times,serif" font-size="14.00">0</text>
</g>
<!-- 140637602598624 -->
<g id="node53" class="node">
<title>140637602598624</title>
<path fill="none" stroke="black" d="M7489.07,-983.73C7489.07,-985.53 7474.28,-987 7456.07,-987 7437.86,-987 7423.07,-985.53 7423.07,-983.73 7423.07,-983.73 7423.07,-954.27 7423.07,-954.27 7423.07,-952.47 7437.86,-951 7456.07,-951 7474.28,-951 7489.07,-952.47 7489.07,-954.27 7489.07,-954.27 7489.07,-983.73 7489.07,-983.73"/>
<path fill="none" stroke="black" d="M7489.07,-983.73C7489.07,-981.92 7474.28,-980.45 7456.07,-980.45 7437.86,-980.45 7423.07,-981.92 7423.07,-983.73"/>
<text text-anchor="middle" x="7456.07" y="-965.3" font-family="Times,serif" font-size="14.00">Loader</text>
</g>
<!-- 140637602598624&#45;&gt;140636094483408 -->
<g id="edge70" class="edge">
<title>140637602598624&#45;&gt;140636094483408</title>
<path fill="none" stroke="black" stroke-dasharray="1,5" d="M7422.89,-953.57C7419.94,-952.6 7416.98,-951.72 7414.07,-951 7144.02,-884.32 6816.18,-867.37 6643.27,-863.21"/>
<polygon fill="black" stroke="black" points="6643.2,-859.71 6633.12,-862.98 6643.04,-866.71 6643.2,-859.71"/>
<text text-anchor="middle" x="7324.07" y="-911.3" font-family="Times,serif" font-size="14.00">0</text>
</g>
<!-- 140636094483648&#45;&gt;140636094483728 -->
<g id="edge77" class="edge">
<title>140636094483648&#45;&gt;140636094483728</title>
<path fill="none" stroke="black" d="M6015.76,-734.97C6069.13,-716.3 6154.73,-686.35 6211.68,-666.43"/>
<polygon fill="black" stroke="black" points="6212.98,-669.68 6221.26,-663.08 6210.67,-663.07 6212.98,-669.68"/>
<text text-anchor="middle" x="6168.07" y="-695.3" font-family="Times,serif" font-size="14.00">1</text>
</g>
<!-- 140636094483648&#45;&gt;140636094482128 -->
<g id="edge81" class="edge">
<title>140636094483648&#45;&gt;140636094482128</title>
<path fill="none" stroke="black" d="M5929.48,-734.97C5888.92,-716.6 5824.25,-687.3 5780.29,-667.39"/>
<polygon fill="black" stroke="black" points="5781.52,-664.1 5770.96,-663.16 5778.63,-670.48 5781.52,-664.1"/>
<text text-anchor="middle" x="5889.07" y="-695.3" font-family="Times,serif" font-size="14.00">1</text>
</g>
<!-- 140636094483728&#45;&gt;140637602600208 -->
<g id="edge75" class="edge">
<title>140636094483728&#45;&gt;140637602600208</title>
<path fill="none" stroke="black" stroke-dasharray="1,5" d="M6147.81,-626.97C6099.41,-612.68 6055.07,-586.38 6055.07,-538 6055.07,-538 6055.07,-538 6055.07,-266 6055.07,-238.89 6049.59,-208.38 6044.85,-187.07"/>
<polygon fill="black" stroke="black" points="6048.21,-186.07 6042.54,-177.12 6041.39,-187.66 6048.21,-186.07"/>
<text text-anchor="middle" x="6060.07" y="-425.3" font-family="Times,serif" font-size="14.00">0</text>
</g>
<!-- 140636094483728&#45;&gt;140636094484128 -->
<g id="edge87" class="edge">
<title>140636094483728&#45;&gt;140636094484128</title>
<path fill="none" stroke="black" stroke-dasharray="1,5" d="M6142.36,-626.99C6106.29,-621.73 6067.07,-615.57 6031.07,-609 5947.69,-593.78 5853.08,-572.59 5787.72,-557.33"/>
<polygon fill="black" stroke="black" points="5788.43,-553.9 5777.89,-555.02 5786.83,-560.71 5788.43,-553.9"/>
<text text-anchor="middle" x="6036.07" y="-587.3" font-family="Times,serif" font-size="14.00">0</text>
</g>
<!-- 140637602600160 -->
<g id="node56" class="node">
<title>140637602600160</title>
<path fill="none" stroke="black" d="M6303.07,-767.73C6303.07,-769.53 6288.28,-771 6270.07,-771 6251.86,-771 6237.07,-769.53 6237.07,-767.73 6237.07,-767.73 6237.07,-738.27 6237.07,-738.27 6237.07,-736.47 6251.86,-735 6270.07,-735 6288.28,-735 6303.07,-736.47 6303.07,-738.27 6303.07,-738.27 6303.07,-767.73 6303.07,-767.73"/>
<path fill="none" stroke="black" d="M6303.07,-767.73C6303.07,-765.92 6288.28,-764.45 6270.07,-764.45 6251.86,-764.45 6237.07,-765.92 6237.07,-767.73"/>
<text text-anchor="middle" x="6270.07" y="-749.3" font-family="Times,serif" font-size="14.00">Loader</text>
</g>
<!-- 140637602600160&#45;&gt;140636094483728 -->
<g id="edge76" class="edge">
<title>140637602600160&#45;&gt;140636094483728</title>
<path fill="none" stroke="black" stroke-dasharray="1,5" d="M6270.07,-734.97C6270.07,-718.38 6270.07,-692.88 6270.07,-673.43"/>
<polygon fill="black" stroke="black" points="6273.57,-673.34 6270.07,-663.34 6266.57,-673.34 6273.57,-673.34"/>
<text text-anchor="middle" x="6275.07" y="-695.3" font-family="Times,serif" font-size="14.00">0</text>
</g>
<!-- 140636094482128&#45;&gt;140637602600448 -->
<g id="edge79" class="edge">
<title>140636094482128&#45;&gt;140637602600448</title>
<path fill="none" stroke="black" stroke-dasharray="1,5" d="M5826.01,-626.96C5868.35,-614.3 5915.15,-592.46 5943.07,-555 6001.64,-476.42 5989.42,-350.52 5980.37,-295.37"/>
<polygon fill="black" stroke="black" points="5983.79,-294.57 5978.63,-285.32 5976.89,-295.77 5983.79,-294.57"/>
<text text-anchor="middle" x="5985.07" y="-479.3" font-family="Times,serif" font-size="14.00">0</text>
</g>
<!-- 140636094482128&#45;&gt;140636094484208 -->
<g id="edge89" class="edge">
<title>140636094482128&#45;&gt;140636094484208</title>
<path fill="none" stroke="black" stroke-dasharray="1,5" d="M5654.99,-626.97C5567.7,-607.93 5426.66,-577.17 5335.41,-557.27"/>
<polygon fill="black" stroke="black" points="5335.88,-553.79 5325.37,-555.08 5334.39,-560.63 5335.88,-553.79"/>
<text text-anchor="middle" x="5566.07" y="-587.3" font-family="Times,serif" font-size="14.00">0</text>
</g>
<!-- 140637602600784 -->
<g id="node58" class="node">
<title>140637602600784</title>
<path fill="none" stroke="black" d="M5705.07,-767.73C5705.07,-769.53 5690.28,-771 5672.07,-771 5653.86,-771 5639.07,-769.53 5639.07,-767.73 5639.07,-767.73 5639.07,-738.27 5639.07,-738.27 5639.07,-736.47 5653.86,-735 5672.07,-735 5690.28,-735 5705.07,-736.47 5705.07,-738.27 5705.07,-738.27 5705.07,-767.73 5705.07,-767.73"/>
<path fill="none" stroke="black" d="M5705.07,-767.73C5705.07,-765.92 5690.28,-764.45 5672.07,-764.45 5653.86,-764.45 5639.07,-765.92 5639.07,-767.73"/>
<text text-anchor="middle" x="5672.07" y="-749.3" font-family="Times,serif" font-size="14.00">Loader</text>
</g>
<!-- 140637602600784&#45;&gt;140636094482128 -->
<g id="edge80" class="edge">
<title>140637602600784&#45;&gt;140636094482128</title>
<path fill="none" stroke="black" stroke-dasharray="1,5" d="M5680.33,-734.76C5687.48,-720.18 5698.34,-698.87 5709.07,-681 5710.91,-677.94 5712.91,-674.78 5714.95,-671.68"/>
<polygon fill="black" stroke="black" points="5718,-673.42 5720.69,-663.18 5712.19,-669.51 5718,-673.42"/>
<text text-anchor="middle" x="5714.07" y="-695.3" font-family="Times,serif" font-size="14.00">0</text>
</g>
<!-- 140636094483808&#45;&gt;140636094483968 -->
<g id="edge86" class="edge">
<title>140636094483808&#45;&gt;140636094483968</title>
<path fill="none" stroke="black" d="M4740.11,-950.83C4841.55,-903.79 5123.72,-772.96 5235.06,-721.34"/>
<polygon fill="black" stroke="black" points="5236.75,-724.41 5244.35,-717.03 5233.8,-718.06 5236.75,-724.41"/>
<text text-anchor="middle" x="4974.07" y="-857.3" font-family="Times,serif" font-size="14.00">1</text>
</g>
<!-- 140636094483968&#45;&gt;140636094484128 -->
<g id="edge88" class="edge">
<title>140636094483968&#45;&gt;140636094484128</title>
<path fill="none" stroke="black" d="M5326.66,-680.88C5405.51,-651.26 5567.04,-590.6 5652.02,-558.68"/>
<polygon fill="black" stroke="black" points="5653.36,-561.91 5661.49,-555.12 5650.9,-555.36 5653.36,-561.91"/>
<text text-anchor="middle" x="5471.07" y="-641.3" font-family="Times,serif" font-size="14.00">1</text>
</g>
<!-- 140636094483968&#45;&gt;140636094484208 -->
<g id="edge90" class="edge">
<title>140636094483968&#45;&gt;140636094484208</title>
<path fill="none" stroke="black" d="M5277.43,-680.88C5271.56,-653.23 5259.94,-598.54 5252.9,-565.42"/>
<polygon fill="black" stroke="black" points="5256.29,-564.54 5250.79,-555.48 5249.44,-565.99 5256.29,-564.54"/>
<text text-anchor="middle" x="5278.07" y="-641.3" font-family="Times,serif" font-size="14.00">1</text>
</g>
<!-- 140636094482848&#45;&gt;140637602552784 -->
<g id="edge94" class="edge">
<title>140636094482848&#45;&gt;140637602552784</title>
<path fill="none" stroke="black" d="M5552.37,-1257.83C5506.42,-1256.45 5460.22,-1255.14 5416.07,-1254 4721.68,-1236.03 2451.11,-1194.66 2037.9,-1187.17"/>
<polygon fill="black" stroke="black" points="2037.7,-1183.67 2027.63,-1186.99 2037.57,-1190.67 2037.7,-1183.67"/>
<text text-anchor="middle" x="4604.07" y="-1224.8" font-family="Times,serif" font-size="14.00">0</text>
</g>
<!-- 140636094482848&#45;&gt;140637602552352 -->
<g id="edge96" class="edge">
<title>140636094482848&#45;&gt;140637602552352</title>
<path fill="none" stroke="black" d="M6244.26,-1253.98C6601.67,-1233.51 7177.31,-1200.53 7367.69,-1189.63"/>
<polygon fill="black" stroke="black" points="7368.02,-1193.12 7377.8,-1189.05 7367.62,-1186.13 7368.02,-1193.12"/>
<text text-anchor="middle" x="6782.07" y="-1224.8" font-family="Times,serif" font-size="14.00">0</text>
</g>
<!-- 140637602558400 -->
<g id="node62" class="node">
<title>140637602558400</title>
<ellipse fill="none" stroke="black" cx="7784.07" cy="-1185" rx="54.69" ry="18"/>
<text text-anchor="middle" x="7784.07" y="-1181.3" font-family="Times,serif" font-size="14.00">Getter#1</text>
</g>
<!-- 140636094482848&#45;&gt;140637602558400 -->
<g id="edge95" class="edge">
<title>140636094482848&#45;&gt;140637602558400</title>
<path fill="none" stroke="black" d="M6341.8,-1265.53C6601.67,-1260.68 6949.29,-1251.81 7256.07,-1236 7448.38,-1226.09 7497.03,-1227.15 7688.07,-1203 7701.19,-1201.34 7715.23,-1199.11 7728.42,-1196.82"/>
<polygon fill="black" stroke="black" points="7729.08,-1200.26 7738.31,-1195.06 7727.85,-1193.36 7729.08,-1200.26"/>
<text text-anchor="middle" x="7521.07" y="-1224.8" font-family="Times,serif" font-size="14.00">0</text>
</g>
<!-- 140637602595168 -->
<g id="node63" class="node">
<title>140637602595168</title>
<ellipse fill="none" stroke="black" cx="7624.07" cy="-1185" rx="54.69" ry="18"/>
<text text-anchor="middle" x="7624.07" y="-1181.3" font-family="Times,serif" font-size="14.00">Getter#3</text>
</g>
<!-- 140636094482848&#45;&gt;140637602595168 -->
<g id="edge97" class="edge">
<title>140636094482848&#45;&gt;140637602595168</title>
<path fill="none" stroke="black" d="M6341.8,-1263.46C6655,-1255.11 7103.7,-1237.9 7495.07,-1203 7518.09,-1200.95 7543.31,-1197.82 7565.3,-1194.81"/>
<polygon fill="black" stroke="black" points="7566.06,-1198.23 7575.48,-1193.39 7565.09,-1191.3 7566.06,-1198.23"/>
<text text-anchor="middle" x="7247.07" y="-1224.8" font-family="Times,serif" font-size="14.00">0</text>
</g>
<!-- 140637602558400&#45;&gt;140636094484688 -->
<g id="edge98" class="edge">
<title>140637602558400&#45;&gt;140636094484688</title>
<path fill="none" stroke="black" d="M7787.71,-1166.88C7793.59,-1139.23 7805.21,-1084.54 7812.25,-1051.42"/>
<polygon fill="black" stroke="black" points="7815.7,-1051.99 7814.36,-1041.48 7808.86,-1050.54 7815.7,-1051.99"/>
<text text-anchor="middle" x="7803.07" y="-1127.3" font-family="Times,serif" font-size="14.00">0</text>
</g>
<!-- 140637602595168&#45;&gt;140636094484688 -->
<g id="edge99" class="edge">
<title>140637602595168&#45;&gt;140636094484688</title>
<path fill="none" stroke="black" d="M7643.38,-1168.07C7677.72,-1139.75 7749.56,-1080.51 7789.59,-1047.49"/>
<polygon fill="black" stroke="black" points="7791.9,-1050.13 7797.38,-1041.06 7787.44,-1044.73 7791.9,-1050.13"/>
<text text-anchor="middle" x="7713.07" y="-1127.3" font-family="Times,serif" font-size="14.00">1</text>
</g>
</g>
</svg>
